<svg xmlns="http://www.w3.org/2000/svg" viewBox="0 0 284.77 18.05"><defs><style>.cls-1{fill:#231815;}.cls-2{fill:none;}</style></defs><title>name_4</title><g id="レイヤー_2" data-name="レイヤー 2"><g id="レイヤー_1-2" data-name="レイヤー 1"><path class="cls-1" d="M27.06,12.26a10.51,10.51,0,0,0,6.5-4.69,7.69,7.69,0,0,0,.87.85c-1.58,2.63-4.32,4.32-7.89,5.24a.33.33,0,0,1-.21.26l-.69-1.12.17-.26V3.89L27.42,4c0,.13-.12.24-.36.28Z"/><path class="cls-1" d="M37.54,6.93A18.61,18.61,0,0,1,40.69,8l-.51,1.05A18.27,18.27,0,0,0,37,7.93Zm.52,5.73c3.76-1.22,6.47-3.25,8.08-6.81a10.21,10.21,0,0,0,1,.77,13.26,13.26,0,0,1-8,7,.28.28,0,0,1-.16.31ZM38.93,4a21.36,21.36,0,0,1,3.14,1.17l-.56,1A17.68,17.68,0,0,0,38.4,4.93Zm5.53-.4a10.11,10.11,0,0,1,1.48,1.72l-.61.44A10.45,10.45,0,0,0,43.89,4Zm1.75-.69a9.86,9.86,0,0,1,1.48,1.69L47.08,5a10.7,10.7,0,0,0-1.42-1.69Z"/><path class="cls-1" d="M49.86,8h10V9.17H50.34a.5.5,0,0,1-.38.22Z"/><path class="cls-1" d="M72.87,7.74H68.61c-.22,2.93-1,4.82-3.62,6.33a8.14,8.14,0,0,0-1-.82c2.43-1.34,3.16-2.9,3.39-5.51H62.82V6.58h4.62c0-.91,0-1.95,0-3.13l1.59.1c0,.14-.12.23-.33.25,0,1,0,1.94,0,2.78h4.18Z"/><path class="cls-1" d="M85.12,5.89c0,.08-.14.15-.21.2-1.31,3.9-3.23,6.34-6.51,8a4.45,4.45,0,0,0-.88-.92,10.63,10.63,0,0,0,5.85-6.64H79.49a12.57,12.57,0,0,1-2.62,2.86,5.87,5.87,0,0,0-1-.77,12.09,12.09,0,0,0,3.8-5.14l1.53.38c0,.12-.2.18-.36.18-.22.48-.47.94-.71,1.37H84l.18-.08Z"/><path class="cls-1" d="M90.31,10.18V4.33l1.54.08c0,.11-.12.21-.33.23v5.54Zm6.91-6.35c0,.12-.11.2-.31.22V7.83a6.08,6.08,0,0,1-4.26,6.23,6.32,6.32,0,0,0-.9-.89C95,12,95.67,9.93,95.67,7.83V3.74Z"/><path class="cls-1" d="M111.46,11.59v1.16h-9.94V11.59Zm-1.18-6.41V6.34h-7.51V5.18Z"/><path class="cls-1" d="M116.34,6.69a15,15,0,0,1,.88,2.57l-.94.26A11.93,11.93,0,0,0,115.43,7Zm7.06.21a.28.28,0,0,1-.27.13c-1,3.51-2.77,5.63-5.59,6.77a5,5,0,0,0-.65-.76c2.7-1,4.43-3,5.27-6.54Zm-4.17-.74a15.23,15.23,0,0,1,.56,2.68l-1,.2a16.12,16.12,0,0,0-.57-2.67Z"/><path class="cls-1" d="M136.72,5.89c0,.08-.14.15-.21.2-1.31,3.9-3.23,6.34-6.51,8a4.45,4.45,0,0,0-.88-.92A10.63,10.63,0,0,0,135,6.52h-3.88a12.57,12.57,0,0,1-2.62,2.86,5.87,5.87,0,0,0-1-.77,12.09,12.09,0,0,0,3.8-5.14l1.53.38c0,.12-.2.18-.36.18-.22.48-.47.94-.71,1.37h3.81l.18-.08Z"/><path class="cls-1" d="M140.22,6.5a9.59,9.59,0,0,1,2.24,1.19l-.66,1a9.39,9.39,0,0,0-2.2-1.3Zm-.26,7a35.15,35.15,0,0,0,2.16-3.91l.86.72a36.54,36.54,0,0,1-1.91,3.64.3.3,0,0,1,.07.19.27.27,0,0,1-.06.17Zm.93-10.25a9.15,9.15,0,0,1,2.2,1.26l-.66.92a8.8,8.8,0,0,0-2.16-1.35Zm6.78,4h3.2V8.29h-8.08V7.21h1.34v-3l1.36.09c0,.09-.09.16-.28.19V7.21h1.34V3.14l1.41.09c0,.09-.09.16-.29.2V4.76h2.73v1h-2.73Zm-4.83,6c.81-.42,2.07-1.15,3.27-1.87l.36,1c-1,.64-2.06,1.33-2.77,1.75a.31.31,0,0,1-.11.25Zm1.46-4.69a9.43,9.43,0,0,1,1.87,1.87l-.89.69a10.42,10.42,0,0,0-1.82-1.95ZM150,14.38a16.74,16.74,0,0,0-2.89-2.21l.76-.78a19,19,0,0,1,3,2.11Zm-2.59-3.87a13.55,13.55,0,0,0,2-2.09l1.17.79a.31.31,0,0,1-.31.07,19.9,19.9,0,0,1-2,1.84Z"/><path class="cls-1" d="M154.75,9.93a14.31,14.31,0,0,1-1.51,1,4.7,4.7,0,0,0-.69-.9,13.08,13.08,0,0,0,5-4.52l1.53.08a.28.28,0,0,1-.27.21,13.64,13.64,0,0,0,5.06,4.09,4.73,4.73,0,0,0-.74,1c-.48-.26-1-.57-1.48-.91v4.44h-1.17v-.46h-4.58v.48h-1.12Zm2.5-6a.29.29,0,0,1-.3.1,13.44,13.44,0,0,1-3.17,3,7.79,7.79,0,0,0-.85-.76,10.42,10.42,0,0,0,3-2.85ZM161,9.46a13.9,13.9,0,0,1-2.84-2.85,13.43,13.43,0,0,1-2.74,2.85Zm-5.09,3.46h4.58V10.46h-4.58ZM160,3.35A18.51,18.51,0,0,1,163.3,6.2l-1,.7A17.59,17.59,0,0,0,159.14,4Z"/><path class="cls-1" d="M168.86,3.63l.74.39a.3.3,0,0,1-.11.15c-.28.94-.71,2.19-1.09,3.16a3.76,3.76,0,0,1,1.13,2.48c0,1.85-1.18,1.8-2,1.76a2.64,2.64,0,0,0-.26-.94h.65c.35,0,.61-.16.61-.93a3.42,3.42,0,0,0-1.1-2.25c.31-.84.62-1.93.84-2.76h-1.31v9.69h-1V3.67h2.77Zm5.65,9.14c0,.34,0,.37.25.37h.65c.23,0,.28-.18.3-1.43a2.81,2.81,0,0,0,1,.44c-.11,1.58-.37,2-1.14,2h-.95c-.93,0-1.15-.32-1.15-1.37V9.93h-1.18c-.16,2.12-.6,3.63-3,4.45a3,3,0,0,0-.61-.88c2-.62,2.36-1.75,2.5-3.57h-1.49v-1h6.85v1h-2Zm-4.95-8.19h2.85V3.15l1.38.09c0,.09-.09.17-.27.19V4.58h3V6.93h-1v.78h-5.07V6.94h-.91Zm5.86,2.14V5.56h-4.85V6.72Z"/><path class="cls-1" d="M185.35,3.63l.73.39a.22.22,0,0,1-.11.15c-.27.94-.7,2.19-1.09,3.16A3.73,3.73,0,0,1,186,9.81c0,1.85-1.18,1.8-2,1.76a2.63,2.63,0,0,0-.25-.94h.65c.35,0,.61-.16.61-.93a3.46,3.46,0,0,0-1.1-2.25c.31-.84.62-1.93.84-2.76h-1.31v9.69h-1V3.67h2.77ZM191,12.77c0,.34,0,.37.25.37h.65c.23,0,.28-.18.3-1.43a2.81,2.81,0,0,0,1,.44c-.11,1.58-.37,2-1.14,2h-1c-.93,0-1.15-.32-1.15-1.37V9.93h-1.19c-.15,2.12-.6,3.63-3,4.45a3.24,3.24,0,0,0-.61-.88c2-.62,2.36-1.75,2.49-3.57h-1.48v-1H193v1h-2Zm-4.95-8.19h2.85V3.15l1.38.09c0,.09-.1.17-.27.19V4.58h3V6.93H192v.78H187V6.94h-.91Zm5.86,2.14V5.56h-4.86V6.72Z"/><path class="cls-1" d="M204.52,9.94l1,.76a.37.37,0,0,1-.31.06,21.19,21.19,0,0,1-2.33,1.35,8.11,8.11,0,0,0,3.21,1.29,3.85,3.85,0,0,0-.72,1,7.44,7.44,0,0,1-5.53-4.48h-1.61v2.94l2.9-.43,0,.93c-1.84.34-3.78.66-5,.87a.25.25,0,0,1-.18.19l-.45-1.19,1.55-.21V9.94H195v-1h2.1V3.61h7.59v.95h-6.44v.85h6.08v.9h-6.08v.85h6.08v.9h-6.08v.86h7.64v1Zm-3.51,0a5.88,5.88,0,0,0,1.13,1.54,18,18,0,0,0,2.32-1.54Z"/><path class="cls-1" d="M212.69,3.79l1.41.08c0,.11-.08.17-.27.21V7.94c0,2.34-.18,4.71-1.77,6.52a4.8,4.8,0,0,0-.94-.79c1.41-1.6,1.57-3.68,1.57-5.73Zm3.84.49,1.41.09c0,.1-.09.16-.27.2v8.69h-1.14Zm4.09-.54,1.45.1c0,.09-.09.17-.29.2V14.36h-1.16Z"/><path class="cls-1" d="M235.47,7.82v1h-.81V13.2c0,1.07-.45,1.22-2.52,1.22a4.29,4.29,0,0,0-.4-1l1.13,0c.67,0,.72,0,.72-.23V8.79h-5.2V12.6h-.8v-.75H225.4V13h-.83V5.23l1.07.06c0,.09-.09.14-.24.17v5.47H226V3.42l1.18.07c0,.1-.1.16-.27.18v7.26h.66V5.23l1,.06c0,.09-.09.14-.25.17V7.82Zm-3.12-2.68c0,.11-.06.21-.08.32A31.74,31.74,0,0,1,235.17,7l-.72.78c-.57-.38-1.67-1-2.6-1.48a4.17,4.17,0,0,1-2.64,1.41,2.71,2.71,0,0,0-.54-.82c1.57-.32,2.27-.83,2.59-1.73h-2.4V4.22h2.61c0-.32.05-.67.07-1.07l1.29.09c0,.11-.09.17-.25.19,0,.28,0,.54-.07.79h2.59v.92Zm.18,7.33h-2.41v.67h-.91V9.57h3.32Zm-.93-2.08h-1.48v1.27h1.48Z"/><path class="cls-1" d="M248.19,4.23v1h-9V7.78c0,1.93-.17,4.79-1.22,6.65a4.26,4.26,0,0,0-.93-.61c1-1.75,1.06-4.25,1.06-6V4.23h4.43V3.15l1.47.09c0,.11-.09.17-.28.2v.79ZM239,13c.82-.26,2-.73,3.24-1.17.06.23.12.46.19.84-1,.43-2,.87-2.68,1.14a.23.23,0,0,1-.12.21Zm8.19-3h-2.85a5.27,5.27,0,0,0,.81,1.38,13.53,13.53,0,0,0,1.76-1.25l1,.81a.3.3,0,0,1-.18.06h-.12a16.57,16.57,0,0,1-1.83,1,5.81,5.81,0,0,0,2.38,1.31,4,4,0,0,0-.7.92,6.24,6.24,0,0,1-3.4-2.88v1.8c0,1.13-.46,1.22-2.65,1.22a4.69,4.69,0,0,0-.36-1c.44,0,.91,0,1.23,0,.61,0,.68,0,.68-.28V10h-2.83V9.21h2.83v-.8h-3.5V7.58h3.5V6.84H240.2V6h2.71V5.24l1.36.07c0,.11-.07.17-.26.21V6h3.17V7.58h1.16v.83h-1.16Zm-5.85,1.93a9.88,9.88,0,0,0-1.75-1.24l.64-.63A10.37,10.37,0,0,1,242,11.25ZM244,6.84v.74h2.09V6.84Zm0,1.57v.8h2.09v-.8Z"/><path class="cls-1" d="M252.8,12c0,.09-.13.13-.28.12a8,8,0,0,1-1.68,2.25,8,8,0,0,0-.87-.66,6,6,0,0,0,1.54-2.12Zm-2.11-8.4h4.81v7.74h-4.81Zm1.08,1V5.91h2.6V4.64Zm0,2.2V8.13h2.6V6.84Zm0,2.2v1.31h2.6V9Zm2.77,2.58a9.71,9.71,0,0,1,1.38,2.08s-.09.06-1,.5A9.73,9.73,0,0,0,253.56,12Zm2.13-7L258,4.7c0,.1-.09.17-.27.19v6.49h-1.1Zm2.91-1.23,1.42.08c0,.1-.09.18-.29.2v9.27c0,1.31-.54,1.48-2.89,1.45a4.25,4.25,0,0,0-.41-1.16c.5,0,1,0,1.33,0,.76,0,.84,0,.84-.31Z"/><rect class="cls-2" width="284.77" height="18.05"/></g></g></svg>