<svg xmlns="http://www.w3.org/2000/svg" viewBox="0 0 284.77 18.05"><defs><style>.cls-1{fill:#231815;}.cls-2{fill:none;}</style></defs><title>name_7</title><g id="レイヤー_2" data-name="レイヤー 2"><g id="レイヤー_1-2" data-name="レイヤー 1"><path class="cls-1" d="M27.06,12.26a10.51,10.51,0,0,0,6.5-4.69,7.69,7.69,0,0,0,.87.85c-1.58,2.63-4.32,4.32-7.89,5.24a.33.33,0,0,1-.21.26l-.69-1.12.17-.26V3.89L27.42,4c0,.13-.12.24-.36.28Z"/><path class="cls-1" d="M37.54,6.93A18.61,18.61,0,0,1,40.69,8l-.51,1.05A18.27,18.27,0,0,0,37,7.93Zm.52,5.74c3.76-1.23,6.47-3.25,8.08-6.82a10.21,10.21,0,0,0,1,.77,13.26,13.26,0,0,1-8,7,.28.28,0,0,1-.16.31ZM38.93,4a21.36,21.36,0,0,1,3.14,1.17l-.56,1A17.68,17.68,0,0,0,38.4,4.93Zm5.53-.4a10.11,10.11,0,0,1,1.48,1.72l-.61.44A10.45,10.45,0,0,0,43.89,4Zm1.75-.69a9.86,9.86,0,0,1,1.48,1.69L47.08,5a10.7,10.7,0,0,0-1.42-1.69Z"/><path class="cls-1" d="M49.86,8h10V9.17H50.34a.5.5,0,0,1-.38.22Z"/><path class="cls-1" d="M72.87,7.74H68.61c-.22,2.93-1,4.82-3.62,6.33a8.14,8.14,0,0,0-1-.82c2.43-1.34,3.16-2.9,3.39-5.51H62.82V6.58h4.62c0-.91,0-1.95,0-3.13l1.59.1c0,.14-.12.23-.33.25,0,1,0,1.94,0,2.78h4.18Z"/><path class="cls-1" d="M85.12,5.89c0,.08-.14.15-.21.2-1.31,3.9-3.23,6.34-6.51,8a4.45,4.45,0,0,0-.88-.92,10.63,10.63,0,0,0,5.85-6.64H79.49a12.36,12.36,0,0,1-2.62,2.86,5.87,5.87,0,0,0-1-.77,12.09,12.09,0,0,0,3.8-5.14l1.53.38c0,.12-.2.18-.36.18-.22.48-.47.94-.71,1.37H84l.18-.07Z"/><path class="cls-1" d="M90.31,10.18V4.33l1.54.08c0,.11-.12.21-.33.23v5.54Zm6.91-6.35c0,.12-.11.2-.31.22V7.83a6.08,6.08,0,0,1-4.26,6.23,6.32,6.32,0,0,0-.9-.89C95,12,95.67,9.93,95.67,7.83V3.74Z"/><path class="cls-1" d="M111.46,11.59v1.16h-9.94V11.59Zm-1.18-6.41V6.34h-7.51V5.18Z"/><path class="cls-1" d="M116.34,6.69a15,15,0,0,1,.88,2.57l-.94.26A11.93,11.93,0,0,0,115.43,7Zm7.06.21a.28.28,0,0,1-.27.13c-1,3.51-2.77,5.64-5.59,6.77a5,5,0,0,0-.65-.76c2.7-1,4.43-3,5.27-6.54Zm-4.17-.74a15.23,15.23,0,0,1,.56,2.68l-1,.2a16.12,16.12,0,0,0-.57-2.67Z"/><path class="cls-1" d="M136.72,5.89c0,.08-.14.15-.21.2-1.31,3.9-3.23,6.34-6.51,8a4.45,4.45,0,0,0-.88-.92A10.63,10.63,0,0,0,135,6.52h-3.88a12.36,12.36,0,0,1-2.62,2.86,5.87,5.87,0,0,0-1-.77,12.09,12.09,0,0,0,3.8-5.14l1.53.38c0,.12-.2.18-.36.18-.22.48-.47.94-.71,1.37h3.81l.18-.07Z"/><path class="cls-1" d="M145.35,3.74v8.37H141V13h-1V3.74Zm-3.14,1H141V7.35h1.19ZM141,8.35v2.77h1.19V8.35Zm3.34-1V4.74h-1.25V7.35Zm-1.25,3.77h1.25V8.35h-1.25Zm7.82-6.57V5.66h-1.64V13c0,1.31-.59,1.4-3,1.4a4.08,4.08,0,0,0-.4-1.14l1.15,0c1,0,1,0,1-.3V5.66h-2.55V4.55Z"/><path class="cls-1" d="M153.17,4h10.05v10.3H162v-.75h-7.72v.75h-1.14Zm4.35,1.11h-3.21v3h3.21Zm-3.21,4.18v3.11h3.21V9.27ZM162,8.13v-3h-3.36v3Zm-3.36,4.25H162V9.27h-3.36Z"/><path class="cls-1" d="M168.86,3.63l.74.39a.3.3,0,0,1-.11.15c-.28.94-.71,2.19-1.09,3.16a3.76,3.76,0,0,1,1.13,2.48c0,1.85-1.18,1.8-2,1.76a2.64,2.64,0,0,0-.26-.94h.65c.35,0,.61-.16.61-.93a3.42,3.42,0,0,0-1.1-2.25c.31-.84.62-1.93.84-2.76h-1.31v9.69h-1V3.67h2.77Zm5.65,9.14c0,.34,0,.37.25.37h.65c.23,0,.28-.18.3-1.43a2.81,2.81,0,0,0,1,.44c-.11,1.58-.37,2-1.14,2h-.95c-.93,0-1.15-.32-1.15-1.36V9.93h-1.18c-.16,2.12-.6,3.63-3,4.45a3,3,0,0,0-.61-.88c2-.62,2.36-1.75,2.5-3.57h-1.49v-1h6.85v1h-2Zm-4.95-8.19h2.85V3.15l1.38.09c0,.09-.09.17-.27.19V4.58h3V6.93h-1v.78h-5.07V6.94h-.91Zm5.86,2.14V5.56h-4.85V6.72Z"/><path class="cls-1" d="M185.35,3.63l.73.39a.22.22,0,0,1-.11.15c-.27.94-.7,2.19-1.09,3.16A3.73,3.73,0,0,1,186,9.81c0,1.85-1.18,1.8-2,1.76a2.63,2.63,0,0,0-.25-.94h.65c.35,0,.61-.16.61-.93a3.46,3.46,0,0,0-1.1-2.25c.31-.84.62-1.93.84-2.76h-1.31v9.69h-1V3.67h2.77ZM191,12.77c0,.34,0,.37.25.37h.65c.23,0,.28-.18.3-1.43a2.81,2.81,0,0,0,1,.44c-.11,1.58-.37,2-1.14,2h-1c-.93,0-1.15-.32-1.15-1.36V9.93h-1.19c-.15,2.12-.6,3.63-3,4.45a3.24,3.24,0,0,0-.61-.88c2-.62,2.36-1.75,2.49-3.57h-1.48v-1H193v1h-2Zm-4.95-8.19h2.85V3.15l1.38.09c0,.09-.1.17-.27.19V4.58h3V6.93H192v.78H187V6.94h-.91Zm5.86,2.14V5.56h-4.86V6.72Z"/><path class="cls-1" d="M204.52,9.94l1,.76a.37.37,0,0,1-.31.06,21.19,21.19,0,0,1-2.33,1.35,8,8,0,0,0,3.21,1.29,3.85,3.85,0,0,0-.72,1,7.44,7.44,0,0,1-5.53-4.48h-1.61v2.94l2.9-.43,0,.93c-1.84.34-3.78.66-5,.87a.25.25,0,0,1-.18.19l-.45-1.19,1.55-.21V9.94H195v-1h2.1V3.61h7.59v.95h-6.44v.85h6.08v.9h-6.08v.85h6.08v.9h-6.08v.86h7.64v1Zm-3.51,0a5.88,5.88,0,0,0,1.13,1.54,18,18,0,0,0,2.32-1.54Z"/><path class="cls-1" d="M217.44,4.25h4.82v1H211.61v-1h4.66V3.14l1.44.09c0,.1-.08.16-.27.19ZM221.78,9v4.07c0,1.15-.54,1.26-2.56,1.26a3.59,3.59,0,0,0-.36-1.06H215.6v.6h-1V10.67h4.63v2.64H220c.58,0,.68,0,.68-.22V10h-7.38v4.4h-1.11V9Zm-8.14-3.22h6.57V8.38h-6.57Zm5.43,1.77v-1h-4.34v1Zm-.85,4.93v-1H215.6v1Z"/><path class="cls-1" d="M235.11,7.2H230.9a13.2,13.2,0,0,0,4.64,4.9,5.16,5.16,0,0,0-.86,1,14.42,14.42,0,0,1-4.26-4.67v6h-1.21V8.5A13.15,13.15,0,0,1,225,13.14a6.82,6.82,0,0,0-.85-1,12.39,12.39,0,0,0,4.61-5h-4.16V6.07h4.66V3.15l1.5.1c0,.11-.08.17-.29.2V6.07h4.69Z"/><path class="cls-1" d="M241.21,8.77v1a4.55,4.55,0,0,0,.56-.68l.75.4a5.19,5.19,0,0,1-1.32,1.37l-.7-.55a2.94,2.94,0,0,0,.7-.53h-1V8.1h1.16v-3h2a4.56,4.56,0,0,0,.13-.53h-3v-.8a.42.42,0,0,1-.22,0c-.26.76-.56,1.54-.89,2.3l.31.09c0,.09-.11.16-.28.18v8.08H238.4V8.08a11,11,0,0,1-1,1.5,7.48,7.48,0,0,0-.5-1.17,15.55,15.55,0,0,0,2.49-5.2l1.28.42s0,0,0,0h7.56v.85h-3.44a5.27,5.27,0,0,1-.21.53h2.72V8.1h1.1V9.76h-.81a4,4,0,0,1,.54.65l-.75.43A7.51,7.51,0,0,0,246,9.4l.73-.38a6.87,6.87,0,0,1,.59.53V8.77h-2.67a3.73,3.73,0,0,1,.64.58l-.68.45a5.27,5.27,0,0,0-1.18-1l0,0Zm5.45,2.3.74.4c0,.07-.1.09-.16.12A4.82,4.82,0,0,1,245.49,13a15.73,15.73,0,0,0,3,.47,3.61,3.61,0,0,0-.61.94,14.18,14.18,0,0,1-3.65-.84,17.2,17.2,0,0,1-3.64.83,3.28,3.28,0,0,0-.56-.83,19,19,0,0,0,3.06-.55,7,7,0,0,1-1.08-.83c-.39.2-.82.41-1.3.6a3.11,3.11,0,0,0-.65-.7,8,8,0,0,0,2.86-1.54c-.3-.12-.39-.36-.39-.82V9l1.17.08c0,.09-.08.15-.25.17v.46c0,.24.07.26.43.26h1.31c.26,0,.33-.06.36-.48a2.51,2.51,0,0,0,.76.24c-.09.71-.33.89-1,.89h-1.05a.26.26,0,0,1-.22.07,4,4,0,0,1-.42.39h2.84Zm-.48-5.41h-3.77v.46h3.77Zm0,1.44V6.63h-3.77V7.1Zm-3.77.53V8.1h3.77V7.63Zm.44,4.16a5.62,5.62,0,0,0,1.43.84,5.43,5.43,0,0,0,1.45-.84Z"/><path class="cls-1" d="M250.64,8.77a4.57,4.57,0,0,0-.69-.93,12.27,12.27,0,0,0,5-4.73l1.6.08a.32.32,0,0,1-.28.22,12.16,12.16,0,0,0,5.07,4.25,6,6,0,0,0-.74,1.05,14.33,14.33,0,0,1-5-4.4A13.56,13.56,0,0,1,250.64,8.77Zm2.24-1.23,1.45.09c0,.11-.1.17-.29.2V9.15a5.44,5.44,0,0,1-2.66,5.24,4.36,4.36,0,0,0-.94-.81,4.57,4.57,0,0,0,2.44-4.45Zm4.25-.06,1.47.1c0,.1-.1.17-.29.19v6.61h-1.18Z"/><rect class="cls-2" width="284.77" height="18.05"/></g></g></svg>