<svg xmlns="http://www.w3.org/2000/svg" viewBox="0 0 284.77 18.05"><defs><style>.cls-1{fill:#231815;}.cls-2{fill:none;}</style></defs><title>name_5</title><g id="レイヤー_2" data-name="レイヤー 2"><g id="レイヤー_1-2" data-name="レイヤー 1"><path class="cls-1" d="M27.06,12.26a10.51,10.51,0,0,0,6.5-4.69,7.69,7.69,0,0,0,.87.85c-1.58,2.63-4.32,4.32-7.89,5.24a.33.33,0,0,1-.21.26l-.69-1.12.17-.26V3.89L27.42,4c0,.13-.12.24-.36.28Z"/><path class="cls-1" d="M37.54,6.93A18.61,18.61,0,0,1,40.69,8l-.51,1.05A18.27,18.27,0,0,0,37,7.93Zm.52,5.74c3.76-1.23,6.47-3.25,8.08-6.82a10.21,10.21,0,0,0,1,.77,13.26,13.26,0,0,1-8,7,.28.28,0,0,1-.16.31ZM38.93,4a21.36,21.36,0,0,1,3.14,1.17l-.56,1A17.68,17.68,0,0,0,38.4,4.93Zm5.53-.4a10.11,10.11,0,0,1,1.48,1.72l-.61.44A10.45,10.45,0,0,0,43.89,4Zm1.75-.69a9.86,9.86,0,0,1,1.48,1.69L47.08,5a10.7,10.7,0,0,0-1.42-1.69Z"/><path class="cls-1" d="M49.86,8h10V9.17H50.34a.5.5,0,0,1-.38.22Z"/><path class="cls-1" d="M72.87,7.74H68.61c-.22,2.93-1,4.82-3.62,6.33a8.14,8.14,0,0,0-1-.82c2.43-1.34,3.16-2.9,3.39-5.51H62.82V6.58h4.62c0-.91,0-1.95,0-3.13l1.59.1c0,.14-.12.23-.33.25,0,1,0,1.94,0,2.78h4.18Z"/><path class="cls-1" d="M85.12,5.89c0,.08-.14.15-.21.2-1.31,3.9-3.23,6.34-6.51,8a4.45,4.45,0,0,0-.88-.92,10.63,10.63,0,0,0,5.85-6.64H79.49a12.36,12.36,0,0,1-2.62,2.86,5.87,5.87,0,0,0-1-.77,12.09,12.09,0,0,0,3.8-5.14l1.53.38c0,.12-.2.18-.36.18-.22.48-.47.94-.71,1.37H84l.18-.07Z"/><path class="cls-1" d="M90.31,10.18V4.33l1.54.08c0,.11-.12.21-.33.23v5.54Zm6.91-6.35c0,.12-.11.2-.31.22V7.83a6.08,6.08,0,0,1-4.26,6.23,6.32,6.32,0,0,0-.9-.89C95,12,95.67,9.93,95.67,7.83V3.74Z"/><path class="cls-1" d="M111.46,11.59v1.16h-9.94V11.59Zm-1.18-6.41V6.34h-7.51V5.18Z"/><path class="cls-1" d="M116.34,6.69a15,15,0,0,1,.88,2.57l-.94.26A11.93,11.93,0,0,0,115.43,7Zm7.06.21a.28.28,0,0,1-.27.13c-1,3.51-2.77,5.64-5.59,6.77a5,5,0,0,0-.65-.76c2.7-1,4.43-3,5.27-6.54Zm-4.17-.74a15.23,15.23,0,0,1,.56,2.68l-1,.2a16.12,16.12,0,0,0-.57-2.67Z"/><path class="cls-1" d="M136.72,5.89c0,.08-.14.15-.21.2-1.31,3.9-3.23,6.34-6.51,8a4.45,4.45,0,0,0-.88-.92A10.63,10.63,0,0,0,135,6.52h-3.88a12.36,12.36,0,0,1-2.62,2.86,5.87,5.87,0,0,0-1-.77,12.09,12.09,0,0,0,3.8-5.14l1.53.38c0,.12-.2.18-.36.18-.22.48-.47.94-.71,1.37h3.81l.18-.07Z"/><path class="cls-1" d="M145.46,12.65h5.27V13.8H139.78V12.65h4.46V3.32l1.51.09c0,.1-.1.18-.29.21V7h4.43V8.1h-4.43Z"/><path class="cls-1" d="M163.26,7.68l.61,0,0,.19a17.43,17.43,0,0,1-1,2.89,7.79,7.79,0,0,1-.93-.22,14.3,14.3,0,0,0,.59-1.81h-1.16v4.32c0,1.18-.57,1.3-2.48,1.3a5.05,5.05,0,0,0-.35-1.13l1,0c.62,0,.66,0,.66-.22V8.76h-1.94v.07h-2.16V10h2.17v1h-2.17v1.45l2.37-.3,0,.94c-2,.34-4.13.66-5.46.86a.27.27,0,0,1-.2.19l-.33-1.27,2.48-.29V11h-2.07V10H155V8.83h-2.1V3.74h5.37V7.68h3.16A14.23,14.23,0,0,0,158.91,6l.74-.73a13.39,13.39,0,0,1,1.21.67,8.46,8.46,0,0,0,1-1.2h-3.31v-1h4.16l.2-.06.86.51a.35.35,0,0,1-.22.14,10.86,10.86,0,0,1-1.91,2.17,10.61,10.61,0,0,1,1,.77l-.36.4Zm-9.41-3V5.84h1.23V4.67Zm0,2V7.89h1.23V6.7Zm3.43-.86V4.67H156V5.84Zm0,2.05V6.7H156V7.89Z"/><path class="cls-1" d="M168.86,3.63l.74.39a.3.3,0,0,1-.11.15c-.28.94-.71,2.19-1.09,3.16a3.76,3.76,0,0,1,1.13,2.48c0,1.85-1.18,1.8-2,1.76a2.64,2.64,0,0,0-.26-.94h.65c.35,0,.61-.16.61-.93a3.42,3.42,0,0,0-1.1-2.25c.31-.84.62-1.93.84-2.76h-1.31v9.69h-1V3.67h2.77Zm5.65,9.14c0,.34,0,.37.25.37h.65c.23,0,.28-.18.3-1.43a2.81,2.81,0,0,0,1,.44c-.11,1.58-.37,2-1.14,2h-.95c-.93,0-1.15-.32-1.15-1.36V9.93h-1.18c-.16,2.12-.6,3.63-3,4.45a3,3,0,0,0-.61-.88c2-.62,2.36-1.75,2.5-3.57h-1.49v-1h6.85v1h-2Zm-4.95-8.19h2.85V3.15l1.38.09c0,.09-.09.17-.27.19V4.58h3V6.93h-1v.78h-5.07V6.94h-.91Zm5.86,2.14V5.56h-4.85V6.72Z"/><path class="cls-1" d="M185.35,3.63l.73.39a.22.22,0,0,1-.11.15c-.27.94-.7,2.19-1.09,3.16A3.73,3.73,0,0,1,186,9.81c0,1.85-1.18,1.8-2,1.76a2.63,2.63,0,0,0-.25-.94h.65c.35,0,.61-.16.61-.93a3.46,3.46,0,0,0-1.1-2.25c.31-.84.62-1.93.84-2.76h-1.31v9.69h-1V3.67h2.77ZM191,12.77c0,.34,0,.37.25.37h.65c.23,0,.28-.18.3-1.43a2.81,2.81,0,0,0,1,.44c-.11,1.58-.37,2-1.14,2h-1c-.93,0-1.15-.32-1.15-1.36V9.93h-1.19c-.15,2.12-.6,3.63-3,4.45a3.24,3.24,0,0,0-.61-.88c2-.62,2.36-1.75,2.49-3.57h-1.48v-1H193v1h-2Zm-4.95-8.19h2.85V3.15l1.38.09c0,.09-.1.17-.27.19V4.58h3V6.93H192v.78H187V6.94h-.91Zm5.86,2.14V5.56h-4.86V6.72Z"/><path class="cls-1" d="M204.52,9.94l1,.76a.37.37,0,0,1-.31.06,21.19,21.19,0,0,1-2.33,1.35,8,8,0,0,0,3.21,1.29,3.85,3.85,0,0,0-.72,1,7.44,7.44,0,0,1-5.53-4.48h-1.61v2.94l2.9-.43,0,.93c-1.84.34-3.78.66-5,.87a.25.25,0,0,1-.18.19l-.45-1.19,1.55-.21V9.94H195v-1h2.1V3.61h7.59v.95h-6.44v.85h6.08v.9h-6.08v.85h6.08v.9h-6.08v.86h7.64v1Zm-3.51,0a5.88,5.88,0,0,0,1.13,1.54,18,18,0,0,0,2.32-1.54Z"/><path class="cls-1" d="M214.2,7.54c.35.45,1.34,1.91,1.56,2.26l-.64.85a19.5,19.5,0,0,0-.92-1.73v5.46h-1.06V9.15a11.36,11.36,0,0,1-1.39,3,5,5,0,0,0-.55-1,13,13,0,0,0,1.85-4.39h-1.58v-1h1.67V3.15l1.34.08c0,.09-.09.16-.28.19V5.71h1.41v1H214.2Zm6.88,2.71.71.32c0,.06-.08.09-.13.13a5.19,5.19,0,0,1-1.72,2,10.44,10.44,0,0,0,2.75.71,4.69,4.69,0,0,0-.66.94,9.23,9.23,0,0,1-3.09-1,12.24,12.24,0,0,1-3.42,1.09,3.69,3.69,0,0,0-.52-.93,11.37,11.37,0,0,0,3-.79,5.64,5.64,0,0,1-1-1,9.32,9.32,0,0,1-1.27.84,2.91,2.91,0,0,0-.7-.74,7.76,7.76,0,0,0,2.63-2.1H216.3V5.25h1.94l.15-.67h-2.88V3.66h7.05v.92h-3.08c-.08.23-.13.47-.21.67h2.52V9.68h-2.66a.3.3,0,0,1-.23.07,6.59,6.59,0,0,1-.42.54h2.42ZM217.34,6v.55h3.36V6Zm0,1.2v.57h3.36V7.17Zm0,1.21V9h3.36V8.38Zm.43,2.73a4.7,4.7,0,0,0,1.2,1.1,4.37,4.37,0,0,0,1.26-1.1Z"/><path class="cls-1" d="M235.14,6.78h-4a11,11,0,0,0,4.5,4.71,5.22,5.22,0,0,0-.86,1,12,12,0,0,1-4.33-4.7v3.26h2.19v1.15h-2.19v2.17h-1.2V12.21H227V11.06h2.24V7.8a12.32,12.32,0,0,1-4.31,4.73,6.08,6.08,0,0,0-.81-.94,11.28,11.28,0,0,0,4.44-4.81h-4V5.62h4.69V3.15l1.49.1c0,.1-.1.17-.29.2V5.62h4.73Z"/><path class="cls-1" d="M248.28,7.34v.89H237.23V7.34h4.89V6.7h-3.61V5.89h3.61V5.27h-4.25V4.4h2.36a6.22,6.22,0,0,0-.6-.91l1-.34a4.61,4.61,0,0,1,.81,1.2l-.12.05h2.79l-.07,0a9.81,9.81,0,0,0,.7-1.25l1.34.4c0,.08-.13.12-.29.12-.14.21-.35.5-.55.75h2.37v.87h-4.31v.62H247V6.7h-3.67v.64Zm-3.58,3.59a6.54,6.54,0,0,0,.52,1.06,4.7,4.7,0,0,0,1.11-1l1.13.43a.3.3,0,0,1-.29.11,6.84,6.84,0,0,1-1.38,1.21,1.84,1.84,0,0,0,1.25.6c.32,0,.43-.26.49-1.05a2.26,2.26,0,0,0,.83.46c-.17,1.31-.5,1.63-1.33,1.63a2.78,2.78,0,0,1-2.21-1.08,13.76,13.76,0,0,1-2.65,1,8,8,0,0,0-.53-.86,12.88,12.88,0,0,0,2.63-.94,6.59,6.59,0,0,1-.71-1.61h-2.65v.68l2-.13v.78l-2,.17v.89c0,.95-.32,1.07-2.43,1.07a5,5,0,0,0-.34-.9c.38,0,.79,0,1.08,0,.53,0,.59,0,.59-.23v-.78l-2,.15a.27.27,0,0,1-.19.18l-.34-1,2.54-.14v-.74h-2.5v-.87h2.5V9.4c-.7.07-1.41.12-2.08.16a2.32,2.32,0,0,0-.25-.71,29.73,29.73,0,0,0,4.61-.6l.75.71c-.05,0-.07,0-.24,0a16.74,16.74,0,0,1-1.69.27v.79h2.42a10.13,10.13,0,0,1-.22-1.69l1.42,0c0,.12-.09.19-.28.21a7.57,7.57,0,0,0,.19,1.44h2.35A7.55,7.55,0,0,0,245,9l.65-.65a7.42,7.42,0,0,1,1.88,1.07l-.6.64h1.24v.87Z"/><path class="cls-1" d="M252.8,12c0,.09-.13.13-.28.12a8,8,0,0,1-1.68,2.25,8,8,0,0,0-.87-.66,6,6,0,0,0,1.54-2.12Zm-2.11-8.4h4.81v7.74h-4.81Zm1.08,1V5.91h2.6V4.64Zm0,2.2V8.13h2.6V6.84Zm0,2.2v1.31h2.6V9Zm2.77,2.58a9.71,9.71,0,0,1,1.38,2.08s-.09.06-1,.5A9.73,9.73,0,0,0,253.56,12Zm2.13-7L258,4.7c0,.1-.09.17-.27.19v6.49h-1.1Zm2.91-1.23,1.42.08c0,.1-.09.18-.29.2v9.27c0,1.31-.54,1.48-2.89,1.45a4.25,4.25,0,0,0-.41-1.16c.5,0,1,0,1.33,0,.76,0,.84,0,.84-.31Z"/><rect class="cls-2" width="284.77" height="18.05"/></g></g></svg>