<svg xmlns="http://www.w3.org/2000/svg" viewBox="0 0 284.77 18.05"><defs><style>.cls-1{fill:#231815;}.cls-2{fill:none;}</style></defs><title>name_8</title><g id="レイヤー_2" data-name="レイヤー 2"><g id="レイヤー_1-2" data-name="レイヤー 1"><path class="cls-1" d="M27.06,12.26a10.51,10.51,0,0,0,6.5-4.69,7.69,7.69,0,0,0,.87.85c-1.58,2.63-4.32,4.32-7.89,5.24a.33.33,0,0,1-.21.26l-.69-1.12.17-.26V3.89L27.42,4c0,.13-.12.24-.36.28Z"/><path class="cls-1" d="M37.54,6.93A18.61,18.61,0,0,1,40.69,8l-.51,1.05A18.27,18.27,0,0,0,37,7.93Zm.52,5.73c3.76-1.22,6.47-3.25,8.08-6.81a10.21,10.21,0,0,0,1,.77,13.26,13.26,0,0,1-8,7,.28.28,0,0,1-.16.31ZM38.93,4a21.36,21.36,0,0,1,3.14,1.17l-.56,1A17.68,17.68,0,0,0,38.4,4.93Zm5.53-.4a10.11,10.11,0,0,1,1.48,1.72l-.61.44A10.45,10.45,0,0,0,43.89,4Zm1.75-.69a9.86,9.86,0,0,1,1.48,1.69L47.08,5a10.7,10.7,0,0,0-1.42-1.69Z"/><path class="cls-1" d="M49.86,8h10V9.17H50.34a.5.5,0,0,1-.38.22Z"/><path class="cls-1" d="M72.87,7.74H68.61c-.22,2.93-1,4.82-3.62,6.33a8.14,8.14,0,0,0-1-.82c2.43-1.34,3.16-2.9,3.39-5.51H62.82V6.58h4.62c0-.91,0-1.95,0-3.13l1.59.1c0,.14-.12.23-.33.25,0,1,0,1.94,0,2.78h4.18Z"/><path class="cls-1" d="M85.12,5.89c0,.08-.14.15-.21.2-1.31,3.9-3.23,6.34-6.51,8a4.45,4.45,0,0,0-.88-.92,10.63,10.63,0,0,0,5.85-6.64H79.49a12.57,12.57,0,0,1-2.62,2.86,5.87,5.87,0,0,0-1-.77,12.09,12.09,0,0,0,3.8-5.14l1.53.38c0,.12-.2.18-.36.18-.22.48-.47.94-.71,1.37H84l.18-.08Z"/><path class="cls-1" d="M90.31,10.18V4.33l1.54.08c0,.11-.12.21-.33.23v5.54Zm6.91-6.35c0,.12-.11.2-.31.22V7.83a6.08,6.08,0,0,1-4.26,6.23,6.32,6.32,0,0,0-.9-.89C95,12,95.67,9.93,95.67,7.83V3.74Z"/><path class="cls-1" d="M111.46,11.59v1.16h-9.94V11.59Zm-1.18-6.41V6.34h-7.51V5.18Z"/><path class="cls-1" d="M116.34,6.69a15,15,0,0,1,.88,2.57l-.94.26A11.93,11.93,0,0,0,115.43,7Zm7.06.21a.28.28,0,0,1-.27.13c-1,3.51-2.77,5.63-5.59,6.77a5,5,0,0,0-.65-.76c2.7-1,4.43-3,5.27-6.54Zm-4.17-.74a15.23,15.23,0,0,1,.56,2.68l-1,.2a16.12,16.12,0,0,0-.57-2.67Z"/><path class="cls-1" d="M136.72,5.89c0,.08-.14.15-.21.2-1.31,3.9-3.23,6.34-6.51,8a4.45,4.45,0,0,0-.88-.92A10.63,10.63,0,0,0,135,6.52h-3.88a12.57,12.57,0,0,1-2.62,2.86,5.87,5.87,0,0,0-1-.77,12.09,12.09,0,0,0,3.8-5.14l1.53.38c0,.12-.2.18-.36.18-.22.48-.47.94-.71,1.37h3.81l.18-.08Z"/><path class="cls-1" d="M142.46,7.53c.34.43,1.24,1.76,1.43,2.08l-.61.88c-.16-.38-.5-1-.82-1.6v5.49h-1.05V9.21a11.58,11.58,0,0,1-1.33,2.94,6.06,6.06,0,0,0-.55-1,13.39,13.39,0,0,0,1.79-4.39h-1.53v-1h1.62V3.15l1.33.08c0,.09-.1.16-.28.19V5.71h1.34v.5h1.58V5.14H144V4.22h1.35V3.15l1.33.09c0,.09-.1.15-.28.19v.79h1.68V3.15l1.35.09c0,.09-.09.15-.28.19v.79h1.45v.92h-1.45V6.21h1.74v1H147.8v.77h2.69v4.16h-6.31V7.93h2.57V7.16h-3.12v-.4h-1.17Zm4.3,5.34a.32.32,0,0,1-.22.08,9,9,0,0,1-2.41,1.47,4.88,4.88,0,0,0-.75-.76,8.05,8.05,0,0,0,2.37-1.42Zm-1.59-4.13v.88h1.58V8.74Zm0,1.65v.88h1.58v-.88Zm1.26-5.25V6.21h1.68V5.14Zm3,3.6H147.8v.88h1.64Zm0,2.53v-.88H147.8v.88Zm.69,3.15a18.39,18.39,0,0,0-2.24-1.52l.81-.61A17.49,17.49,0,0,1,151,13.72Z"/><path class="cls-1" d="M153.06,6.49a10.22,10.22,0,0,1,2.29,1.23l-.65.94a9.53,9.53,0,0,0-2.24-1.32Zm2.58,4.65v-.83A38,38,0,0,1,153.89,14a.29.29,0,0,1,0,.36l-1.16-.77a34.34,34.34,0,0,0,2-3.95l.89.69v-.21h1.17v-6l1,.23a29.12,29.12,0,0,0,4.33-1l.94.94c-.08,0-.12,0-.29,0a39.51,39.51,0,0,1-4.8,1V6.52h5.59V7.58H162v2.49h1.86v1.07Zm-1.87-7.91A9.29,9.29,0,0,1,156,4.52l-.66.94a8.82,8.82,0,0,0-2.21-1.39ZM159.14,12a.27.27,0,0,1-.3.11,12.15,12.15,0,0,1-2.56,2.28,9.17,9.17,0,0,0-.9-.75,8.94,8.94,0,0,0,2.44-2.14ZM158,7.58v2.49h2.9V7.58Zm4.91,6.85a14.41,14.41,0,0,0-2.39-2.34l.95-.58a15.67,15.67,0,0,1,2.46,2.26Z"/><path class="cls-1" d="M168.86,3.63l.74.39a.3.3,0,0,1-.11.15c-.28.94-.71,2.19-1.09,3.16a3.76,3.76,0,0,1,1.13,2.48c0,1.85-1.18,1.8-2,1.76a2.64,2.64,0,0,0-.26-.94h.65c.35,0,.61-.16.61-.93a3.42,3.42,0,0,0-1.1-2.25c.31-.84.62-1.93.84-2.76h-1.31v9.69h-1V3.67h2.77Zm5.65,9.14c0,.34,0,.37.25.37h.65c.23,0,.28-.18.3-1.43a2.81,2.81,0,0,0,1,.44c-.11,1.58-.37,2-1.14,2h-.95c-.93,0-1.15-.32-1.15-1.37V9.93h-1.18c-.16,2.12-.6,3.63-3,4.45a3,3,0,0,0-.61-.88c2-.62,2.36-1.75,2.5-3.57h-1.49v-1h6.85v1h-2Zm-4.95-8.19h2.85V3.15l1.38.09c0,.09-.09.17-.27.19V4.58h3V6.93h-1v.78h-5.07V6.94h-.91Zm5.86,2.14V5.56h-4.85V6.72Z"/><path class="cls-1" d="M185.35,3.63l.73.39a.22.22,0,0,1-.11.15c-.27.94-.7,2.19-1.09,3.16A3.73,3.73,0,0,1,186,9.81c0,1.85-1.18,1.8-2,1.76a2.63,2.63,0,0,0-.25-.94h.65c.35,0,.61-.16.61-.93a3.46,3.46,0,0,0-1.1-2.25c.31-.84.62-1.93.84-2.76h-1.31v9.69h-1V3.67h2.77ZM191,12.77c0,.34,0,.37.25.37h.65c.23,0,.28-.18.3-1.43a2.81,2.81,0,0,0,1,.44c-.11,1.58-.37,2-1.14,2h-1c-.93,0-1.15-.32-1.15-1.37V9.93h-1.19c-.15,2.12-.6,3.63-3,4.45a3.24,3.24,0,0,0-.61-.88c2-.62,2.36-1.75,2.49-3.57h-1.48v-1H193v1h-2Zm-4.95-8.19h2.85V3.15l1.38.09c0,.09-.1.17-.27.19V4.58h3V6.93H192v.78H187V6.94h-.91Zm5.86,2.14V5.56h-4.86V6.72Z"/><path class="cls-1" d="M204.52,9.94l1,.76a.37.37,0,0,1-.31.06,21.19,21.19,0,0,1-2.33,1.35,8.11,8.11,0,0,0,3.21,1.29,3.85,3.85,0,0,0-.72,1,7.44,7.44,0,0,1-5.53-4.48h-1.61v2.94l2.9-.43,0,.93c-1.84.34-3.78.66-5,.87a.25.25,0,0,1-.18.19l-.45-1.19,1.55-.21V9.94H195v-1h2.1V3.61h7.59v.95h-6.44v.85h6.08v.9h-6.08v.85h6.08v.9h-6.08v.86h7.64v1Zm-3.51,0a5.88,5.88,0,0,0,1.13,1.54,18,18,0,0,0,2.32-1.54Z"/><path class="cls-1" d="M214.6,7.72c.41.41,1.59,1.71,1.87,2l-.72,1a19.1,19.1,0,0,0-1.15-1.65v5.31h-1.11V9a11.82,11.82,0,0,1-1.74,3.28,5.89,5.89,0,0,0-.58-1.08,12.47,12.47,0,0,0,2.18-4.36h-1.87V5.71h2V3.15l1.38.08c0,.1-.09.16-.27.2V5.71h1.79V6.79H214.6Zm8.05,2.57c0,.1-.14.14-.3.14a11.8,11.8,0,0,1-5.5,4,4.27,4.27,0,0,0-.76-.91,10.11,10.11,0,0,0,5.2-3.71Zm-.88-6.56a.29.29,0,0,1-.29.12A14.22,14.22,0,0,1,217.4,7a4.18,4.18,0,0,0-.81-.82,11.45,11.45,0,0,0,3.83-2.95Zm.42,3.2a.33.33,0,0,1-.29.13,12.94,12.94,0,0,1-4.4,3.42,4.71,4.71,0,0,0-.81-.87,10.47,10.47,0,0,0,4.15-3.18Z"/><path class="cls-1" d="M234.08,10.33h-2.75v2.9c0,1.1-.51,1.16-2.42,1.16a4.29,4.29,0,0,0-.34-1c.45,0,.89,0,1.17,0,.44,0,.49,0,.49-.2V10.33h-2.75V6h2.29c.1-.36.18-.77.26-1.15h-3.65V7.32c0,2-.17,5-1.26,7a4.63,4.63,0,0,0-1-.57c1-1.88,1.12-4.57,1.12-6.49V3.77h10v1H231.3c-.11.36-.24.77-.39,1.15h3.17Zm-4.63.91a.3.3,0,0,1-.29.11,9.41,9.41,0,0,1-2.34,2.49,7.11,7.11,0,0,0-.86-.64,7.37,7.37,0,0,0,2.23-2.38Zm-.9-4.4v.88H233V6.84Zm0,1.7v.91H233V8.54Zm6,5.25a13.15,13.15,0,0,0-2.33-2.48l.88-.54a13,13,0,0,1,2.37,2.41Z"/><path class="cls-1" d="M248.23,8.34h-6.36c-.05.4-.1.81-.17,1.21h4.2l.25,0,.67.13a1.3,1.3,0,0,1-.07.33c-.23,2.53-.47,3.57-.89,4s-.8.42-1.7.42l-1.26,0a2.47,2.47,0,0,0-.38-1.07c.77.07,1.55.08,1.85.08a.77.77,0,0,0,.55-.13c.26-.23.47-1,.63-2.66h-4.1a5.6,5.6,0,0,1-3.7,3.85,3.42,3.42,0,0,0-.71-.95c2.92-1,3.43-3,3.63-5.14h-3.39V7.28h4.87V5.79l1.4.09c0,.1-.1.16-.29.2v1.2h5ZM240,6.27v-1h-2.63v-1H240V3.15l1.41.09c0,.09-.09.17-.28.2v.79h3.1V3.15l1.41.09c0,.11-.08.17-.27.2v.79h2.69v1h-2.69v1h-1.14v-1h-3.1v1Z"/><path class="cls-1" d="M256.11,8.57c.23-.53.45-1.07.63-1.55l1.39.25c0,.11-.12.15-.33.15l-.46,1.15h3.94v1h-1A6.39,6.39,0,0,1,259,12.26a17.58,17.58,0,0,1,2.08,1.35l-.89.81a16.14,16.14,0,0,0-2-1.38,9,9,0,0,1-3.66,1.38,2.74,2.74,0,0,0-.54-1,8.19,8.19,0,0,0,3.16-1c-.41-.23-.82-.45-1.23-.65l-.18.37-1-.42c.3-.59.66-1.34,1-2.15h-1.35l.13.21-.64.85a19.5,19.5,0,0,0-.92-1.73v5.46h-1.06V9.15a11.36,11.36,0,0,1-1.39,3,4.58,4.58,0,0,0-.55-1,13,13,0,0,0,1.85-4.39h-1.58v-1h1.67V3.15l1.34.08c0,.09-.09.16-.28.19V5.71h1.41v1H252.9v.78c.24.3.78,1.08,1.16,1.66V8.57Zm-1.06-4.91a11.21,11.21,0,0,1,1,2.65l-1,.36a11.29,11.29,0,0,0-1-2.72Zm1.84,5.93c-.2.45-.39.89-.58,1.3.52.25,1.1.53,1.67.83a5,5,0,0,0,1.11-2.13Zm.81-6.29a13.57,13.57,0,0,1,.51,2.89l-1.11.17a15.08,15.08,0,0,0-.45-2.93Zm1,3.8a20.58,20.58,0,0,0,1.35-3.61l1.34.49a.3.3,0,0,1-.32.13,23.75,23.75,0,0,1-1.45,3.37Z"/><rect class="cls-2" width="284.77" height="18.05"/></g></g></svg>