<svg xmlns="http://www.w3.org/2000/svg" viewBox="0 0 387.29 75.93"><defs><style>.cls-1,.cls-2{fill:#936a44;}.cls-2{font-size:19.31px;font-family:HiraKakuPro-W3-83pv-RKSJ-H, Hiragino Kaku Gothic Pro;letter-spacing:0.06em;}.cls-3{letter-spacing:0.01em;}.cls-4{letter-spacing:-0.11em;}.cls-5{letter-spacing:-0.07em;}.cls-6{letter-spacing:-0.07em;}.cls-7{letter-spacing:-0.08em;}.cls-8{letter-spacing:-0.02em;}</style></defs><title>logo</title><g id="レイヤー_2" data-name="レイヤー 2"><g id="レイヤー_1-2" data-name="レイヤー 1"><path class="cls-1" d="M117.8,58.18a3.7,3.7,0,0,1-.22,1.14,3.84,3.84,0,0,1-.67,1.26,4.51,4.51,0,0,1-1.1,1,2.6,2.6,0,0,1-1.48.43,6.21,6.21,0,0,1-3.55-.81,4.76,4.76,0,0,1-1.7-2.62c-.31-1-.63-2.07-.94-3.21A21.23,21.23,0,0,0,107,52.24a8.28,8.28,0,0,0-1.59-2.41,3.19,3.19,0,0,0-2.37-1h-1.18c-.71,0-1.12.14-1.23.43v8.56q0,2.56,3.63,2.57v1.18H93.15V60.43q3.46,0,3.47-2.57V39.2q0-2.52-3.75-2.52V35.46H97.8l2.21,0,1.76-.06c.56,0,1.17-.05,1.81-.06s1.43,0,2.35,0a10.1,10.1,0,0,1,3.19.49,8.49,8.49,0,0,1,2.59,1.36,6.69,6.69,0,0,1,1.71,2.05,5.4,5.4,0,0,1,.63,2.57,5.4,5.4,0,0,1-2,4.3,9.09,9.09,0,0,1-2.19,1.34,13.72,13.72,0,0,1-2.8.87v.11a10.36,10.36,0,0,1,3.14,2.27,7.67,7.67,0,0,1,1.67,2.63c.16.52.35,1.15.56,1.89a17.68,17.68,0,0,0,.73,2.09,6.73,6.73,0,0,0,1,1.68,1.67,1.67,0,0,0,1.34.69c.64,0,1.1-.6,1.38-1.78ZM103.64,47.33a15.53,15.53,0,0,0,2.29-.16,4.85,4.85,0,0,0,2-.71,3.93,3.93,0,0,0,1.4-1.58,6,6,0,0,0,.53-2.8,5.12,5.12,0,0,0-.53-2.48A4.19,4.19,0,0,0,107.92,38a5.68,5.68,0,0,0-1.87-.81,8.86,8.86,0,0,0-2-.23h-1.9c-1,0-1.5.73-1.5,2.2v7.54c.11.39.42.59,1,.59Z"/><path class="cls-1" d="M119.42,61.61V60.43q3.63,0,3.63-2.57V40q0-3.32-3.91-3.32V35.46h20.75l.32,7.37L139,43a9.53,9.53,0,0,0-1.06-3.31,4.77,4.77,0,0,0-1.72-1.76,5.51,5.51,0,0,0-2.3-.67c-.87-.06-1.82-.1-2.84-.1H130c-2,0-3,.59-3,1.78V46c0,.79.32,1.18,1,1.18h1.34a14.85,14.85,0,0,0,1.83-.1,3.35,3.35,0,0,0,1.5-.51,3.05,3.05,0,0,0,1.07-1.26,7.2,7.2,0,0,0,.57-2.31h1.46V53.21h-1.46a9.67,9.67,0,0,0-.47-2.31,2.83,2.83,0,0,0-.91-1.3,3.15,3.15,0,0,0-1.46-.59,12.92,12.92,0,0,0-2.13-.14h-.47c-1.21,0-1.82.43-1.82,1.3V57.7c0,1.5,1,2.25,3.16,2.25h1.22a17.24,17.24,0,0,0,4-.37,5.88,5.88,0,0,0,2.47-1.19,5.8,5.8,0,0,0,1.52-2c.38-.81.77-1.77,1.16-2.88l1.07.32-1.07,7.81Z"/><path class="cls-1" d="M166.79,62,164,60a10.54,10.54,0,0,1-3.21,1.64,12.26,12.26,0,0,1-3.85.61A11.76,11.76,0,0,1,148,58.36a12.9,12.9,0,0,1-2.55-4.21,14.58,14.58,0,0,1-.91-5.16,15.24,15.24,0,0,1,.93-5.27,14.52,14.52,0,0,1,2.62-4.52,13,13,0,0,1,4.05-3.15,11.24,11.24,0,0,1,5.15-1.18,9,9,0,0,1,3.25.59,26.1,26.1,0,0,1,3.06,1.38,5.34,5.34,0,0,1,2.84-1.66,24.42,24.42,0,0,1,1.34,9h-1.34a11.63,11.63,0,0,0-3.08-5.62,8.48,8.48,0,0,0-9.66-1.14A8.07,8.07,0,0,0,151,40.09a12.09,12.09,0,0,0-1.5,3.85,21.81,21.81,0,0,0-.45,4.45,20.26,20.26,0,0,0,.53,4.7A11.94,11.94,0,0,0,151.25,57,8.69,8.69,0,0,0,154,59.6a7.3,7.3,0,0,0,3.83,1,9,9,0,0,0,2.43-.31,5.81,5.81,0,0,0,2-1,4.78,4.78,0,0,0,1.36-1.71,6,6,0,0,0,.49-2.55q0-4.1-4-4.1V49.74h11.28v1.18q-3.51,0-3.51,3V62Z"/><path class="cls-1" d="M173.38,61.61V60.43q3.75,0,3.75-2.73V40.12q0-3.48-3.91-3.48V35.46h11.44v1.18q-3.63,0-3.63,3.48V57.7q0,2.73,3.79,2.73v1.18Z"/><path class="cls-1" d="M210.85,62l-17.43-22.2V55.73q0,4.7,4.06,4.7v1.18H188V60.43q3.31,0,3.32-4.71V38.3c0-1.11-1.3-1.66-3.91-1.66V35.46h7.21l15.43,19.68V41q0-4.35-4-4.35V35.46h9.47v1.18q-3.63,0-3.63,4.35V61.77Z"/><path class="cls-1" d="M231.4,61.61V60.43l1.17-.16a9.9,9.9,0,0,0,1.1-.2,4,4,0,0,0,.83-.29c.22-.12.34-.26.34-.42a2.13,2.13,0,0,1-.06-.45,2.42,2.42,0,0,0-.22-.73l-1.78-4.85c-.29-.69-1.09-1-2.4-1H224.5c-1,0-1.6.34-1.81,1l-1.34,4.08a2.53,2.53,0,0,0-.16,1c0,1.21,1.15,1.81,3.47,1.81v1.38h-8.88V60.23a3.22,3.22,0,0,0,2-.79,5.47,5.47,0,0,0,1.36-2l9.46-22.52,1.19.47,9.35,23.43a3.63,3.63,0,0,0,.86,1,1.89,1.89,0,0,0,.65.22c.39.09.92.23,1.6.42v1.18ZM228,40.43l-3.47,8.28a3.86,3.86,0,0,0-.43,1.34c0,.4.48.59,1.46.59h5c.79,0,1.18-.15,1.18-.47a7,7,0,0,0-.43-1.3Z"/><path class="cls-1" d="M278.34,54.07A9.68,9.68,0,0,1,277,57.65a8.92,8.92,0,0,1-2.37,2.52,10.23,10.23,0,0,1-3.15,1.52,13,13,0,0,1-3.65.51,12.37,12.37,0,0,1-5.07-1,11.47,11.47,0,0,1-3.88-2.79,12.26,12.26,0,0,1-2.49-4.2,15.33,15.33,0,0,1-.87-5.22,15.54,15.54,0,0,1,1-5.64,13.94,13.94,0,0,1,2.66-4.42,11.85,11.85,0,0,1,3.91-2.88,11.27,11.27,0,0,1,4.75-1,10,10,0,0,1,5.72,1.82,5.2,5.2,0,0,1,2.84-1.66,3,3,0,0,1,.36.89c.15.51.3,1.18.45,2s.27,1.75.37,2.8a31.92,31.92,0,0,1,.16,3.31h-1.34a10.46,10.46,0,0,0-3.15-5.7A7.88,7.88,0,0,0,268,36.56a7,7,0,0,0-3.71.93,7.63,7.63,0,0,0-2.52,2.44,10.81,10.81,0,0,0-1.44,3.46,16.72,16.72,0,0,0-.46,3.94,25.54,25.54,0,0,0,.5,5.19,12.78,12.78,0,0,0,1.55,4.14,7.59,7.59,0,0,0,6.83,3.77,10.64,10.64,0,0,0,2.7-.32A6.24,6.24,0,0,0,273.67,59a8.13,8.13,0,0,0,1.85-2.09,19.86,19.86,0,0,0,1.64-3.3Z"/><path class="cls-1" d="M281.78,61.61V60.43c2.31,0,3.47-.72,3.47-2.14V39.64q0-3-3.91-3V35.46h11.44v1.18q-3.63,0-3.63,3V58.29c0,1.11.86,1.66,2.57,1.66h1.81a17.22,17.22,0,0,0,3.16-.25A9,9,0,0,0,299,59c1.16-.64,2.2-2.51,3.12-5.64l1.07.15L302,61.61Z"/><path class="cls-1" d="M304.73,61.61V60.43q3.75,0,3.75-2.73V40.12q0-3.48-3.91-3.48V35.46H316v1.18q-3.63,0-3.63,3.48V57.7c0,1.82,1.27,2.73,3.79,2.73v1.18Z"/><path class="cls-1" d="M342.2,62l-17.43-22.2V55.73q0,4.7,4.06,4.7v1.18h-9.47V60.43q3.31,0,3.32-4.71V38.3c0-1.11-1.3-1.66-3.91-1.66V35.46H326l15.43,19.68V41c0-2.9-1.35-4.35-4-4.35V35.46h9.47v1.18q-3.63,0-3.63,4.35V61.77Z"/><path class="cls-1" d="M349.34,61.61V60.43q3.75,0,3.75-2.73V40.12q0-3.48-3.9-3.48V35.46h11.44v1.18q-3.63,0-3.63,3.48V57.7q0,2.73,3.78,2.73v1.18Z"/><path class="cls-1" d="M387.29,54.07A9.86,9.86,0,0,1,386,57.65a9.21,9.21,0,0,1-2.37,2.52,10.23,10.23,0,0,1-3.15,1.52,13,13,0,0,1-3.65.51,12.37,12.37,0,0,1-5.07-1,11.61,11.61,0,0,1-3.89-2.79,12.24,12.24,0,0,1-2.48-4.2,15.33,15.33,0,0,1-.87-5.22,15.54,15.54,0,0,1,1-5.64,13.76,13.76,0,0,1,2.66-4.42,11.92,11.92,0,0,1,3.9-2.88,11.32,11.32,0,0,1,4.76-1,10,10,0,0,1,5.72,1.82,5.17,5.17,0,0,1,2.84-1.66,3.49,3.49,0,0,1,.35.89,17.8,17.8,0,0,1,.46,2c.14.82.26,1.75.37,2.8s.16,2.16.16,3.31h-1.34a10.47,10.47,0,0,0-3.16-5.7A7.88,7.88,0,0,0,377,36.56a7,7,0,0,0-3.7.93,7.76,7.76,0,0,0-2.53,2.44,11,11,0,0,0-1.44,3.46,17.25,17.25,0,0,0-.45,3.94,25.56,25.56,0,0,0,.49,5.19,13,13,0,0,0,1.56,4.14,7.93,7.93,0,0,0,2.76,2.76,7.84,7.84,0,0,0,4.06,1,10.77,10.77,0,0,0,2.71-.32A6.24,6.24,0,0,0,382.62,59a8.32,8.32,0,0,0,1.85-2.09,20.66,20.66,0,0,0,1.64-3.3Z"/><polygon class="cls-1" points="38.33 29.57 33.2 31.59 38.33 33.59 40.34 41.12 42.35 33.59 47.48 31.59 42.35 29.57 40.34 22.05 38.33 29.57"/><polygon class="cls-1" points="14.85 19.31 10.91 20.85 14.85 22.4 16.4 28.17 17.94 22.4 21.88 20.85 17.94 19.31 16.4 13.53 14.85 19.31"/><polygon class="cls-1" points="66.07 19.31 70.01 20.85 66.07 22.4 64.52 28.17 62.98 22.4 59.04 20.85 62.98 19.31 64.52 13.53 66.07 19.31"/><circle class="cls-1" cx="40.5" cy="5.33" r="5.33"/><circle class="cls-1" cx="4.05" cy="31.48" r="4.05"/><circle class="cls-1" cx="76.96" cy="31.48" r="4.05"/><path class="cls-1" d="M79.13,75.93,79,75.87C70.13,72,55.74,69.73,40.46,69.73S10.79,72,2,75.87l-.06,0-.18,0a.62.62,0,0,1-.58-.42.6.6,0,0,1,.21-.67,38.19,38.19,0,0,1,10.43-5.46C6.4,64.73-4,52.44,3.71,31.36l.09-.24h.25a47.94,47.94,0,0,1,16.81,3.69C24.33,17,40.09,5.73,40.25,5.62l.21-.15.21.15c.16.11,15.92,11.37,19.39,29.19a47.94,47.94,0,0,1,16.81-3.69h.25l.09.24c7.69,21.08-2.69,33.37-8.07,38a38.19,38.19,0,0,1,10.43,5.46.6.6,0,0,1,.21.67.62.62,0,0,1-.58.42ZM53,65.65a79.24,79.24,0,0,1,13.06,2.72C80.45,56,74.37,38.74,73.52,36.54a40.2,40.2,0,0,0-12.87,2.77C61.25,48.05,58.69,56.91,53,65.65ZM7.4,36.54C6.55,38.74.48,56,14.83,68.37a79.24,79.24,0,0,1,13.06-2.72c-5.66-8.74-8.22-17.6-7.62-26.34A40.2,40.2,0,0,0,7.4,36.54ZM24,41.14c-.27,7.75,2.19,16.09,7.14,24.16,1.81-.16,3.66-.28,5.51-.35C36.57,59.72,35.16,47.81,24,41.14ZM44.3,65c1.86.07,3.71.19,5.52.35,5-8.07,7.41-16.41,7.14-24.16C45.76,47.81,44.35,59.72,44.3,65Zm-3.84-.08h1.06c-.34-13,4.69-22.52,15-28.32-1.6-8.93-7-17-16-23.93-9,7-14.42,15-16,23.93,10.27,5.8,15.3,15.33,15,28.32h1.06Z"/><text class="cls-2" transform="translate(92.87 29.66)">美容皮膚<tspan class="cls-3" x="81.85" y="0">科</tspan><tspan class="cls-4" x="101.35" y="0">ク</tspan><tspan class="cls-5" x="118.53" y="0">リ</tspan><tspan class="cls-6" x="136.43" y="0">ニ</tspan><tspan class="cls-7" x="154.35" y="0">ッ</tspan><tspan class="cls-8" x="172.09" y="0">ク</tspan></text></g></g></svg>