<svg xmlns="http://www.w3.org/2000/svg" viewBox="0 0 284.77 18.05"><defs><style>.cls-1{fill:#231815;}.cls-2{fill:none;}</style></defs><title>name_2</title><g id="レイヤー_2" data-name="レイヤー 2"><g id="レイヤー_1-2" data-name="レイヤー 1"><path class="cls-1" d="M27.06,12.26a10.51,10.51,0,0,0,6.5-4.69,7.69,7.69,0,0,0,.87.85c-1.58,2.63-4.32,4.32-7.89,5.24a.33.33,0,0,1-.21.26l-.69-1.12.17-.26V3.89L27.42,4c0,.13-.12.24-.36.28Z"/><path class="cls-1" d="M37.54,6.93A18.61,18.61,0,0,1,40.69,8l-.51,1.05A18.27,18.27,0,0,0,37,7.93Zm.52,5.73c3.76-1.22,6.47-3.25,8.08-6.81a10.21,10.21,0,0,0,1,.77,13.26,13.26,0,0,1-8,7,.28.28,0,0,1-.16.31ZM38.93,4a21.36,21.36,0,0,1,3.14,1.17l-.56,1A17.68,17.68,0,0,0,38.4,4.93Zm5.53-.4a10.11,10.11,0,0,1,1.48,1.72l-.61.44A10.45,10.45,0,0,0,43.89,4Zm1.75-.69a9.86,9.86,0,0,1,1.48,1.69L47.08,5a10.7,10.7,0,0,0-1.42-1.69Z"/><path class="cls-1" d="M49.86,8h10V9.17H50.34a.5.5,0,0,1-.38.22Z"/><path class="cls-1" d="M72.87,7.74H68.61c-.22,2.93-1,4.82-3.62,6.33a8.14,8.14,0,0,0-1-.82c2.43-1.34,3.16-2.9,3.39-5.51H62.82V6.58h4.62c0-.91,0-1.95,0-3.13l1.59.1c0,.14-.12.23-.33.25,0,1,0,1.94,0,2.78h4.18Z"/><path class="cls-1" d="M85.12,5.89c0,.08-.14.15-.21.2-1.31,3.9-3.23,6.34-6.51,8a4.45,4.45,0,0,0-.88-.92,10.63,10.63,0,0,0,5.85-6.64H79.49a12.57,12.57,0,0,1-2.62,2.86,5.87,5.87,0,0,0-1-.77,12.09,12.09,0,0,0,3.8-5.14l1.53.38c0,.12-.2.18-.36.18-.22.48-.47.94-.71,1.37H84l.18-.08Z"/><path class="cls-1" d="M90.31,10.18V4.33l1.54.08c0,.11-.12.21-.33.23v5.54Zm6.91-6.35c0,.12-.11.2-.31.22V7.83a6.08,6.08,0,0,1-4.26,6.23,6.32,6.32,0,0,0-.9-.89C95,12,95.67,9.93,95.67,7.83V3.74Z"/><path class="cls-1" d="M111.46,11.59v1.16h-9.94V11.59Zm-1.18-6.41V6.34h-7.51V5.18Z"/><path class="cls-1" d="M116.34,6.69a15,15,0,0,1,.88,2.57l-.94.26A11.93,11.93,0,0,0,115.43,7Zm7.06.21a.28.28,0,0,1-.27.13c-1,3.51-2.77,5.63-5.59,6.77a5,5,0,0,0-.65-.76c2.7-1,4.43-3,5.27-6.54Zm-4.17-.74a15.23,15.23,0,0,1,.56,2.68l-1,.2a16.12,16.12,0,0,0-.57-2.67Z"/><path class="cls-1" d="M136.72,5.89c0,.08-.14.15-.21.2-1.31,3.9-3.23,6.34-6.51,8a4.45,4.45,0,0,0-.88-.92A10.63,10.63,0,0,0,135,6.52h-3.88a12.57,12.57,0,0,1-2.62,2.86,5.87,5.87,0,0,0-1-.77,12.09,12.09,0,0,0,3.8-5.14l1.53.38c0,.12-.2.18-.36.18-.22.48-.47.94-.71,1.37h3.81l.18-.08Z"/><path class="cls-1" d="M143.09,10.47c.39.26,1.59,1.18,1.88,1.43l-.65.82c-.25-.27-.78-.77-1.23-1.19v2.85H142V11.62a8.17,8.17,0,0,1-1.7,1.93,4.77,4.77,0,0,0-.75-.8,8.09,8.09,0,0,0,2.27-2.53h-2v-1H142V8.18h-2.32V7.23H141a6.8,6.8,0,0,0-.47-1.61l.79-.22H139.9v-1H142V3.15l1.38.09c0,.09-.08.17-.27.19v1h2.13v1h-1.38l1,.27c0,.09-.12.12-.28.13a15.31,15.31,0,0,1-.61,1.43h1.53v.95H143.3a.38.38,0,0,1-.21.08v1h2.2v1h-2.2ZM143,7.16a13.48,13.48,0,0,0,.6-1.76h-2.17a6.64,6.64,0,0,1,.53,1.75l-.27.08h1.53Zm7.88,0v1h-1.28v6.13h-1.11V8.26H147c0,1.38,0,4.27-1.92,6.16a2.69,2.69,0,0,0-.81-.8c1.48-1.48,1.64-3.52,1.64-5.19V4.28l.66.19a13.84,13.84,0,0,0,3.14-1.29l1.09.83a.34.34,0,0,1-.3.06A19.5,19.5,0,0,1,147,5.32V7.21Z"/><path class="cls-1" d="M154.07,9.69A11.44,11.44,0,0,1,153,10.88a7.08,7.08,0,0,0-.67-.91,11.65,11.65,0,0,0,2.74-4.18l1.29.45c0,.09-.15.13-.31.13a17.06,17.06,0,0,1-1,1.89l.37.11c0,.09-.1.16-.27.18v5.84h-1.08Zm.12-4.44V6.39h-1.1V4.21h4.44V3.14l1.44.09c0,.1-.08.16-.27.2v.78h4.59v2h-1.16v-1Zm9.41,2.31h-3.26c-.08.32-.2.69-.32,1.06h2.92v5.75h-1.12V14H158v.42h-1.07V8.62h2c.1-.33.18-.72.25-1.06h-2.92v-1h7.38Zm-1.78,3.22V9.61H158v1.17ZM158,13h3.87V11.72H158Z"/><path class="cls-1" d="M168.86,3.63l.74.39a.3.3,0,0,1-.11.15c-.28.94-.71,2.19-1.09,3.16a3.76,3.76,0,0,1,1.13,2.48c0,1.85-1.18,1.8-2,1.76a2.64,2.64,0,0,0-.26-.94h.65c.35,0,.61-.16.61-.93a3.42,3.42,0,0,0-1.1-2.25c.31-.84.62-1.93.84-2.76h-1.31v9.69h-1V3.67h2.77Zm5.65,9.14c0,.34,0,.37.25.37h.65c.23,0,.28-.18.3-1.43a2.81,2.81,0,0,0,1,.44c-.11,1.58-.37,2-1.14,2h-.95c-.93,0-1.15-.32-1.15-1.37V9.93h-1.18c-.16,2.12-.6,3.63-3,4.45a3,3,0,0,0-.61-.88c2-.62,2.36-1.75,2.5-3.57h-1.49v-1h6.85v1h-2Zm-4.95-8.19h2.85V3.15l1.38.09c0,.09-.09.17-.27.19V4.58h3V6.93h-1v.78h-5.07V6.94h-.91Zm5.86,2.14V5.56h-4.85V6.72Z"/><path class="cls-1" d="M185.35,3.63l.73.39a.22.22,0,0,1-.11.15c-.27.94-.7,2.19-1.09,3.16A3.73,3.73,0,0,1,186,9.81c0,1.85-1.18,1.8-2,1.76a2.63,2.63,0,0,0-.25-.94h.65c.35,0,.61-.16.61-.93a3.46,3.46,0,0,0-1.1-2.25c.31-.84.62-1.93.84-2.76h-1.31v9.69h-1V3.67h2.77ZM191,12.77c0,.34,0,.37.25.37h.65c.23,0,.28-.18.3-1.43a2.81,2.81,0,0,0,1,.44c-.11,1.58-.37,2-1.14,2h-1c-.93,0-1.15-.32-1.15-1.37V9.93h-1.19c-.15,2.12-.6,3.63-3,4.45a3.24,3.24,0,0,0-.61-.88c2-.62,2.36-1.75,2.49-3.57h-1.48v-1H193v1h-2Zm-4.95-8.19h2.85V3.15l1.38.09c0,.09-.1.17-.27.19V4.58h3V6.93H192v.78H187V6.94h-.91Zm5.86,2.14V5.56h-4.86V6.72Z"/><path class="cls-1" d="M204.52,9.94l1,.76a.37.37,0,0,1-.31.06,21.19,21.19,0,0,1-2.33,1.35,8.11,8.11,0,0,0,3.21,1.29,3.85,3.85,0,0,0-.72,1,7.44,7.44,0,0,1-5.53-4.48h-1.61v2.94l2.9-.43,0,.93c-1.84.34-3.78.66-5,.87a.25.25,0,0,1-.18.19l-.45-1.19,1.55-.21V9.94H195v-1h2.1V3.61h7.59v.95h-6.44v.85h6.08v.9h-6.08v.85h6.08v.9h-6.08v.86h7.64v1Zm-3.51,0a5.88,5.88,0,0,0,1.13,1.54,18,18,0,0,0,2.32-1.54Z"/><path class="cls-1" d="M219.61,7A11.92,11.92,0,0,0,220.15,9a14.78,14.78,0,0,0,1.45-1.33l.94.84a.37.37,0,0,1-.31.06c-.43.36-1.13.87-1.72,1.27a5.41,5.41,0,0,0,2.09,2.43,3.77,3.77,0,0,0-.81,1c-1.64-1.13-2.53-3.35-3-5.94-.35.28-.74.54-1.15.81a5.18,5.18,0,0,1,2.06,4c0,1.54-.88,2.34-2,2.34l-1,0a2.43,2.43,0,0,0-.28-1,8.16,8.16,0,0,0,1,.06c.9,0,1.16-.75,1.16-1.43a3.69,3.69,0,0,0-.08-.72,16.83,16.83,0,0,1-3.91,2.5,4.09,4.09,0,0,0-.64-.86,13.22,13.22,0,0,0,4.21-2.58,4.86,4.86,0,0,0-.36-.61,16.69,16.69,0,0,1-2.94,1.8,4.61,4.61,0,0,0-.47-.58c-1,.33-1.87.64-2.51.84a.22.22,0,0,1-.17.21l-.46-1.25,1.37-.34V7.05h-1.27V6h1.27V3.2l1.34.09c0,.09-.08.16-.27.19V6h1.16v1H213.7v3L215,9.74l.1.67a11.49,11.49,0,0,0,2.22-1.36,4.54,4.54,0,0,0-.5-.46c-.53.28-1.06.55-1.57.76a4.93,4.93,0,0,0-.61-.7,14.24,14.24,0,0,0,3-1.61h-1.87V6h-.62V3.56h7.05V6h-.73V7Zm-3.4-2.47V6h4.85V4.57Z"/><path class="cls-1" d="M224.85,4h10v10.3h-1.18v-.75H226v.75h-1.13Zm4.35,1.11H226v3h3.22ZM226,9.27v3.11h3.22V9.27Zm7.73-1.14v-3h-3.36v3Zm-3.36,4.25h3.36V9.27h-3.36Z"/><path class="cls-1" d="M241.06,7.57a3.74,3.74,0,0,0-.38-.55A10,10,0,0,0,244,3.15l1.34.06a.21.21,0,0,1-.19.18,10.65,10.65,0,0,0,3.36,3.51,4.21,4.21,0,0,0-.62,1,9.17,9.17,0,0,1-1.31-1.07v.92h-4V6.88A9.08,9.08,0,0,1,241.26,8c0-.08-.08-.17-.13-.26v.93h-1.32v2.56l1.64-.39.1,1-4,1a.24.24,0,0,1-.2.19L237,11.78l1.73-.36V8.62h-1.38v-1h1.38V5.16h-1.54V4.1h4.19V5.16h-1.56V7.57Zm6.57,1.36v3.28c0,1.13-.61,1.22-2.21,1.2a4,4,0,0,0-.37-1.07l.9,0c.51,0,.57,0,.57-.17V10h-2v4.41h-1.13V10h-1.92V8.93Zm-1.15-2.15a11.89,11.89,0,0,1-2-2.49,11,11,0,0,1-1.87,2.49Z"/><path class="cls-1" d="M261.16,8.51V9.65h-4.93V13c0,1.17-.39,1.45-3.14,1.43a4.61,4.61,0,0,0-.49-1.18c.55,0,1.1,0,1.51,0,.9,0,.94,0,.94-.28V9.65h-5V8.51h5V6.57l.58,0a14.16,14.16,0,0,0,2.23-1.53h-6.5V4h7.76l.21-.07,1,.64a.51.51,0,0,1-.28.15,19.59,19.59,0,0,1-3.84,2.83v1Z"/><rect class="cls-2" width="284.77" height="18.05"/></g></g></svg>