<svg xmlns="http://www.w3.org/2000/svg" viewBox="0 0 284.77 18.05"><defs><style>.cls-1{fill:#231815;}.cls-2{fill:none;}</style></defs><title>name_11</title><g id="レイヤー_2" data-name="レイヤー 2"><g id="レイヤー_1-2" data-name="レイヤー 1"><path class="cls-1" d="M14.16,12.26a10.51,10.51,0,0,0,6.5-4.69,7.69,7.69,0,0,0,.87.85c-1.58,2.63-4.32,4.32-7.89,5.24a.33.33,0,0,1-.21.26l-.69-1.12.17-.26V3.89L14.52,4c0,.13-.12.24-.36.28Z"/><path class="cls-1" d="M24.64,6.93A18.61,18.61,0,0,1,27.79,8l-.52,1.05a17.85,17.85,0,0,0-3.14-1.14Zm.52,5.74c3.76-1.23,6.47-3.25,8.08-6.82a8.36,8.36,0,0,0,1,.77,13.26,13.26,0,0,1-8,7,.28.28,0,0,1-.16.31ZM26,4a21.36,21.36,0,0,1,3.14,1.17l-.56,1A17.68,17.68,0,0,0,25.5,4.93Zm5.53-.4A10.11,10.11,0,0,1,33,5.29l-.61.44A10.45,10.45,0,0,0,31,4Zm1.75-.69a10.31,10.31,0,0,1,1.48,1.69L34.18,5a10.7,10.7,0,0,0-1.42-1.69Z"/><path class="cls-1" d="M37,8H47V9.17H37.44a.5.5,0,0,1-.38.22Z"/><path class="cls-1" d="M60,7.74H55.71c-.22,2.93-1,4.82-3.62,6.33a8.14,8.14,0,0,0-1-.82c2.43-1.34,3.16-2.9,3.39-5.51H49.92V6.58h4.62c0-.91,0-1.95,0-3.13l1.59.1c0,.14-.12.23-.33.25,0,1,0,1.94,0,2.78H60Z"/><path class="cls-1" d="M72.22,5.89c0,.08-.14.15-.21.2-1.31,3.9-3.23,6.33-6.51,8a4.45,4.45,0,0,0-.88-.92,10.63,10.63,0,0,0,5.85-6.64H66.59A12.36,12.36,0,0,1,64,9.38a5.87,5.87,0,0,0-1-.77,12.09,12.09,0,0,0,3.8-5.14l1.53.38c0,.12-.2.18-.36.18-.22.48-.47.93-.71,1.37h3.81l.18-.07Z"/><path class="cls-1" d="M77.41,10.18V4.33L79,4.41c0,.11-.12.21-.33.23v5.54Zm6.91-6.35c0,.12-.11.2-.31.22V7.83a6.08,6.08,0,0,1-4.26,6.23,6.32,6.32,0,0,0-.9-.89c3.24-1.22,3.92-3.24,3.92-5.34V3.74Z"/><path class="cls-1" d="M98.56,11.58v1.17H88.62V11.58Zm-1.18-6.4V6.34H89.87V5.18Z"/><path class="cls-1" d="M103.44,6.69a15,15,0,0,1,.87,2.57l-.93.26A11.93,11.93,0,0,0,102.53,7Zm7.06.21a.28.28,0,0,1-.27.13c-1,3.51-2.77,5.64-5.59,6.77A5.59,5.59,0,0,0,104,13c2.7-1,4.43-3,5.27-6.54Zm-4.17-.74a15.23,15.23,0,0,1,.56,2.68l-1,.2a16.12,16.12,0,0,0-.57-2.67Z"/><path class="cls-1" d="M123.82,5.89c0,.08-.14.15-.21.2-1.31,3.9-3.23,6.33-6.51,8a4.45,4.45,0,0,0-.88-.92,10.63,10.63,0,0,0,5.85-6.64h-3.88a12.36,12.36,0,0,1-2.62,2.86,5.87,5.87,0,0,0-1-.77,12.09,12.09,0,0,0,3.8-5.14l1.53.38c0,.12-.2.18-.36.18-.22.48-.47.93-.71,1.37h3.81l.18-.07Z"/><path class="cls-1" d="M137.72,7.71h-4.49c.75,2.66,2.2,4.7,4.72,5.58a4.69,4.69,0,0,0-.83,1.09A8.22,8.22,0,0,1,132.39,9a7.91,7.91,0,0,1-4.76,5.41,3.58,3.58,0,0,0-.83-1,7.18,7.18,0,0,0,4.65-5.7H127V6.54h4.59c.11-1.16.1-2.32.11-3.39l1.54.1c0,.12-.11.2-.3.23,0,.95,0,2-.13,3.06h4.89Z"/><path class="cls-1" d="M143.06,3.63l.73.39a.24.24,0,0,1-.1.15c-.28.94-.71,2.19-1.09,3.16a3.76,3.76,0,0,1,1.13,2.48c0,1.85-1.18,1.8-2,1.76a2.64,2.64,0,0,0-.26-.94h.65c.35,0,.61-.16.61-.93a3.42,3.42,0,0,0-1.1-2.25c.31-.84.62-1.93.84-2.76h-1.31v9.69h-1V3.67h2.77ZM145.5,7h4.05l.19,0a3.9,3.9,0,0,0,.68.23,1,1,0,0,1-.1.18,10.39,10.39,0,0,1-1.75,4.48,6.58,6.58,0,0,0,2.4,1.55,4.36,4.36,0,0,0-.75,1,7.22,7.22,0,0,1-2.37-1.65,8,8,0,0,1-2.4,1.65,3.94,3.94,0,0,0-.66-.93,6.4,6.4,0,0,0,2.34-1.6,11.32,11.32,0,0,1-1.61-3.43l1-.23a9.67,9.67,0,0,0,1.34,2.8,8.54,8.54,0,0,0,1.25-2.94h-3.58c-.05,2-.38,4.58-1.7,6.31a3.39,3.39,0,0,0-.86-.69c1.38-1.82,1.5-4.42,1.5-6.33V3.84h6.34v1H145.5Z"/><path class="cls-1" d="M163.81,10.22h-.74c0,.66-.06,1.2-.09,1.65h.75v1h-.85c-.18,1.46-.67,1.56-1.71,1.56h-.75a1.85,1.85,0,0,0-.24-.81c.48,0,.9,0,1.12,0s.46-.21.56-.77h-3.65l-.08.48-1-.07c.13-.81.27-1.89.41-3h-.75V9.77l-.57.78c-.17-.39-.52-1.06-.84-1.64v5.47h-1.05V9.19a11.49,11.49,0,0,1-1.32,3,5.87,5.87,0,0,0-.53-1,12.88,12.88,0,0,0,1.76-4.36h-1.5V5.73h1.59V3.15l1.32.08c0,.09-.08.15-.27.19V5.73h1.32v.93a10.13,10.13,0,0,0,1.62-3.55l1.28.37a.26.26,0,0,1-.28.13,9.84,9.84,0,0,1-.36,1h4.8v1h-5.22a10.82,10.82,0,0,1-.51,1h4.64l.56,0c0,.06-.06,2.13-.07,2.54h.7Zm-7.07-1.07h.85c.09-.79.16-1.57.21-2.29a7.25,7.25,0,0,1-.64.85,9.12,9.12,0,0,0-.74-.79l.12-.13h-1.21v.77c.32.43,1.16,1.69,1.41,2.11Zm2.9,2.72c.05-.49.1-1,.15-1.65h-1.27c-.07.57-.13,1.14-.19,1.65Zm.22-2.72c0-.54.06-1.09.07-1.59h-1.16l-.14,1.59Zm.76,2.72H162c0-.44.06-1,.1-1.65h-1.31Zm.28-4.31c0,.51-.06,1-.08,1.59h1.27c0-.48,0-1,0-1.59Z"/><path class="cls-1" d="M166.07,4h10.05v10.3h-1.19v-.75h-7.72v.75h-1.14Zm4.35,1.1h-3.21V8.13h3.21Zm-3.21,4.19v3.11h3.21V9.27Zm7.72-1.14V5.08h-3.36V8.13Zm-3.36,4.25h3.36V9.27h-3.36Z"/><path class="cls-1" d="M181.76,3.63l.73.39a.24.24,0,0,1-.1.15c-.28.94-.71,2.19-1.09,3.16a3.71,3.71,0,0,1,1.13,2.48c0,1.85-1.18,1.8-2,1.76a2.64,2.64,0,0,0-.26-.94h.65c.35,0,.61-.16.61-.93a3.42,3.42,0,0,0-1.1-2.25c.31-.84.62-1.93.84-2.76h-1.31v9.69h-1V3.67h2.78Zm5.65,9.14c0,.34,0,.37.25.37h.65c.23,0,.28-.18.3-1.43a2.81,2.81,0,0,0,1,.44c-.11,1.58-.37,2-1.14,2h-1c-.93,0-1.15-.32-1.15-1.36V9.93h-1.18c-.16,2.12-.6,3.63-3,4.45a3,3,0,0,0-.61-.88c2-.62,2.36-1.75,2.5-3.57h-1.49v-1h6.85v1h-2Zm-4.95-8.19h2.85V3.15l1.38.09c0,.09-.09.17-.27.19V4.58h3V6.93h-.95v.78h-5.07V6.94h-.91Zm5.86,2.14V5.56h-4.85V6.72Z"/><path class="cls-1" d="M198.25,3.63,199,4a.22.22,0,0,1-.11.15c-.27.94-.7,2.19-1.09,3.16a3.73,3.73,0,0,1,1.14,2.48c0,1.85-1.18,1.8-2,1.76a2.63,2.63,0,0,0-.25-.94h.65c.35,0,.61-.16.61-.93a3.46,3.46,0,0,0-1.1-2.25c.31-.84.62-1.93.84-2.76h-1.31v9.69h-1V3.67h2.77Zm5.65,9.14c0,.34,0,.37.25.37h.65c.23,0,.28-.18.3-1.43a2.73,2.73,0,0,0,1,.44c-.11,1.58-.37,2-1.14,2H204c-.93,0-1.15-.32-1.15-1.36V9.93h-1.19c-.15,2.12-.6,3.63-3,4.45a3.47,3.47,0,0,0-.61-.88c1.95-.62,2.36-1.75,2.49-3.57h-1.48v-1h6.84v1h-2Zm-5-8.19h2.85V3.15l1.38.09c0,.09-.1.17-.28.19V4.58h3V6.93h-.95v.78h-5.07V6.94H199Zm5.86,2.14V5.56H200V6.72Z"/><path class="cls-1" d="M217.42,9.94l1,.76a.37.37,0,0,1-.31.06,21.19,21.19,0,0,1-2.33,1.35A8.13,8.13,0,0,0,219,13.4a4.36,4.36,0,0,0-.72,1,7.44,7.44,0,0,1-5.52-4.48h-1.61v2.94l2.9-.43,0,.93c-1.84.34-3.78.66-5,.87a.25.25,0,0,1-.18.19l-.45-1.19L210,13V9.94h-2.09v-1H210V3.61h7.59v.95h-6.44v.85h6.08v.9h-6.08v.85h6.08v.9h-6.08v.86h7.64v1Zm-3.51,0A5.88,5.88,0,0,0,215,11.48a18,18,0,0,0,2.32-1.54Z"/><path class="cls-1" d="M235.11,7.2H230.9a13.2,13.2,0,0,0,4.64,4.9,5.16,5.16,0,0,0-.86,1,14.42,14.42,0,0,1-4.26-4.67v6h-1.21V8.5A13.15,13.15,0,0,1,225,13.14a6.29,6.29,0,0,0-.85-1,12.39,12.39,0,0,0,4.61-5h-4.16V6.07h4.66V3.15l1.5.1c0,.11-.08.17-.29.2V6.07h4.69Z"/><path class="cls-1" d="M240.41,6.79v.92c.4.41,1.57,1.72,1.84,2.05l-.7,1a15.67,15.67,0,0,0-1.14-1.64v5.3H239.3V8.92a11.89,11.89,0,0,1-1.75,3.31,5.89,5.89,0,0,0-.58-1.08,12.15,12.15,0,0,0,2.19-4.36h-1.88V5.71h2V3.15l1.38.08c0,.1-.08.16-.27.2V5.71h1.74V6.79Zm8-1.11v1.1h-1.29V12.9c0,1.26-.43,1.5-2.85,1.48a5.5,5.5,0,0,0-.41-1.2c.48,0,.94,0,1.3,0,.78,0,.81,0,.81-.3V6.78h-3.48V5.68H246V3.17l1.44.07c0,.11-.08.17-.29.2V5.68Zm-4.79,2.2a11.05,11.05,0,0,1,1.55,2.84l-1,.53a11.14,11.14,0,0,0-1.47-2.93Z"/><path class="cls-1" d="M254.72,12.92a.56.56,0,0,1-.24.08A14.75,14.75,0,0,1,251,14.4a8.23,8.23,0,0,0-.78-.79,12.89,12.89,0,0,0,3.48-1.35Zm6.3-1.73v1H250.25v-1Zm-6-5.45V5.07h-4.4v-1H255v-1l1.49.09c0,.1-.1.16-.3.2V4.1h4.53v1h-4.53v.67h3.23V10.6h-7.37V5.74Zm3.27,1.4V6.46h-5.13v.68Zm0,1.36V7.82h-5.13V8.5Zm0,1.38V9.17h-5.13v.71Zm1.89,4.52a36,36,0,0,0-3.53-1.46l.74-.73c1.33.46,2.85,1,3.76,1.43Z"/><path class="cls-1" d="M268.11,4.68h-1v9.71h-1v-2.3c-1,.23-2,.43-2.72.56a.23.23,0,0,1-.17.19l-.37-1.19.87-.12V4.68h-.81v-1h5.2Zm-2,1.52V4.68h-1.39V6.2Zm-1.39,1V8.68h1.39V7.15Zm0,2.48v1.75c.44-.07.92-.14,1.39-.23V9.63ZM269,11.19a4.63,4.63,0,0,1-1.13,2.65l-.77-.6a3.92,3.92,0,0,0,1-2.29Zm1.38-7.64c0,.1-.12.14-.27.13a7.43,7.43,0,0,1-1.95,3.14,4.92,4.92,0,0,0-.73-.64,6.55,6.55,0,0,0,1.75-2.94Zm1.72,3.11a10.78,10.78,0,0,1,1.71,2.54l-.89.51a5.6,5.6,0,0,0-.38-.8c-1.52.13-3.06.24-4.07.3a.23.23,0,0,1-.19.18L268,8.24l1,0a20,20,0,0,0,1-2.83l1.21.37a.32.32,0,0,1-.3.14c-.23.67-.57,1.54-.91,2.28l2-.09c-.23-.35-.48-.67-.72-1ZM270.24,13c0,.29.05.32.33.32h.88c.24,0,.3-.12.33-1a2.77,2.77,0,0,0,.84.36c-.09,1.26-.36,1.57-1.06,1.57h-1.12c-.95,0-1.16-.28-1.16-1.2V10.67l1.22.09c0,.08-.08.14-.26.18Zm1.12-1.74a6.34,6.34,0,0,0-1.85-1.4l.63-.64a7.13,7.13,0,0,1,1.9,1.32Zm.74-8a6,6,0,0,0,2.16,2.7,3.69,3.69,0,0,0-.75.83,7.38,7.38,0,0,1-2.28-3.25Zm1.22,10.58a9.7,9.7,0,0,0-1.16-2.71l.87-.32a8.66,8.66,0,0,1,1.23,2.67Z"/><rect class="cls-2" width="284.77" height="18.05"/></g></g></svg>