<?xml version="1.0" encoding="utf-8"?>
<!-- Generator: Adobe Illustrator 23.0.1, SVG Export Plug-In . SVG Version: 6.00 Build 0)  -->
<svg version="1.1" id="レイヤー_1" xmlns="http://www.w3.org/2000/svg" xmlns:xlink="http://www.w3.org/1999/xlink" x="0px"
	 y="0px" viewBox="0 0 284.8 18" style="enable-background:new 0 0 284.8 18;" xml:space="preserve">
<style type="text/css">
	.st0{enable-background:new    ;}
	.st1{fill:#231815;}
	.st2{fill:none;}
</style>
<title>name</title>
<g>
	<g id="レイヤー_1-2">
		<g class="st0">
			<path class="st1" d="M13.6,12.3c2.8-0.8,5.1-2.3,6.5-4.7c0.2,0.3,0.6,0.7,0.9,0.9c-1.6,2.6-4.3,4.3-7.9,5.2
				c0,0.1-0.1,0.2-0.2,0.3l-0.7-1.1l0.2-0.3V3.9L14,4c0,0.1-0.1,0.2-0.4,0.3V12.3z"/>
			<path class="st1" d="M23.3,6.9c1.1,0.3,2.4,0.7,3.2,1.1l-0.5,1c-0.8-0.4-2.1-0.9-3.1-1.1L23.3,6.9z M23.9,12.7
				c3.8-1.2,6.5-3.3,8.1-6.8c0.2,0.2,0.8,0.6,1,0.8c-1.6,3.5-4.5,5.8-8,7c0,0.1,0,0.3-0.2,0.3L23.9,12.7z M24.7,4
				c1.1,0.3,2.3,0.8,3.1,1.2l-0.6,1c-0.9-0.5-2-0.9-3.1-1.2L24.7,4z M30.2,3.6c0.5,0.4,1.1,1.2,1.5,1.7l-0.6,0.4
				c-0.3-0.5-1-1.3-1.4-1.7L30.2,3.6z M32,2.9c0.5,0.4,1.1,1.2,1.5,1.7L32.9,5c-0.3-0.5-1-1.3-1.4-1.7L32,2.9z"/>
			<path class="st1" d="M35.1,8h10v1.2h-9.5c-0.1,0.1-0.2,0.2-0.4,0.2L35.1,8z"/>
			<path class="st1" d="M57.3,7.7h-4.3c-0.2,2.9-1,4.8-3.6,6.3c-0.2-0.2-0.7-0.6-1-0.8c2.4-1.3,3.2-2.9,3.4-5.5h-4.6V6.6h4.6
				c0-0.9,0-2,0-3.1l1.6,0.1c0,0.1-0.1,0.2-0.3,0.3c0,1,0,1.9,0,2.8h4.2V7.7z"/>
			<path class="st1" d="M67.7,5.9c0,0.1-0.1,0.2-0.2,0.2c-1.3,3.9-3.2,6.3-6.5,8c-0.2-0.3-0.5-0.7-0.9-0.9c3.1-1.5,4.9-3.7,5.9-6.6
				h-3.9c-0.6,1-1.6,2.1-2.6,2.9c-0.2-0.2-0.6-0.6-1-0.8c1.6-1.2,3-3.1,3.8-5.1l1.5,0.4C63.8,4,63.6,4,63.5,4
				C63.3,4.5,63,5,62.8,5.4h3.8l0.2-0.1L67.7,5.9z"/>
			<path class="st1" d="M70.3,10.2V4.3l1.5,0.1c0,0.1-0.1,0.2-0.3,0.2v5.5H70.3z M77.3,3.8c0,0.1-0.1,0.2-0.3,0.2v3.8
				c0,2.5-0.9,4.9-4.3,6.2c-0.2-0.2-0.6-0.7-0.9-0.9c3.2-1.2,3.9-3.2,3.9-5.3V3.7L77.3,3.8z"/>
			<path class="st1" d="M89.9,11.6v1.2h-9.9v-1.2H89.9z M88.7,5.2v1.2h-7.5V5.2H88.7z"/>
			<path class="st1" d="M93.1,6.7c0.3,0.7,0.7,1.9,0.9,2.6l-0.9,0.3c-0.1-0.7-0.5-1.8-0.9-2.6L93.1,6.7z M100.2,6.9
				c0,0.1-0.1,0.1-0.3,0.1c-1,3.5-2.8,5.6-5.6,6.8c-0.1-0.2-0.4-0.6-0.6-0.8c2.7-1,4.4-3,5.3-6.5L100.2,6.9z M96,6.2
				c0.3,0.8,0.5,1.9,0.6,2.7l-1,0.2c-0.1-0.8-0.3-1.9-0.6-2.7L96,6.2z"/>
			<path class="st1" d="M111.1,5.9c0,0.1-0.1,0.2-0.2,0.2c-1.3,3.9-3.2,6.3-6.5,8c-0.2-0.3-0.5-0.7-0.9-0.9c3.1-1.5,4.9-3.7,5.9-6.6
				h-3.9c-0.6,1-1.6,2.1-2.6,2.9c-0.2-0.2-0.6-0.6-1-0.8c1.6-1.2,3-3.1,3.8-5.1l1.5,0.4c0,0.1-0.2,0.2-0.4,0.2
				c-0.2,0.5-0.5,0.9-0.7,1.4h3.8l0.2-0.1L111.1,5.9z"/>
			<path class="st1" d="M117.3,5.8c0,0.1-0.1,0.1-0.2,0.2c-0.3,0.9-0.9,1.8-1.4,2.7c0.5,0.4,1.3,1.1,1.6,1.3V9h6.2v5.3h-1.1v-0.5
				h-4.1v0.5h-1.1V9.9l-0.6,0.9c-0.2-0.3-0.7-0.8-1.1-1.2v4.7h-1.1v-4.3c-0.4,0.4-0.8,0.8-1.3,1.1c-0.1-0.3-0.4-0.8-0.6-1
				c1.2-0.8,2.5-2.2,3.2-3.7h-2.9v-1h1.6V3.2l1.4,0.1c0,0.1-0.1,0.2-0.3,0.2v2h0.8l0.2,0L117.3,5.8z M117,3.6h6.9v1H117V3.6z
				 M118,5.2h4.9v3.1H118V5.2z M119.9,9.9h-1.5v1h1.5V9.9z M118.4,12.9h1.5v-1h-1.5V12.9z M121.9,7.4V6.1H119v1.3H121.9z
				 M122.4,10.9v-1h-1.5v1H122.4z M120.9,12.9h1.5v-1h-1.5V12.9z"/>
			<path class="st1" d="M136.3,3.8v9.3c0,1.2-0.6,1.3-2.5,1.3c-0.1-0.3-0.2-0.8-0.4-1.1c0.4,0,0.8,0,1.1,0c0.5,0,0.6,0,0.6-0.3V4.8
				h-7.9v9.5h-1.1V3.8H136.3z M134,12.7h-1v-0.6h-3.7v0.8h-1V8.8l1.2,0.1c0,0.1-0.1,0.2-0.3,0.2v2.1h1.3V8h-2.9V7.1h1.6
				c-0.1-0.5-0.5-1.3-0.8-1.8l0.9-0.3c0.4,0.5,0.8,1.3,0.9,1.8l-0.9,0.3h3.2c-0.2-0.1-0.5-0.2-0.7-0.3c0.3-0.5,0.7-1.3,0.9-1.9
				l1.2,0.4c0,0.1-0.1,0.1-0.3,0.1c-0.2,0.5-0.6,1.2-0.9,1.7h1.9V8h-2.8c0,0.1-0.1,0.1-0.2,0.1v3h1.3V8.8l1.2,0.1
				c0,0.1-0.1,0.2-0.3,0.2V12.7z"/>
			<path class="st1" d="M142.2,7.3h-1.3v7.1h-1.1V7.3h-1.4v-1h1.4V3.2l1.4,0.1c0,0.1-0.1,0.2-0.3,0.2v2.9h1.3V7.3z M149.7,10.5v0.9
				h-1.8v1.8c0,1-0.4,1.1-2.3,1.1c0-0.3-0.2-0.7-0.3-0.9c1.5,0,1.5,0,1.5-0.2v-1.8h-3c0.6,0.4,1.2,1.1,1.5,1.5l-0.8,0.6
				c-0.3-0.5-0.9-1.1-1.5-1.6l0.7-0.5h-1.9v-0.9h5V9.8h-4.1V6h2.6V5.4H142V4.5h3.2V3.1l1.4,0.1c0,0.1-0.1,0.2-0.3,0.2v1.1h1.8
				c-0.4-0.3-0.9-0.5-1.2-0.7l0.5-0.6c0.6,0.3,1.3,0.7,1.7,1l-0.3,0.4h0.8v0.9h-3.2V6h2.7v3.8H148c0,0-0.1,0.1-0.2,0.1v0.6H149.7z
				 M143.6,6.8v0.8h1.6V6.8H143.6z M143.6,9.1h1.6V8.3h-1.6V9.1z M148,6.8h-1.7v0.8h1.7V6.8z M148,9.1V8.3h-1.7v0.8H148z"/>
			<path class="st1" d="M159.8,4.1l0.8,0.4c0,0.1-0.1,0.1-0.2,0.1c-1.5,2.7-5,4.4-8.3,5.1c-0.1-0.3-0.3-0.7-0.5-1
				c1.5-0.3,3-0.7,4.4-1.5c-0.4-0.3-1-0.6-1.5-0.9l0.8-0.6c0.5,0.3,1.2,0.6,1.7,1c0.8-0.5,1.4-1,1.9-1.7h-3.2
				c-0.9,0.6-1.9,1.2-3.1,1.7c-0.2-0.3-0.5-0.7-0.8-0.8c2.1-0.8,3.6-1.8,4.5-2.8l1.4,0.3c0,0.1-0.1,0.2-0.3,0.2
				c-0.2,0.2-0.4,0.4-0.6,0.6h2.9L159.8,4.1z M161.2,8.4l0.2,0c0.7,0.3,0.8,0.4,0.8,0.4c0,0.1-0.1,0.1-0.2,0.1
				c-1.5,3.4-5.1,4.9-9.2,5.5c-0.1-0.3-0.3-0.8-0.5-1c1.8-0.2,3.6-0.6,5-1.3c-0.5-0.4-1.1-0.9-1.6-1.2l0.8-0.6
				c0.6,0.3,1.3,0.8,1.8,1.2c0.9-0.6,1.6-1.2,2.1-2.1h-3.3c-1,0.7-2.2,1.4-3.7,1.9c-0.1-0.3-0.5-0.7-0.7-0.9c2.5-0.8,4.3-2,5.3-3.2
				l1.4,0.3c0,0.1-0.1,0.2-0.3,0.2c-0.2,0.2-0.4,0.4-0.7,0.7H161.2z"/>
			<path class="st1" d="M174.7,8.9h-4.2c0.8,2.2,2.3,3.8,4.9,4.4c-0.3,0.3-0.6,0.8-0.8,1.1c-2.4-0.7-3.9-2.1-4.8-4.2
				c-0.6,1.7-2,3.2-5,4.2c-0.1-0.3-0.5-0.8-0.7-1c3.3-1.1,4.4-2.8,4.8-4.5h-4.1V7.8h4.3c0-0.2,0-0.4,0-0.5v-2h-4.7V4H175v1.2h-4.8
				v2.1c0,0.2,0,0.3,0,0.5h4.5V8.9z"/>
			<path class="st1" d="M180.8,5.3l0.7,0.4c0,0.1-0.1,0.1-0.2,0.1c-0.4,0.9-0.9,1.9-1.5,2.7c0.5,0.4,1.5,1.2,1.7,1.4l-0.7,0.9
				c-0.3-0.3-0.7-0.8-1.2-1.2v4.7h-1.1V10c-0.5,0.5-0.9,0.9-1.4,1.3c-0.1-0.3-0.4-0.8-0.5-1c1.3-0.8,2.6-2.3,3.3-3.8h-3v-1h1.6V3.2
				l1.4,0.1c0,0.1-0.1,0.2-0.3,0.2v2h0.9L180.8,5.3z M185.2,5.2h2.7v6.2h-1.1V11h-1.6v3.4h-1.1V11h-1.5v0.5h-1V5.2h2.5V3.2l1.4,0.1
				c0,0.1-0.1,0.2-0.3,0.2V5.2z M184.1,6.3h-1.5v1.4h1.5V6.3z M182.6,10h1.5V8.6h-1.5V10z M186.8,6.3h-1.6v1.4h1.6V6.3z M185.2,10
				h1.6V8.6h-1.6V10z"/>
			<path class="st1" d="M193.2,3.6l0.7,0.4c0,0.1-0.1,0.1-0.1,0.2c-0.3,0.9-0.7,2.2-1.1,3.2c0.8,0.9,1.1,1.7,1.1,2.5
				c0,1.8-1.2,1.8-2,1.8c0-0.3-0.1-0.7-0.3-0.9c0.2,0,0.5,0,0.6,0c0.3,0,0.6-0.2,0.6-0.9c0-0.6-0.3-1.4-1.1-2.3
				c0.3-0.8,0.6-1.9,0.8-2.8h-1.3v9.7h-1V3.7h2.8L193.2,3.6z M198.8,12.8c0,0.3,0,0.4,0.3,0.4h0.6c0.2,0,0.3-0.2,0.3-1.4
				c0.2,0.2,0.7,0.4,1,0.4c-0.1,1.6-0.4,2-1.1,2h-0.9c-0.9,0-1.2-0.3-1.2-1.4V9.9h-1.2c-0.2,2.1-0.6,3.6-3,4.4
				c-0.1-0.3-0.4-0.7-0.6-0.9c2-0.6,2.4-1.8,2.5-3.6H194v-1h6.8v1h-2V12.8z M193.9,4.6h2.9V3.2l1.4,0.1c0,0.1-0.1,0.2-0.3,0.2v1.2h3
				v2.4h-0.9v0.8h-5.1V6.9h-0.9V4.6z M199.7,6.7V5.6h-4.9v1.2H199.7z"/>
			<path class="st1" d="M209.5,3.6l0.7,0.4c0,0.1-0.1,0.1-0.1,0.2c-0.3,0.9-0.7,2.2-1.1,3.2c0.8,0.9,1.1,1.7,1.1,2.5
				c0,1.8-1.2,1.8-2,1.8c0-0.3-0.1-0.7-0.3-0.9c0.2,0,0.5,0,0.6,0c0.3,0,0.6-0.2,0.6-0.9c0-0.6-0.3-1.4-1.1-2.3
				c0.3-0.8,0.6-1.9,0.8-2.8h-1.3v9.7h-1V3.7h2.8L209.5,3.6z M215.2,12.8c0,0.3,0,0.4,0.3,0.4h0.6c0.2,0,0.3-0.2,0.3-1.4
				c0.2,0.2,0.7,0.4,1,0.4c-0.1,1.6-0.4,2-1.1,2h-0.9c-0.9,0-1.2-0.3-1.2-1.4V9.9h-1.2c-0.2,2.1-0.6,3.6-3,4.4
				c-0.1-0.3-0.4-0.7-0.6-0.9c2-0.6,2.4-1.8,2.5-3.6h-1.5v-1h6.8v1h-2V12.8z M210.2,4.6h2.9V3.2l1.4,0.1c0,0.1-0.1,0.2-0.3,0.2v1.2
				h3v2.4h-0.9v0.8h-5.1V6.9h-0.9V4.6z M216.1,6.7V5.6h-4.9v1.2H216.1z"/>
			<path class="st1" d="M228.7,9.9l1,0.8c-0.1,0.1-0.2,0.1-0.3,0.1c-0.6,0.4-1.5,0.9-2.3,1.4c0.9,0.6,1.9,1,3.2,1.3
				c-0.3,0.2-0.6,0.7-0.7,1c-2.8-0.6-4.5-2.1-5.5-4.5h-1.6v2.9c0.9-0.1,1.9-0.3,2.9-0.4l0,0.9c-1.8,0.3-3.8,0.7-5,0.9
				c0,0.1-0.1,0.2-0.2,0.2l-0.5-1.2l1.5-0.2V9.9h-2.1v-1h2.1V3.6h7.6v0.9h-6.4v0.9h6.1v0.9h-6.1v0.9h6.1v0.9h-6.1v0.9h7.6v1H228.7z
				 M225.1,9.9c0.3,0.6,0.7,1.1,1.1,1.5c0.8-0.4,1.7-1,2.3-1.5H225.1z"/>
			<path class="st1" d="M237,10.4c0,0.1-0.1,0.1-0.3,0.1c-0.1,1-0.4,2.2-0.7,2.9c-0.2-0.1-0.6-0.3-0.8-0.4c0.3-0.7,0.5-1.8,0.7-2.9
				L237,10.4z M246.1,5.4v7.7c0,1.1-0.5,1.2-2,1.2c0-0.3-0.2-0.8-0.3-1c0.2,0,0.5,0,0.7,0h0.4c0.1,0,0.2,0,0.2-0.2V11l-0.6,0.5
				c-0.3-0.7-0.8-1.6-1.3-2.5c-0.3,1.1-0.7,2-1.4,2.7c-0.1-0.2-0.3-0.4-0.5-0.6v3.3h-1V9.5l-0.8,0.4c0-0.2-0.1-0.4-0.2-0.6l-1,0.1v5
				h-1v-5c-0.6,0-1.2,0.1-1.6,0.1c0,0.1-0.1,0.2-0.2,0.2l-0.2-1.2l0.9,0c0.2-0.3,0.5-0.6,0.7-0.9c-0.4-0.5-1-1.2-1.5-1.7l0.6-0.8
				l0.3,0.3c0.4-0.7,0.8-1.6,1-2.2l1.2,0.5c0,0.1-0.1,0.1-0.3,0.1c-0.3,0.7-0.8,1.6-1.3,2.3c0.2,0.2,0.4,0.5,0.6,0.7
				c0.5-0.7,0.9-1.5,1.3-2.2l1.1,0.5c0,0.1-0.2,0.1-0.3,0.1c-0.6,1-1.5,2.3-2.3,3.3l1.8,0c-0.2-0.4-0.4-0.7-0.6-1l0.8-0.4
				c0.4,0.6,0.9,1.5,1.2,2.1V5.4h2.4c0-0.7,0-1.5,0-2.3l1.4,0.1c0,0.1-0.1,0.2-0.3,0.2c0,0.7,0,1.4-0.1,2H246.1z M239.4,10.1
				c0.3,0.7,0.7,1.7,0.8,2.3c-0.3,0.1-0.5,0.2-0.9,0.3c-0.1-0.6-0.4-1.6-0.8-2.4L239.4,10.1z M241.3,6.5v4.2c0.8-1,1.2-2.5,1.3-4.2
				H241.3z M245.1,6.5h-1.5c0,0.4-0.1,0.7-0.1,1.1c0.6,0.9,1.2,2,1.6,2.8V6.5z"/>
			<path class="st1" d="M255.2,6.2v0.9h-7V6.2h1.8c0-0.3-0.2-0.8-0.3-1.1l0.7-0.1v0l-1.7,0V4.1h2.6v-1l1.4,0.1
				c0,0.1-0.1,0.2-0.3,0.2v0.7h2.6V5h-1.2l0.5,0.1c0,0.1-0.1,0.1-0.3,0.1c-0.1,0.3-0.3,0.7-0.5,1H255.2z M255.2,12.8h-2.9v1.6h-1.1
				v-1.6h-3v-0.9h3v-0.7H249V7.8h5.6v3.4h-2.3v0.7h2.9V12.8z M250,8.4v0.7h3.5V8.4H250z M250,9.7v0.7h3.5V9.7H250z M252.4,6.1
				c0.2-0.3,0.3-0.8,0.4-1.2h-2.3c0.2,0.3,0.3,0.8,0.4,1.1l-0.5,0.1v0l2.2,0L252.4,6.1z M259.7,10.6c0,0.1-0.1,0.1-0.3,0.1
				c-0.9,1.4-2.4,2.8-4,3.6c-0.2-0.3-0.5-0.7-0.8-0.9c1.5-0.7,3-2,3.8-3.3L259.7,10.6z M259.1,3.8c0,0.1-0.1,0.1-0.3,0.1
				c-0.7,1-1.9,2-3,2.7c-0.2-0.3-0.5-0.6-0.8-0.8c1-0.6,2.2-1.6,2.9-2.5L259.1,3.8z M259.4,7.2c0,0.1-0.1,0.1-0.3,0.1
				c-0.8,1-2.1,2.1-3.3,2.9c-0.2-0.2-0.5-0.6-0.8-0.8c1.1-0.6,2.4-1.7,3.1-2.7L259.4,7.2z"/>
			<path class="st1" d="M272.2,8.5v1.1h-4.9V13c0,1.2-0.4,1.5-3.1,1.4c-0.1-0.3-0.3-0.9-0.5-1.2c0.6,0,1.1,0,1.5,0
				c0.9,0,0.9,0,0.9-0.3V9.7h-4.9V8.5h4.9V6.6l0.6,0c0.8-0.4,1.6-1,2.2-1.5h-6.5V4h7.8l0.2-0.1l1,0.6c-0.1,0.1-0.2,0.1-0.3,0.1
				c-1,0.9-2.5,2.1-3.8,2.8v1H272.2z"/>
		</g>
		<rect y="0" class="st2" width="284.8" height="18"/>
	</g>
</g>
</svg>
