<svg xmlns="http://www.w3.org/2000/svg" viewBox="0 0 284.77 18.05"><defs><style>.cls-1{fill:#231815;}.cls-2{fill:none;}</style></defs><title>name_9</title><g id="レイヤー_2" data-name="レイヤー 2"><g id="レイヤー_1-2" data-name="レイヤー 1"><path class="cls-1" d="M20.61,12.26a10.51,10.51,0,0,0,6.5-4.69,7.69,7.69,0,0,0,.87.85c-1.58,2.63-4.32,4.32-7.89,5.24a.33.33,0,0,1-.21.26l-.69-1.12.17-.26V3.89L21,4c0,.13-.12.24-.36.28Z"/><path class="cls-1" d="M31.09,6.93A18.61,18.61,0,0,1,34.24,8l-.52,1.05a17.85,17.85,0,0,0-3.14-1.14Zm.52,5.74c3.76-1.23,6.47-3.25,8.08-6.82a10.21,10.21,0,0,0,1,.77,13.26,13.26,0,0,1-8,7,.28.28,0,0,1-.16.31ZM32.48,4a21.36,21.36,0,0,1,3.14,1.17l-.56,1A17.68,17.68,0,0,0,32,4.93ZM38,3.57a10.11,10.11,0,0,1,1.48,1.72l-.61.44A10.45,10.45,0,0,0,37.44,4Zm1.75-.69a9.86,9.86,0,0,1,1.48,1.69L40.63,5a10.7,10.7,0,0,0-1.42-1.69Z"/><path class="cls-1" d="M43.41,8h10V9.17H43.89a.5.5,0,0,1-.38.22Z"/><path class="cls-1" d="M66.42,7.74H62.16c-.22,2.93-1,4.82-3.62,6.33a8.14,8.14,0,0,0-1-.82c2.43-1.34,3.16-2.9,3.39-5.51H56.37V6.58H61c0-.91,0-1.95,0-3.13l1.59.1c0,.14-.12.23-.33.25,0,1,0,1.94,0,2.78h4.18Z"/><path class="cls-1" d="M78.67,5.89c0,.08-.14.15-.21.2-1.31,3.9-3.23,6.34-6.51,8a4.45,4.45,0,0,0-.88-.92,10.63,10.63,0,0,0,5.85-6.64H73a12.36,12.36,0,0,1-2.62,2.86,5.87,5.87,0,0,0-1-.77,12.09,12.09,0,0,0,3.8-5.14l1.53.38c0,.12-.2.18-.36.18-.22.48-.47.94-.71,1.37h3.81l.18-.07Z"/><path class="cls-1" d="M83.86,10.18V4.33l1.54.08c0,.11-.12.21-.33.23v5.54Zm6.91-6.35c0,.12-.11.2-.31.22V7.83a6.08,6.08,0,0,1-4.26,6.23,6.32,6.32,0,0,0-.9-.89c3.24-1.22,3.92-3.24,3.92-5.34V3.74Z"/><path class="cls-1" d="M105,11.59v1.16H95.07V11.59Zm-1.18-6.41V6.34H96.32V5.18Z"/><path class="cls-1" d="M109.89,6.69a15,15,0,0,1,.87,2.57l-.93.26A11.93,11.93,0,0,0,109,7ZM117,6.9a.28.28,0,0,1-.27.13c-1,3.51-2.77,5.64-5.59,6.77a5.59,5.59,0,0,0-.65-.76c2.7-1,4.43-3,5.27-6.54Zm-4.17-.74a15.23,15.23,0,0,1,.56,2.68l-1,.2a16.12,16.12,0,0,0-.57-2.67Z"/><path class="cls-1" d="M130.27,5.89c0,.08-.14.15-.21.2-1.31,3.9-3.23,6.34-6.51,8a4.45,4.45,0,0,0-.88-.92,10.63,10.63,0,0,0,5.85-6.64h-3.88A12.36,12.36,0,0,1,122,9.38a5.87,5.87,0,0,0-1-.77,12.09,12.09,0,0,0,3.8-5.14l1.53.38c0,.12-.2.18-.36.18-.22.48-.47.94-.71,1.37h3.81l.18-.07Z"/><path class="cls-1" d="M143.55,9.09V14.4h-1.18v-.46h-4.63v.44h-1.11V10.69a15,15,0,0,1-2.9,1.3,4.28,4.28,0,0,0-.64-1,13.71,13.71,0,0,0,4.38-2.21,11.93,11.93,0,0,0-1.76-1.53l.86-.72A14,14,0,0,1,138.38,8a10.07,10.07,0,0,0,2-2.61h-3.45a12.82,12.82,0,0,1-3,2.51,4.15,4.15,0,0,0-.79-.88,10.39,10.39,0,0,0,4-3.89l1.46.25q0,.18-.3.18a8.94,8.94,0,0,1-.55.81h3.3l.18-.06.83.44a.4.4,0,0,1-.17.15,11.33,11.33,0,0,1-3,4.21Zm-5.81,3.8h4.63V10.11h-4.63Z"/><path class="cls-1" d="M157.18,6.4h-4.9V8.83h3.57v5.51h-1.17v-.55h-5.85v.6H147.7V8.83h3.4V6.4h-4.85V5.29h4.85V3.14l1.47.09c0,.1-.09.16-.29.2V5.29h4.9Zm-2.5,6.3V9.92h-5.85V12.7Z"/><path class="cls-1" d="M166,13.08h4V14h-9v-.92h3.86v-1H162v-.9h2.9v-.82c-1.08.05-2.06.09-2.83.1a.21.21,0,0,1-.19.17l-.36-1.08,1.36,0a12.93,12.93,0,0,0,.75-1.23h-2.23A12.84,12.84,0,0,1,160,14.39a4.39,4.39,0,0,0-1-.59c1.2-1.91,1.31-4.67,1.31-6.62V3.74h8.95V6.68h-7.81v.71h8.34V8.3h-2.46a12.61,12.61,0,0,1,2.32,1.89l-.92.6c-.15-.16-.33-.36-.54-.55l-2,.09a.42.42,0,0,1-.19.07v.79h3v.9h-3Zm2.07-8.4h-6.66V5.74h6.66ZM167,8.3h-2.08a10,10,0,0,1-.82,1.21l3.16-.06c-.31-.26-.65-.5-1-.72Z"/><path class="cls-1" d="M175.31,3.63,176,4a.24.24,0,0,1-.1.15c-.28.94-.71,2.19-1.09,3.16A3.76,3.76,0,0,1,176,9.81c0,1.85-1.18,1.8-2,1.76a2.64,2.64,0,0,0-.26-.94h.65c.35,0,.61-.16.61-.93a3.42,3.42,0,0,0-1.1-2.25c.31-.84.62-1.93.84-2.76h-1.31v9.69h-1V3.67h2.77ZM181,12.77c0,.34,0,.37.25.37h.65c.23,0,.28-.18.3-1.43a2.81,2.81,0,0,0,1,.44c-.11,1.58-.37,2-1.14,2H181c-.93,0-1.15-.32-1.15-1.36V9.93H178.7c-.16,2.12-.6,3.63-3,4.45a3,3,0,0,0-.61-.88c2-.62,2.36-1.75,2.5-3.57h-1.49v-1H183v1h-2Zm-5-8.19h2.85V3.15l1.38.09c0,.09-.09.17-.27.19V4.58h3V6.93H182v.78h-5.07V6.94H176Zm5.86,2.14V5.56H177V6.72Z"/><path class="cls-1" d="M191.8,3.63l.73.39a.24.24,0,0,1-.1.15c-.28.94-.71,2.19-1.1,3.16a3.73,3.73,0,0,1,1.14,2.48c0,1.85-1.18,1.8-2,1.76a2.63,2.63,0,0,0-.25-.94h.65c.35,0,.61-.16.61-.93a3.46,3.46,0,0,0-1.1-2.25c.31-.84.62-1.93.84-2.76h-1.31v9.69h-1V3.67h2.77Zm5.65,9.14c0,.34,0,.37.25.37h.65c.23,0,.28-.18.3-1.43a2.81,2.81,0,0,0,1,.44c-.11,1.58-.37,2-1.14,2h-.95c-.93,0-1.15-.32-1.15-1.36V9.93h-1.19c-.15,2.12-.6,3.63-3,4.45a3.24,3.24,0,0,0-.61-.88c1.95-.62,2.36-1.75,2.49-3.57h-1.48v-1h6.85v1h-2ZM192.5,4.58h2.85V3.15l1.38.09c0,.09-.09.17-.28.19V4.58h3V6.93h-1v.78h-5.07V6.94h-.91Zm5.86,2.14V5.56H193.5V6.72Z"/><path class="cls-1" d="M211,9.94l1,.76a.37.37,0,0,1-.31.06,21.19,21.19,0,0,1-2.33,1.35,8,8,0,0,0,3.21,1.29,3.85,3.85,0,0,0-.72,1,7.44,7.44,0,0,1-5.53-4.48h-1.61v2.94l2.9-.43,0,.93c-1.84.34-3.78.66-5,.87a.25.25,0,0,1-.18.19L202,13.25l1.55-.21V9.94h-2.09v-1h2.1V3.61h7.59v.95h-6.44v.85h6.08v.9h-6.08v.85h6.08v.9h-6.08v.86h7.64v1Zm-3.51,0a5.88,5.88,0,0,0,1.13,1.54,18,18,0,0,0,2.32-1.54Z"/><path class="cls-1" d="M228.66,7.2h-4.21a13.2,13.2,0,0,0,4.64,4.9,5.16,5.16,0,0,0-.86,1A14.42,14.42,0,0,1,224,8.43v6h-1.21V8.5a13.15,13.15,0,0,1-4.26,4.64,6.82,6.82,0,0,0-.85-1,12.46,12.46,0,0,0,4.61-5H218.1V6.07h4.66V3.15l1.5.1c0,.11-.08.17-.29.2V6.07h4.69Z"/><path class="cls-1" d="M234,6.79v.92c.41.41,1.57,1.72,1.84,2.05l-.7,1A15.67,15.67,0,0,0,234,9.08v5.3h-1.11V8.92a11.89,11.89,0,0,1-1.75,3.31,5.38,5.38,0,0,0-.59-1.08,12,12,0,0,0,2.2-4.36h-1.88V5.71h2V3.15l1.38.08c0,.1-.08.16-.27.2V5.71h1.74V6.79Zm8-1.1V6.78h-1.29V12.9c0,1.26-.43,1.5-2.85,1.48a5.5,5.5,0,0,0-.41-1.2c.48,0,.94,0,1.3,0,.78,0,.81,0,.81-.3V6.78H236V5.69h3.48V3.17l1.44.07c0,.11-.08.17-.29.2V5.69Zm-4.79,2.19a11.05,11.05,0,0,1,1.55,2.84l-1,.53a11.14,11.14,0,0,0-1.47-2.93Z"/><path class="cls-1" d="M245.25,10.42c0,.12-.13.15-.25.13a10.52,10.52,0,0,1-.76,2.87,6.1,6.1,0,0,0-.81-.4,10.54,10.54,0,0,0,.68-2.86ZM253,12.75a14.64,14.64,0,0,0-1-1.34l.87-.48a15.86,15.86,0,0,1,2,2.9l-.93.57a7.87,7.87,0,0,0-.39-.75c-1.89.13-3.82.25-5,.32a.21.21,0,0,1-.21.17l-.3-1.21,1.1,0a22.27,22.27,0,0,0,.86-2.58h-1.66V9.63l-.73.34a4.49,4.49,0,0,0-.21-.66l-.87.06v5h-1v-5l-1.58.07a.23.23,0,0,1-.2.17l-.24-1.18h.84c.23-.28.47-.6.7-.94a10.46,10.46,0,0,0-1.47-1.7l.57-.75.32.3a18.11,18.11,0,0,0,1-2.24l1.15.48c0,.08-.14.11-.29.11A17.25,17.25,0,0,1,245,6a5.19,5.19,0,0,1,.55.66c.47-.73.9-1.49,1.23-2.12l1.11.51a.37.37,0,0,1-.31.11,30.61,30.61,0,0,1-2.28,3.29l1.63,0c-.18-.36-.37-.72-.56-1l.83-.35a12.2,12.2,0,0,1,1.15,2.28h6.2v1h-3.35l-.09,0a24.25,24.25,0,0,1-.91,2.53Zm-5.37-2.64a13,13,0,0,1,.78,2.26l-.9.31a12.49,12.49,0,0,0-.73-2.29Zm4.5-6.87a.26.26,0,0,1-.18.17A14,14,0,0,0,255,6.88a5.83,5.83,0,0,0-.68,1,16,16,0,0,1-3-3.59,13.53,13.53,0,0,1-3,3.68,4.15,4.15,0,0,0-.61-.93,12.56,12.56,0,0,0,3-3.91Zm-2.75,4.81v-1h4v1Z"/><path class="cls-1" d="M267.42,11.29h-4.23a6.19,6.19,0,0,0,4.39,2.12,4.38,4.38,0,0,0-.69,1c-2.35-.4-3.92-1.35-4.85-3-.66,1.18-2,2.25-4.73,3a4.29,4.29,0,0,0-.69-.91c2.3-.59,3.51-1.36,4.14-2.2h-4v-1h4.5a4.09,4.09,0,0,0,.15-.85h-3.15V8.53h3.18V7.74h-3.53V7H257V4.53h4.45V3.14l1.44.09c0,.1-.08.16-.28.2v1.1h4.51V7h-.82v.74H262.6v.79H266v.93h-3.38a6,6,0,0,1-.12.85h5ZM258.14,6.8h3.31v-1l1.43.08c0,.1-.09.17-.28.2V6.8H266V5.54h-7.82Z"/><rect class="cls-2" width="284.77" height="18.05"/></g></g></svg>