<svg xmlns="http://www.w3.org/2000/svg" viewBox="0 0 284.77 18.05"><defs><style>.cls-1{fill:#231815;}.cls-2{fill:none;}</style></defs><title>name</title><g id="レイヤー_2" data-name="レイヤー 2"><g id="レイヤー_1-2" data-name="レイヤー 1"><path class="cls-1" d="M20.61,12.26a10.51,10.51,0,0,0,6.5-4.69,7.69,7.69,0,0,0,.87.85c-1.58,2.63-4.32,4.32-7.89,5.24a.33.33,0,0,1-.21.26l-.69-1.12.17-.25V3.89L21,4c0,.13-.12.24-.36.28Z"/><path class="cls-1" d="M31.09,6.93A18.61,18.61,0,0,1,34.24,8l-.52,1.05a17.85,17.85,0,0,0-3.14-1.14Zm.52,5.74c3.76-1.23,6.47-3.25,8.08-6.82a10.21,10.21,0,0,0,1,.77,13.26,13.26,0,0,1-8,7,.28.28,0,0,1-.16.31ZM32.48,4a21.36,21.36,0,0,1,3.14,1.17l-.56,1A17.68,17.68,0,0,0,32,4.93ZM38,3.57a10.11,10.11,0,0,1,1.48,1.72l-.61.44A10.45,10.45,0,0,0,37.44,4Zm1.75-.69a9.86,9.86,0,0,1,1.48,1.69L40.63,5a10.7,10.7,0,0,0-1.42-1.69Z"/><path class="cls-1" d="M43.41,8h10V9.17H43.89a.47.47,0,0,1-.38.22Z"/><path class="cls-1" d="M66.42,7.74H62.16c-.22,2.93-1,4.82-3.62,6.33a8.14,8.14,0,0,0-1-.82c2.43-1.34,3.16-2.9,3.39-5.51H56.37V6.58H61c0-.91,0-1.95,0-3.13l1.59.1c0,.14-.12.23-.33.25,0,1,0,1.94,0,2.78h4.18Z"/><path class="cls-1" d="M78.67,5.89a.51.51,0,0,1-.21.2c-1.31,3.9-3.23,6.33-6.51,8a4.45,4.45,0,0,0-.88-.92,10.63,10.63,0,0,0,5.85-6.64H73a12.36,12.36,0,0,1-2.62,2.86,5.87,5.87,0,0,0-1-.77,12.09,12.09,0,0,0,3.8-5.14l1.53.38c0,.12-.2.18-.36.18-.22.48-.47.93-.71,1.37h3.81l.18-.07Z"/><path class="cls-1" d="M83.86,10.18V4.33l1.54.08c0,.11-.12.21-.33.23v5.54Zm6.91-6.35c0,.12-.11.2-.31.22V7.83a6.08,6.08,0,0,1-4.26,6.23,6.32,6.32,0,0,0-.9-.89c3.24-1.22,3.92-3.24,3.92-5.34V3.74Z"/><path class="cls-1" d="M105,11.59v1.16H95.07V11.59Zm-1.18-6.41V6.34H96.32V5.18Z"/><path class="cls-1" d="M109.89,6.69a15,15,0,0,1,.87,2.57l-.93.26A11.93,11.93,0,0,0,109,7ZM117,6.9a.28.28,0,0,1-.27.13c-1,3.51-2.77,5.64-5.59,6.77a5.59,5.59,0,0,0-.65-.76c2.7-1,4.43-3,5.27-6.54Zm-4.17-.74a15.23,15.23,0,0,1,.56,2.68l-1,.2a16.12,16.12,0,0,0-.57-2.67Z"/><path class="cls-1" d="M130.27,5.89a.51.51,0,0,1-.21.2c-1.31,3.9-3.23,6.33-6.51,8a4.45,4.45,0,0,0-.88-.92,10.63,10.63,0,0,0,5.85-6.64h-3.88A12.36,12.36,0,0,1,122,9.38a5.87,5.87,0,0,0-1-.77,12.09,12.09,0,0,0,3.8-5.14l1.53.38c0,.12-.2.18-.36.18-.22.48-.47.93-.71,1.37h3.81l.18-.07Z"/><path class="cls-1" d="M144.46,10.22h-.74c0,.66-.05,1.2-.09,1.65h.76v1h-.86c-.18,1.46-.67,1.56-1.71,1.56h-.75a2,2,0,0,0-.23-.81c.47,0,.89,0,1.11,0,.37,0,.46-.21.56-.77h-3.65l-.08.48-1.05-.07c.13-.81.27-1.89.41-3h-.75V9.77l-.57.78c-.17-.39-.52-1.06-.84-1.64v5.47h-1V9.19a11.49,11.49,0,0,1-1.32,3,5.87,5.87,0,0,0-.53-1,12.88,12.88,0,0,0,1.76-4.36h-1.5V5.73h1.59V3.15l1.32.08c0,.09-.08.15-.27.19V5.73h1.32v.93a10.13,10.13,0,0,0,1.62-3.55l1.28.37c0,.08-.13.14-.28.13a9.84,9.84,0,0,1-.36,1h4.8v1h-5.22c-.16.33-.33.65-.51,1h4.64l.56,0c0,.06-.06,2.13-.07,2.54h.7Zm-7.07-1.07h.85c.09-.79.16-1.57.21-2.29a7.25,7.25,0,0,1-.64.85,9.12,9.12,0,0,0-.74-.79l.12-.13H136v.77c.32.43,1.16,1.69,1.41,2.11Zm2.91,2.72c0-.49.09-1,.14-1.65h-1.27c-.07.57-.13,1.14-.19,1.65Zm.21-2.72c0-.54.06-1.09.07-1.59h-1.16l-.14,1.59Zm.76,2.72h1.34c0-.44.06-1,.1-1.65H141.4Zm.28-4.31c0,.51-.06,1-.08,1.59h1.27c0-.48,0-1,0-1.59Z"/><path class="cls-1" d="M146.72,4h10.05v10.3h-1.19v-.75h-7.72v.75h-1.14Zm4.35,1.11h-3.21v3h3.21Zm-3.21,4.18v3.11h3.21V9.27Zm7.72-1.14v-3h-3.36v3Zm-3.36,4.25h3.36V9.27h-3.36Z"/><path class="cls-1" d="M169,10.72h-2.91a11.42,11.42,0,0,0,4.2,2.53,4.55,4.55,0,0,0-.82,1,12.6,12.6,0,0,1-4.28-3v3.14H164V11.29a12.33,12.33,0,0,1-4.21,2.92,5.48,5.48,0,0,0-.78-1,11.33,11.33,0,0,0,4.12-2.54h-2.76V6.19H164V5.3H159.3v-1H164V3.15l1.48.1c0,.1-.1.17-.29.2v.8h4.78v1h-4.78v.89H169Zm-7.52-3.66V8H164v-1Zm0,1.8v1H164v-1Zm6.37-1.8h-2.66V8h2.66Zm0,2.79v-1h-2.66v1Z"/><path class="cls-1" d="M175.31,3.63,176,4a.24.24,0,0,1-.1.15c-.28.94-.71,2.19-1.09,3.16A3.76,3.76,0,0,1,176,9.81c0,1.85-1.18,1.8-2,1.76a2.64,2.64,0,0,0-.26-.94h.65c.35,0,.61-.16.61-.93a3.42,3.42,0,0,0-1.1-2.25c.31-.84.62-1.93.84-2.76h-1.31v9.69h-1V3.67h2.77ZM181,12.77c0,.34,0,.37.25.37h.65c.23,0,.28-.18.3-1.43a2.81,2.81,0,0,0,1,.44c-.11,1.58-.37,2-1.14,2H181c-.93,0-1.15-.32-1.15-1.36V9.93H178.7c-.16,2.12-.6,3.63-3,4.45a3,3,0,0,0-.61-.88c2-.62,2.36-1.75,2.5-3.57h-1.49v-1H183v1h-2Zm-5-8.19h2.85V3.15l1.38.09c0,.09-.09.17-.27.19V4.58h3V6.93H182v.78h-5.07V6.94H176Zm5.86,2.14V5.56H177V6.72Z"/><path class="cls-1" d="M191.8,3.63l.73.39a.24.24,0,0,1-.1.15c-.28.94-.71,2.19-1.1,3.16a3.73,3.73,0,0,1,1.14,2.48c0,1.85-1.18,1.8-2,1.76a2.63,2.63,0,0,0-.25-.94h.65c.35,0,.61-.16.61-.93a3.46,3.46,0,0,0-1.1-2.25c.31-.84.62-1.93.84-2.76h-1.31v9.69h-1V3.67h2.77Zm5.65,9.14c0,.34,0,.37.25.37h.65c.23,0,.28-.18.3-1.43a2.81,2.81,0,0,0,1,.44c-.11,1.58-.37,2-1.14,2h-.95c-.93,0-1.15-.32-1.15-1.36V9.93h-1.19c-.15,2.12-.6,3.63-3,4.45a3.24,3.24,0,0,0-.61-.88c1.95-.62,2.36-1.75,2.49-3.57h-1.48v-1h6.85v1h-2ZM192.5,4.58h2.85V3.15l1.38.09c0,.09-.09.17-.28.19V4.58h3V6.93h-1v.78h-5.07V6.94h-.91Zm5.86,2.14V5.56H193.5V6.72Z"/><path class="cls-1" d="M211,9.94l1,.76a.37.37,0,0,1-.31.06,21.19,21.19,0,0,1-2.33,1.35,8.11,8.11,0,0,0,3.21,1.29,3.85,3.85,0,0,0-.72,1,7.44,7.44,0,0,1-5.53-4.48h-1.61v2.94l2.9-.43,0,.93c-1.84.34-3.78.66-5,.87a.25.25,0,0,1-.18.19L202,13.25l1.55-.21V9.94h-2.09v-1h2.1V3.61h7.59v.95h-6.44v.85h6.08v.9h-6.08v.85h6.08v.9h-6.08v.86h7.64v1Zm-3.51,0a5.88,5.88,0,0,0,1.13,1.54,18,18,0,0,0,2.32-1.54Z"/><path class="cls-1" d="M221.13,6.44a.26.26,0,0,1-.29.16,14.37,14.37,0,0,1-2.09,5.12,5.55,5.55,0,0,0-1.09-.6,11.9,11.9,0,0,0,2-5Zm1.67-3.12,1.53.09c0,.1-.08.18-.3.21v9.26c0,1.27-.45,1.52-3.1,1.5a6.06,6.06,0,0,0-.46-1.19c.53,0,1.08,0,1.47,0,.75,0,.86,0,.86-.34Zm5.14,8.61a20.34,20.34,0,0,0-2.22-5.48L226.83,6a20.61,20.61,0,0,1,2.35,5.41Z"/><path class="cls-1" d="M231.25,6.5a9.8,9.8,0,0,1,2.24,1.19l-.66,1a9.69,9.69,0,0,0-2.21-1.3Zm-.27,7a33.6,33.6,0,0,0,2.16-3.91l.87.72a38.76,38.76,0,0,1-1.91,3.64.3.3,0,0,1,.07.19.27.27,0,0,1-.06.17Zm.94-10.25a9.27,9.27,0,0,1,2.19,1.26l-.66.92a8.73,8.73,0,0,0-2.15-1.35Zm4.23,9c0,.68.13.81,1,.81H240c.71,0,.83-.3.93-1.57a3.66,3.66,0,0,0,1,.42c-.17,1.65-.52,2.19-1.88,2.19h-3c-1.54,0-2-.39-2-1.86V8.8l-1,.43-.46-1,1.47-.62V4.46l1.37.09c0,.09-.09.15-.28.19V7.15l1.36-.58V3.15l1.32.09c0,.09-.1.15-.28.18v2.7l1.63-.7.3-.21.9.33a.55.55,0,0,1-.15.16c0,2.2,0,3.86-.14,4.39-.12.9-.61,1.1-2,1.1a3.29,3.29,0,0,0-.25-1.07c.3,0,.69,0,.84,0s.3-.06.37-.34.08-1.35.1-3.18l-1.6.69v4.29h-1V7.77l-1.36.58Z"/><path class="cls-1" d="M254.75,10.9h-4.64c.87,1.39,2.47,2.17,4.77,2.46a4.1,4.1,0,0,0-.71,1.06,6.6,6.6,0,0,1-4.95-3c-.62,1.21-2,2.27-5,3a5.12,5.12,0,0,0-.69-.94c2.94-.62,4.18-1.53,4.68-2.56h-4.59V9.85H245V6.91h3.53V5.77l1.45.08c0,.1-.09.18-.28.21v.85h3.75V9.85h1.31Zm-8.32-4.48V5.29h-2.62v-1h2.62V3.15l1.4.09c0,.09-.09.17-.28.2v.82h3.22V3.15l1.41.09c0,.11-.08.17-.27.2v.82h2.66v1h-2.66V6.42h-1.14V5.29h-3.22V6.42Zm-.35,3.43h2.41q0-.31,0-.63V7.9h-2.44Zm6.21-1.95h-2.6V9.23c0,.21,0,.41,0,.62h2.63Z"/><path class="cls-1" d="M261,11.18h-3v1.09h-1.05V3.86H261ZM260,4.91h-2V7h2Zm-2,5.22h2V8h-2Zm9.34-6.47V13c0,1.25-.59,1.38-2.72,1.38a4.23,4.23,0,0,0-.4-1.11c.37,0,.73,0,1,0,.91,0,.95,0,.95-.3V10.53h-3.28a6.26,6.26,0,0,1-2.3,4,4,4,0,0,0-.85-.78C261.82,12.16,262,9.87,262,8V3.66ZM263.14,8a12.88,12.88,0,0,1-.07,1.49h3.13V7.6h-3.06Zm3.06-3.3h-3.06V6.57h3.06Z"/><rect class="cls-2" width="284.77" height="18.05"/></g></g></svg>