<svg xmlns="http://www.w3.org/2000/svg" viewBox="0 0 284.77 18.05"><defs><style>.cls-1{fill:#231815;}.cls-2{fill:none;}</style></defs><title>name_10</title><g id="レイヤー_2" data-name="レイヤー 2"><g id="レイヤー_1-2" data-name="レイヤー 1"><path class="cls-1" d="M20.61,12.26a10.51,10.51,0,0,0,6.5-4.69,7.69,7.69,0,0,0,.87.85c-1.58,2.63-4.32,4.32-7.89,5.24a.33.33,0,0,1-.21.26l-.69-1.12.17-.26V3.89L21,4c0,.13-.12.24-.36.28Z"/><path class="cls-1" d="M31.09,6.93A18.61,18.61,0,0,1,34.24,8l-.52,1.05a17.85,17.85,0,0,0-3.14-1.14Zm.52,5.73c3.76-1.22,6.47-3.25,8.08-6.81a10.21,10.21,0,0,0,1,.77,13.26,13.26,0,0,1-8,7,.28.28,0,0,1-.16.31ZM32.48,4a20.26,20.26,0,0,1,3.14,1.18l-.56,1A17.68,17.68,0,0,0,32,4.93ZM38,3.57a10.11,10.11,0,0,1,1.48,1.72l-.61.44A10.45,10.45,0,0,0,37.44,4Zm1.75-.69a9.86,9.86,0,0,1,1.48,1.69L40.63,5a10.7,10.7,0,0,0-1.42-1.69Z"/><path class="cls-1" d="M43.41,8h10V9.17H43.89a.5.5,0,0,1-.38.22Z"/><path class="cls-1" d="M66.42,7.74H62.16c-.22,2.93-1,4.82-3.62,6.33a8.14,8.14,0,0,0-1-.82c2.43-1.34,3.16-2.9,3.39-5.51H56.37V6.58H61c0-.91,0-1.95,0-3.13l1.59.1c0,.14-.12.23-.33.25,0,1,0,1.94,0,2.78h4.18Z"/><path class="cls-1" d="M78.67,5.89c0,.08-.14.15-.21.2-1.31,3.9-3.23,6.34-6.51,8a4.45,4.45,0,0,0-.88-.92,10.63,10.63,0,0,0,5.85-6.64H73a12.57,12.57,0,0,1-2.62,2.86,5.87,5.87,0,0,0-1-.77,12.09,12.09,0,0,0,3.8-5.14l1.53.38c0,.12-.2.18-.36.18-.22.48-.47.94-.71,1.37h3.81l.18-.08Z"/><path class="cls-1" d="M83.86,10.18V4.33l1.54.08c0,.11-.12.21-.33.23v5.54Zm6.91-6.35c0,.12-.11.2-.31.22V7.83a6.08,6.08,0,0,1-4.26,6.23,6.32,6.32,0,0,0-.9-.89c3.24-1.22,3.92-3.24,3.92-5.34V3.74Z"/><path class="cls-1" d="M105,11.59v1.16H95.07V11.59Zm-1.18-6.41V6.34H96.32V5.18Z"/><path class="cls-1" d="M109.89,6.69a15,15,0,0,1,.87,2.57l-.93.26A11.93,11.93,0,0,0,109,7ZM117,6.9a.28.28,0,0,1-.27.13c-1,3.51-2.77,5.63-5.59,6.77a5.59,5.59,0,0,0-.65-.76c2.7-1,4.43-3,5.27-6.54Zm-4.17-.74a15.23,15.23,0,0,1,.56,2.68l-1,.2a16.12,16.12,0,0,0-.57-2.67Z"/><path class="cls-1" d="M130.27,5.89c0,.08-.14.15-.21.2-1.31,3.9-3.23,6.34-6.51,8a4.45,4.45,0,0,0-.88-.92,10.63,10.63,0,0,0,5.85-6.64h-3.88A12.57,12.57,0,0,1,122,9.38a5.87,5.87,0,0,0-1-.77,12.09,12.09,0,0,0,3.8-5.14l1.53.38c0,.12-.2.18-.36.18-.22.48-.47.94-.71,1.37h3.81l.18-.08Z"/><path class="cls-1" d="M133,11.83a9.37,9.37,0,0,0,1.32-4.33l1.1.22a11,11,0,0,1-1.36,4.73Zm3.41-5.26,1.46.09c0,.09-.08.16-.29.2v5.66c0,.58.12.67.75.67h2c.67,0,.78-.42.87-2.42a3.4,3.4,0,0,0,1.06.49c-.15,2.29-.47,3-1.85,3H138.2c-1.41,0-1.8-.39-1.8-1.72Zm4.18-.31a17.93,17.93,0,0,0-4.11-2.18l.73-.88a18.5,18.5,0,0,1,4.13,2.07Zm2.89,5.81a13.35,13.35,0,0,0-2.14-4.49l1-.52a13,13,0,0,1,2.25,4.45Z"/><path class="cls-1" d="M154.77,5.19l.34.15c0,.08-.15.12-.33.11A7.18,7.18,0,0,1,152.92,7a20.56,20.56,0,0,0,4.47.91,5.81,5.81,0,0,0-.68,1,17.33,17.33,0,0,1-5.05-1.32A19.07,19.07,0,0,1,148,8.76l1.23.07c0,.09-.08.15-.26.18V10.1a4.86,4.86,0,0,1-1.9,4.29,3.47,3.47,0,0,0-.78-.8,3.92,3.92,0,0,0,1.61-3.52V8.77c-.41.08-.83.15-1.24.21A6.35,6.35,0,0,0,146,8a21,21,0,0,0,4.43-1,9.14,9.14,0,0,1-2-1.63l.46-.22h-2.53v-1H151V3.15l1.53.09c0,.11-.09.18-.3.2V4.2h4.82v1Zm-4,6.7c0,.07-.11.12-.26.12a5.47,5.47,0,0,1-1.39,1.84,4.67,4.67,0,0,0-.7-.51,4.31,4.31,0,0,0,1.28-1.77Zm3.3-.64h-2V13.3c0,.79-.25,1-1.79,1a3.54,3.54,0,0,0-.36-.88h.65c.49,0,.55,0,.55-.15v-2h-1.87v-.8h4.78Zm-4.71-2.31h4.67v.77h-4.67Zm.23-3.75a7.81,7.81,0,0,0,2,1.33,6.24,6.24,0,0,0,1.86-1.33Zm4,8.65a8.49,8.49,0,0,0-1.13-1.92c.72-.32.77-.33.81-.36a8.58,8.58,0,0,1,1.16,1.85Zm.85.55V8.78l1.38.08c0,.1-.09.17-.27.2v5.33Z"/><path class="cls-1" d="M161.71,7.59c.34.48,1.18,1.8,1.37,2.11l-.58.82a16.54,16.54,0,0,0-.79-1.62v5.48h-1.05V9.27a11.32,11.32,0,0,1-1.26,2.88,4.83,4.83,0,0,0-.54-1,13.28,13.28,0,0,0,1.72-4.36h-1.44V5.73h1.52V3.15l1.31.08c0,.09-.08.15-.26.19V5.73H163V6.79h-1.24ZM168.23,6a6,6,0,0,0,2.15,1.7,3.65,3.65,0,0,0-.7.81,5.53,5.53,0,0,1-1.15-.84V9h-4V7.7a7,7,0,0,1-1.2.86,2.37,2.37,0,0,0-.69-.75A6,6,0,0,0,164.74,6H163.1V5.15h2.16a4.91,4.91,0,0,0,.25-.66c-.66,0-1.33.06-2,.07a2.48,2.48,0,0,0-.24-.76,34.83,34.83,0,0,0,5.42-.51l.79.75s-.13.06-.26,0a23.3,23.3,0,0,1-2.47.32h0c0,.11-.09.17-.25.18l-.2.57h3.7V6Zm1.67,7.24c0,.49-.1.76-.46.93a4.35,4.35,0,0,1-1.62.16,3.74,3.74,0,0,0-.33-.94c.5,0,1,0,1.15,0s.19,0,.19-.19V10.37h-4.57v4h-1V9.5h6.67Zm-4.06,0v.53H165V11h3.09v2.29Zm.08-7.2a7.57,7.57,0,0,1-.44.66h2.14a5.91,5.91,0,0,1-.45-.66Zm1.6,1.37h-2V8.3h2Zm-1.68,4.22v.93h1.41v-.93Z"/><path class="cls-1" d="M175.31,3.63,176,4a.24.24,0,0,1-.1.15c-.28.94-.71,2.19-1.09,3.16A3.76,3.76,0,0,1,176,9.81c0,1.85-1.18,1.8-2,1.76a2.64,2.64,0,0,0-.26-.94h.65c.35,0,.61-.16.61-.93a3.42,3.42,0,0,0-1.1-2.25c.31-.84.62-1.93.84-2.76h-1.31v9.69h-1V3.67h2.77ZM181,12.77c0,.34,0,.38.25.38h.65c.23,0,.28-.19.3-1.44a2.81,2.81,0,0,0,1,.44c-.11,1.58-.37,2-1.14,2H181c-.93,0-1.15-.32-1.15-1.37V9.93H178.7c-.16,2.12-.6,3.63-3,4.45a3,3,0,0,0-.61-.88c2-.62,2.36-1.75,2.5-3.57h-1.49v-1H183v1h-2Zm-5-8.19h2.85V3.15l1.38.09c0,.09-.09.17-.27.19V4.58h3V6.93H182v.78h-5.07V6.94H176Zm5.86,2.14V5.57H177V6.72Z"/><path class="cls-1" d="M191.8,3.63l.73.39a.24.24,0,0,1-.1.15c-.28.94-.71,2.19-1.1,3.16a3.73,3.73,0,0,1,1.14,2.48c0,1.85-1.18,1.8-2,1.76a2.63,2.63,0,0,0-.25-.94h.65c.35,0,.61-.16.61-.93a3.46,3.46,0,0,0-1.1-2.25c.31-.84.62-1.93.84-2.76h-1.31v9.69h-1V3.67h2.77Zm5.65,9.14c0,.34,0,.38.25.38h.65c.23,0,.28-.19.3-1.44a2.81,2.81,0,0,0,1,.44c-.11,1.58-.37,2-1.14,2h-.95c-.93,0-1.15-.32-1.15-1.37V9.93h-1.19c-.15,2.12-.6,3.63-3,4.45a3.24,3.24,0,0,0-.61-.88c1.95-.62,2.36-1.75,2.49-3.57h-1.48v-1h6.85v1h-2ZM192.5,4.58h2.85V3.15l1.38.09c0,.09-.09.17-.28.19V4.58h3V6.93h-1v.78h-5.07V6.94h-.91Zm5.86,2.14V5.57H193.5V6.72Z"/><path class="cls-1" d="M211,9.94l1,.76a.37.37,0,0,1-.31.06,21.19,21.19,0,0,1-2.33,1.35,8,8,0,0,0,3.21,1.29,3.85,3.85,0,0,0-.72,1,7.44,7.44,0,0,1-5.53-4.48h-1.61v2.94l2.9-.43,0,.93c-1.84.34-3.78.66-5,.87a.25.25,0,0,1-.18.19L202,13.25l1.55-.21V9.94h-2.09v-1h2.1V3.61h7.59v.95h-6.44v.85h6.08v.9h-6.08v.85h6.08v.9h-6.08v.86h7.64v1Zm-3.51,0a5.88,5.88,0,0,0,1.13,1.54,18,18,0,0,0,2.32-1.54Z"/><path class="cls-1" d="M223.89,4.25h4.82v1H218.06v-1h4.66V3.14l1.44.09c0,.1-.08.16-.27.19ZM228.23,9v4.07c0,1.15-.54,1.26-2.56,1.26a3.59,3.59,0,0,0-.36-1.06h-3.26v.6h-1V10.67h4.63v2.64h.72c.58,0,.68,0,.68-.22V10h-7.38v4.4H218.6V9Zm-8.14-3.22h6.57V8.38h-6.57Zm5.43,1.77v-1h-4.34v1Zm-.85,4.93v-1h-2.62v1Z"/><path class="cls-1" d="M233.38,7.59c.35.48,1.19,1.8,1.38,2.11l-.59.82a14.52,14.52,0,0,0-.79-1.62v5.48h-1V9.27a11.32,11.32,0,0,1-1.26,2.88,5.36,5.36,0,0,0-.54-1,13.07,13.07,0,0,0,1.71-4.36h-1.44V5.73h1.53V3.15l1.31.08c0,.09-.09.15-.27.19V5.73h1.25V6.79h-1.25ZM239.91,6a6,6,0,0,0,2.14,1.7,3.61,3.61,0,0,0-.69.81,5.28,5.28,0,0,1-1.15-.84V9h-4V7.7a7.36,7.36,0,0,1-1.2.86,2.52,2.52,0,0,0-.7-.75A6,6,0,0,0,236.42,6h-1.65V5.15h2.16a3.85,3.85,0,0,0,.25-.66c-.66,0-1.33.06-2,.07A2.79,2.79,0,0,0,235,3.8a35,35,0,0,0,5.42-.51l.79.75s-.13.06-.26,0a23.66,23.66,0,0,1-2.47.32h0c0,.11-.1.17-.25.18l-.2.57h3.7V6Zm1.66,7.24c0,.49-.09.76-.45.93a4.38,4.38,0,0,1-1.62.16,3.77,3.77,0,0,0-.34-.94c.51,0,1,0,1.15,0s.2,0,.2-.19V10.37h-4.57v4h-1V9.5h6.67Zm-4,0v.53h-.84V11h3.08v2.29Zm.07-7.2a5.74,5.74,0,0,1-.43.66h2.13a5.82,5.82,0,0,1-.44-.66Zm1.61,1.37h-2V8.3h2Zm-1.68,4.22v.93h1.4v-.93Z"/><path class="cls-1" d="M249.77,13.05h4.85v1H243.75v-1h4.86V11.49h-4V10.43h4V9.19h-3.68V3.61h8.66V9.19h-3.82v1.24H254v1.06h-4.2Zm-3.72-8.42V5.91h2.56V4.63Zm0,3.54h2.56V6.86h-2.56Zm6.35-2.26V4.63h-2.63V5.91Zm0,2.26V6.86h-2.63V8.17Z"/><path class="cls-1" d="M259.49,8.25c.36.32,1.45,1.48,1.69,1.78l-.66.88a14.16,14.16,0,0,0-1-1.53v5h-1.1V9.44a12.12,12.12,0,0,1-1.45,2.91,5.6,5.6,0,0,0-.55-1.06,12.67,12.67,0,0,0,1.78-3.59h-1.63V6.63h1.85V4.94c-.53.15-1.08.28-1.59.4a3.5,3.5,0,0,0-.35-.83,15.9,15.9,0,0,0,3.82-1.36l1,.83a.35.35,0,0,1-.28.05,9.91,9.91,0,0,1-1.45.58v2h1.56V7.7h-1.56Zm5.29,4.85h2.92v1h-6.94v-1h2.9V11.74h-2.25v-1h2.25V9.55h-2.54v-1h6.27v1h-2.61v1.22h2.29v1h-2.29ZM267,3.68v4h-5.44v-4Zm-1.11,3.06V4.65H262.6V6.74Z"/><rect class="cls-2" width="284.77" height="18.05"/></g></g></svg>