<svg xmlns="http://www.w3.org/2000/svg" viewBox="0 0 284.77 18.05"><defs><style>.cls-1{fill:#231815;}.cls-2{fill:none;}</style></defs><title>name_3</title><g id="レイヤー_2" data-name="レイヤー 2"><g id="レイヤー_1-2" data-name="レイヤー 1"><path class="cls-1" d="M20.61,12.26a10.51,10.51,0,0,0,6.5-4.69,7.69,7.69,0,0,0,.87.85c-1.58,2.63-4.32,4.32-7.89,5.24a.33.33,0,0,1-.21.26l-.69-1.12.17-.26V3.89L21,4c0,.13-.12.24-.36.28Z"/><path class="cls-1" d="M31.09,6.93A18.61,18.61,0,0,1,34.24,8l-.52,1.05a17.85,17.85,0,0,0-3.14-1.14Zm.52,5.74c3.76-1.23,6.47-3.25,8.08-6.82a10.21,10.21,0,0,0,1,.77,13.26,13.26,0,0,1-8,7,.28.28,0,0,1-.16.31ZM32.48,4a21.36,21.36,0,0,1,3.14,1.17l-.56,1A17.68,17.68,0,0,0,32,4.93ZM38,3.57a10.11,10.11,0,0,1,1.48,1.72l-.61.44A10.45,10.45,0,0,0,37.44,4Zm1.75-.69a9.86,9.86,0,0,1,1.48,1.69L40.63,5a10.7,10.7,0,0,0-1.42-1.69Z"/><path class="cls-1" d="M43.41,8h10V9.17H43.89a.5.5,0,0,1-.38.22Z"/><path class="cls-1" d="M66.42,7.74H62.16c-.22,2.93-1,4.82-3.62,6.33a8.14,8.14,0,0,0-1-.82c2.43-1.34,3.16-2.9,3.39-5.51H56.37V6.58H61c0-.91,0-1.95,0-3.13l1.59.1c0,.14-.12.23-.33.25,0,1,0,1.94,0,2.78h4.18Z"/><path class="cls-1" d="M78.67,5.89c0,.08-.14.15-.21.2-1.31,3.9-3.23,6.34-6.51,8a4.45,4.45,0,0,0-.88-.92,10.63,10.63,0,0,0,5.85-6.64H73a12.36,12.36,0,0,1-2.62,2.86,5.87,5.87,0,0,0-1-.77,12.09,12.09,0,0,0,3.8-5.14l1.53.38c0,.12-.2.18-.36.18-.22.48-.47.94-.71,1.37h3.81l.18-.07Z"/><path class="cls-1" d="M83.86,10.18V4.33l1.54.08c0,.11-.12.21-.33.23v5.54Zm6.91-6.35c0,.12-.11.2-.31.22V7.83a6.08,6.08,0,0,1-4.26,6.23,6.32,6.32,0,0,0-.9-.89c3.24-1.22,3.92-3.24,3.92-5.34V3.74Z"/><path class="cls-1" d="M105,11.59v1.16H95.07V11.59Zm-1.18-6.41V6.34H96.32V5.18Z"/><path class="cls-1" d="M109.89,6.69a15,15,0,0,1,.87,2.57l-.93.26A11.93,11.93,0,0,0,109,7ZM117,6.9a.28.28,0,0,1-.27.13c-1,3.51-2.77,5.64-5.59,6.77a5.59,5.59,0,0,0-.65-.76c2.7-1,4.43-3,5.27-6.54Zm-4.17-.74a15.23,15.23,0,0,1,.56,2.68l-1,.2a16.12,16.12,0,0,0-.57-2.67Z"/><path class="cls-1" d="M130.27,5.89c0,.08-.14.15-.21.2-1.31,3.9-3.23,6.34-6.51,8a4.45,4.45,0,0,0-.88-.92,10.63,10.63,0,0,0,5.85-6.64h-3.88A12.36,12.36,0,0,1,122,9.38a5.87,5.87,0,0,0-1-.77,12.09,12.09,0,0,0,3.8-5.14l1.53.38c0,.12-.2.18-.36.18-.22.48-.47.94-.71,1.37h3.81l.18-.07Z"/><path class="cls-1" d="M139.8,9a7.61,7.61,0,0,0,.92,1.85,16,16,0,0,0,2.15-1.57l1.07.81a.36.36,0,0,1-.32.06,21.2,21.2,0,0,1-2.32,1.43,6.46,6.46,0,0,0,3.21,1.84,4.48,4.48,0,0,0-.75,1,7.36,7.36,0,0,1-5-5.16A11.25,11.25,0,0,1,137,10.52l.25.05c0,.08-.11.16-.28.19v2.1l3.15-.46.06,1c-1.82.32-3.77.66-5,.85a.27.27,0,0,1-.18.19l-.48-1.22,1.31-.17V11.13a14.59,14.59,0,0,1-1.91.73,6.34,6.34,0,0,0-.73-.93A14.54,14.54,0,0,0,137.48,9H133.3V8h4.9V7.06h-3.55V6.12h3.55v-.9H134v-1h4.21V3.15l1.42.08c0,.1-.08.16-.28.2v.82h4.35v1h-4.35v.9h3.75v.94h-3.75V8h4.95V9Z"/><path class="cls-1" d="M157.18,8H154.3a8.37,8.37,0,0,0,3.14,2.17,4.65,4.65,0,0,0-.76.9A9.79,9.79,0,0,1,153,8h-2.6a9.48,9.48,0,0,1-1.56,1.72A10.74,10.74,0,0,0,152,8.54L153,9c0,.06-.12.09-.25.09a13.31,13.31,0,0,1-3.49,1.4,4.53,4.53,0,0,0-.57-.62,9.25,9.25,0,0,1-2,1.3,5.94,5.94,0,0,0-.76-.83A8.37,8.37,0,0,0,149.06,8h-2.81v-1h3.5a8.39,8.39,0,0,0,.49-.94l-3,.08a.24.24,0,0,1-.21.18l-.42-1.19,2.13,0a14.88,14.88,0,0,0,1.24-2l1.35.44c0,.08-.15.12-.3.12a16.13,16.13,0,0,1-1,1.43l4.12-.08c-.4-.33-.82-.65-1.2-.91l.9-.54a16.74,16.74,0,0,1,3,2.53c-.4.28-.68.43-1,.6a9.27,9.27,0,0,0-.78-.83c-1.16.06-2.35.11-3.49.15l.11,0a.29.29,0,0,1-.3.15,7.71,7.71,0,0,1-.39.82h6.16Zm-1.27,3.67a.28.28,0,0,1-.29.12c-1.48,1.41-4.18,2.21-7.26,2.61a3.71,3.71,0,0,0-.53-.95c2.88-.27,5.56-1,6.88-2.25Zm-1.65-1.34a.27.27,0,0,1-.26.11,14.18,14.18,0,0,1-4.81,1.91,3.56,3.56,0,0,0-.61-.82,12.26,12.26,0,0,0,4.59-1.66Z"/><path class="cls-1" d="M161.79,7.9v3.87c.84,1.31,2.48,1.31,4.36,1.31,1.37,0,3,0,4.13-.12a5.73,5.73,0,0,0-.37,1.17c-.83,0-2,.06-3.17.06-2.72,0-4.27,0-5.45-1.44-.57.5-1.16,1-1.64,1.38a.2.2,0,0,1-.14.23l-.6-1.26a19.49,19.49,0,0,0,1.76-1.26V9H159.1V7.9ZM160,3.44a9.75,9.75,0,0,1,2.1,1.87l-.9.75a9.29,9.29,0,0,0-2-1.93Zm3.26,3.14h1.92c.07-.27.13-.57.19-.86h-3.11V4.79h2a6.85,6.85,0,0,0-.77-1.24l.88-.38a5,5,0,0,1,.92,1.45l-.37.17H167l-.24-.1a8.29,8.29,0,0,0,.83-1.55l1.32.37c0,.1-.14.14-.3.14a9.44,9.44,0,0,1-.84,1.14H170v.93h-3.45c-.09.26-.2.58-.32.86H169V12.5h-1.13v-.34h-3.5v.34h-1.08Zm4.58,1.62V7.45h-3.5V8.2Zm-3.5.77v.78h3.5V9Zm0,2.34h3.5v-.78h-3.5Z"/><path class="cls-1" d="M175.31,3.63,176,4a.24.24,0,0,1-.1.15c-.28.94-.71,2.19-1.09,3.16A3.76,3.76,0,0,1,176,9.81c0,1.85-1.18,1.8-2,1.76a2.64,2.64,0,0,0-.26-.94h.65c.35,0,.61-.16.61-.93a3.42,3.42,0,0,0-1.1-2.25c.31-.84.62-1.93.84-2.76h-1.31v9.69h-1V3.67h2.77ZM181,12.77c0,.34,0,.37.25.37h.65c.23,0,.28-.18.3-1.43a2.81,2.81,0,0,0,1,.44c-.11,1.58-.37,2-1.14,2H181c-.93,0-1.15-.32-1.15-1.36V9.93H178.7c-.16,2.12-.6,3.63-3,4.45a3,3,0,0,0-.61-.88c2-.62,2.36-1.75,2.5-3.57h-1.49v-1H183v1h-2Zm-5-8.19h2.85V3.15l1.38.09c0,.09-.09.17-.27.19V4.58h3V6.93H182v.78h-5.07V6.94H176Zm5.86,2.14V5.56H177V6.72Z"/><path class="cls-1" d="M191.8,3.63l.73.39a.24.24,0,0,1-.1.15c-.28.94-.71,2.19-1.1,3.16a3.73,3.73,0,0,1,1.14,2.48c0,1.85-1.18,1.8-2,1.76a2.63,2.63,0,0,0-.25-.94h.65c.35,0,.61-.16.61-.93a3.46,3.46,0,0,0-1.1-2.25c.31-.84.62-1.93.84-2.76h-1.31v9.69h-1V3.67h2.77Zm5.65,9.14c0,.34,0,.37.25.37h.65c.23,0,.28-.18.3-1.43a2.81,2.81,0,0,0,1,.44c-.11,1.58-.37,2-1.14,2h-.95c-.93,0-1.15-.32-1.15-1.36V9.93h-1.19c-.15,2.12-.6,3.63-3,4.45a3.24,3.24,0,0,0-.61-.88c1.95-.62,2.36-1.75,2.49-3.57h-1.48v-1h6.85v1h-2ZM192.5,4.58h2.85V3.15l1.38.09c0,.09-.09.17-.28.19V4.58h3V6.93h-1v.78h-5.07V6.94h-.91Zm5.86,2.14V5.56H193.5V6.72Z"/><path class="cls-1" d="M211,9.94l1,.76a.37.37,0,0,1-.31.06,21.19,21.19,0,0,1-2.33,1.35,8,8,0,0,0,3.21,1.29,3.85,3.85,0,0,0-.72,1,7.44,7.44,0,0,1-5.53-4.48h-1.61v2.94l2.9-.43,0,.93c-1.84.34-3.78.66-5,.87a.25.25,0,0,1-.18.19L202,13.25l1.55-.21V9.94h-2.09v-1h2.1V3.61h7.59v.95h-6.44v.85h6.08v.9h-6.08v.85h6.08v.9h-6.08v.86h7.64v1Zm-3.51,0a5.88,5.88,0,0,0,1.13,1.54,18,18,0,0,0,2.32-1.54Z"/><path class="cls-1" d="M228.88,5h-3.72V6.58h3.15v7.76h-1.16v-.69h-7.5v.72h-1.1V6.58h2.81V5h-3.45V3.89h11Zm-9.23,7.6h7.5v-2a1,1,0,0,1-.79.28h-1.12c-1,0-1.23-.32-1.23-1.34V7.64h-1.54v.19a4.35,4.35,0,0,1-1.82,3.76,4.2,4.2,0,0,0-.84-.72,3.49,3.49,0,0,0,1.61-3.23h-1.77Zm4.38-6V5h-1.56V6.58Zm2.2,3.28c.24,0,.28-.11.32-.8a2.4,2.4,0,0,0,.6.29V7.64H225.1V9.53c0,.29.05.33.31.33Z"/><path class="cls-1" d="M234,6.79v.92c.41.41,1.57,1.72,1.84,2.05l-.7,1A15.67,15.67,0,0,0,234,9.08v5.3h-1.11V8.92a11.89,11.89,0,0,1-1.75,3.31,5.38,5.38,0,0,0-.59-1.08,12,12,0,0,0,2.2-4.36h-1.88V5.71h2V3.15l1.38.08c0,.1-.08.16-.27.2V5.71h1.74V6.79Zm8-1.1V6.78h-1.29V12.9c0,1.26-.43,1.5-2.85,1.48a5.5,5.5,0,0,0-.41-1.2c.48,0,.94,0,1.3,0,.78,0,.81,0,.81-.3V6.78H236V5.69h3.48V3.17l1.44.07c0,.11-.08.17-.29.2V5.69Zm-4.79,2.19a11.05,11.05,0,0,1,1.55,2.84l-1,.53a11.14,11.14,0,0,0-1.47-2.93Z"/><path class="cls-1" d="M253.67,10.85h-8.22a8.3,8.3,0,0,1-1,3.55,4.49,4.49,0,0,0-.88-.68,8.61,8.61,0,0,0,1-4.53V7.32h4.18v-1l1.23.08c0,.09-.08.15-.26.18v.72h4.93v.79h-3.49l-.16.05v.56h2.76Zm-4.75-7.3v.77H244V3.55ZM248.49,7h-.89V5.46h-2.15V7h-.85V4.79h3.89Zm-1,5.41v.83L250,13v.77c-1.54.17-3.13.34-4.13.42a.21.21,0,0,1-.18.17l-.3-1,1.12-.07v-2.4l1.33.09c0,.09-.08.15-.27.19v.47h2.27v.74Zm-.35-2.94h-1.62q0,.31,0,.66h1.65Zm0-1.35h-1.62v.61h1.62Zm-.57-1.06a4.77,4.77,0,0,0-.84-1l.6-.42a4.93,4.93,0,0,1,.88,1Zm3.29,1.67V8.11h-1.54a.86.86,0,0,1-.15.05v.56Zm-1.69.74v.66h1.69V9.46Zm6.27-5.91v.77h-5V3.55ZM253.9,7H253V5.46h-2.2V7h-.87V4.79h4Zm-2.51,6c0,.32.08.36.52.36h1.45c.36,0,.43-.13.48-1a3,3,0,0,0,.88.33c-.09,1.16-.38,1.46-1.24,1.46h-1.71c-1.16,0-1.43-.26-1.43-1.18V10.91l1.31.09c0,.09-.07.15-.26.19v.71a16.35,16.35,0,0,0,2.23-.72l.76.62a.17.17,0,0,1-.12,0h-.13a22,22,0,0,1-2.74.73Zm1.22-3.56h-1.7v.66h1.7ZM252,7a4.61,4.61,0,0,0-.89-1l.6-.42a4.45,4.45,0,0,1,.92,1Z"/><path class="cls-1" d="M267.41,5.69h-3.25a8.54,8.54,0,0,0,3.64,2.79,4.92,4.92,0,0,0-.8,1,8.71,8.71,0,0,1-2.41-1.67V8.6h-5V7.77a10.85,10.85,0,0,1-2.48,1.75,3.37,3.37,0,0,0-.82-.9,9,9,0,0,0,3.6-2.93h-3.12v-1h3.74a8.23,8.23,0,0,0,.58-1.51l1.5.18a.3.3,0,0,1-.32.21,10.47,10.47,0,0,1-.45,1.12h5.6Zm-7.19,6.08a.26.26,0,0,1-.28.1,8.64,8.64,0,0,1-2.29,2.22,8,8,0,0,0-.84-.67,6.7,6.7,0,0,0,2.17-2.1Zm6.22-1h-3.79v2.47c0,1.05-.54,1.12-2.44,1.12a3.93,3.93,0,0,0-.39-1l1,0c.63,0,.67,0,.67-.2V10.81h-3.79v-1h8.72Zm-2-3.19a10.65,10.65,0,0,1-1.5-1.93h-1.66a10.36,10.36,0,0,1-1.53,1.93Zm1.63,6.51a15,15,0,0,0-2.21-2.28l.92-.52a17.12,17.12,0,0,1,2.27,2.2Z"/><rect class="cls-2" width="284.77" height="18.05"/></g></g></svg>