<svg xmlns="http://www.w3.org/2000/svg" viewBox="0 0 284.77 18.05"><defs><style>.cls-1{fill:#231815;}.cls-2{fill:none;}</style></defs><title>name_1</title><g id="レイヤー_2" data-name="レイヤー 2"><g id="レイヤー_1-2" data-name="レイヤー 1"><path class="cls-1" d="M20.61,12.26a10.51,10.51,0,0,0,6.5-4.69,7.69,7.69,0,0,0,.87.85c-1.58,2.63-4.32,4.32-7.89,5.24a.33.33,0,0,1-.21.26l-.69-1.12.17-.26V3.89L21,4c0,.13-.12.24-.36.28Z"/><path class="cls-1" d="M31.09,6.93A18.61,18.61,0,0,1,34.24,8l-.52,1.05a17.85,17.85,0,0,0-3.14-1.14Zm.52,5.74c3.76-1.23,6.47-3.25,8.08-6.82a10.21,10.21,0,0,0,1,.77,13.26,13.26,0,0,1-8,7,.28.28,0,0,1-.16.31ZM32.48,4a21.36,21.36,0,0,1,3.14,1.17l-.56,1A17.68,17.68,0,0,0,32,4.93ZM38,3.57a10.11,10.11,0,0,1,1.48,1.72l-.61.44A10.45,10.45,0,0,0,37.44,4Zm1.75-.69a9.86,9.86,0,0,1,1.48,1.69L40.63,5a10.7,10.7,0,0,0-1.42-1.69Z"/><path class="cls-1" d="M43.41,8h10V9.17H43.89a.5.5,0,0,1-.38.22Z"/><path class="cls-1" d="M66.42,7.74H62.16c-.22,2.93-1,4.82-3.62,6.33a8.14,8.14,0,0,0-1-.82c2.43-1.34,3.16-2.9,3.39-5.51H56.37V6.58H61c0-.91,0-1.95,0-3.13l1.59.1c0,.14-.12.23-.33.25,0,1,0,1.94,0,2.78h4.18Z"/><path class="cls-1" d="M78.67,5.89c0,.08-.14.15-.21.2-1.31,3.9-3.23,6.34-6.51,8a4.45,4.45,0,0,0-.88-.92,10.63,10.63,0,0,0,5.85-6.64H73a12.36,12.36,0,0,1-2.62,2.86,5.87,5.87,0,0,0-1-.77,12.09,12.09,0,0,0,3.8-5.14l1.53.38c0,.12-.2.18-.36.18-.22.48-.47.94-.71,1.37h3.81l.18-.07Z"/><path class="cls-1" d="M83.86,10.18V4.33l1.54.08c0,.11-.12.21-.33.23v5.54Zm6.91-6.35c0,.12-.11.2-.31.22V7.83a6.08,6.08,0,0,1-4.26,6.23,6.32,6.32,0,0,0-.9-.89c3.24-1.22,3.92-3.24,3.92-5.34V3.74Z"/><path class="cls-1" d="M105,11.59v1.16H95.07V11.59Zm-1.18-6.41V6.34H96.32V5.18Z"/><path class="cls-1" d="M109.89,6.69a15,15,0,0,1,.87,2.57l-.93.26A11.93,11.93,0,0,0,109,7ZM117,6.9a.28.28,0,0,1-.27.13c-1,3.51-2.77,5.64-5.59,6.77a5.59,5.59,0,0,0-.65-.76c2.7-1,4.43-3,5.27-6.54Zm-4.17-.74a15.23,15.23,0,0,1,.56,2.68l-1,.2a16.12,16.12,0,0,0-.57-2.67Z"/><path class="cls-1" d="M130.27,5.89c0,.08-.14.15-.21.2-1.31,3.9-3.23,6.34-6.51,8a4.45,4.45,0,0,0-.88-.92,10.63,10.63,0,0,0,5.85-6.64h-3.88A12.36,12.36,0,0,1,122,9.38a5.87,5.87,0,0,0-1-.77,12.09,12.09,0,0,0,3.8-5.14l1.53.38c0,.12-.2.18-.36.18-.22.48-.47.94-.71,1.37h3.81l.18-.07Z"/><path class="cls-1" d="M133.77,6.5A9.59,9.59,0,0,1,136,7.69l-.66,1a9.39,9.39,0,0,0-2.2-1.3Zm-.26,7a35.15,35.15,0,0,0,2.16-3.91l.86.72a36.54,36.54,0,0,1-1.91,3.64.3.3,0,0,1,.07.19.27.27,0,0,1-.06.17Zm.93-10.25a9.15,9.15,0,0,1,2.2,1.26l-.66.92a8.8,8.8,0,0,0-2.16-1.35Zm4.24,9c0,.68.13.81,1,.81h2.84c.71,0,.83-.29.94-1.57a3.43,3.43,0,0,0,1,.42c-.17,1.65-.53,2.19-1.89,2.19h-3c-1.55,0-2-.39-2-1.86V8.8l-1,.43-.47-1,1.47-.62V4.46l1.37.09c0,.09-.08.15-.27.19V7.15L140,6.57V3.15l1.32.09c0,.09-.09.15-.28.18v2.7l1.64-.7.3-.21.9.33a.8.8,0,0,1-.16.16c0,2.2,0,3.86-.13,4.39-.12.9-.61,1.1-2,1.1a3.29,3.29,0,0,0-.25-1.07c.3,0,.7,0,.84,0s.3-.06.37-.34a29.66,29.66,0,0,0,.1-3.18l-1.6.69v4.29h-1V7.77l-1.35.58Z"/><path class="cls-1" d="M147.89,8.86V6.42a10.77,10.77,0,0,1-1.1,1,7.79,7.79,0,0,0-.74-.79A9.75,9.75,0,0,0,149,3.15l1.25.44c0,.09-.14.13-.29.13A15.39,15.39,0,0,1,149,5.16l.3.06c0,.09-.09.17-.27.19V8.86Zm5,1.41a5.23,5.23,0,0,0,.91,1.3,16.18,16.18,0,0,0,2-1.21l1,.79a.26.26,0,0,1-.2.08.25.25,0,0,1-.12,0c-.49.29-1.28.71-2,1a6.9,6.9,0,0,0,2.81,1.15,3.85,3.85,0,0,0-.69,1,6.54,6.54,0,0,1-4.92-4.12h0a9.66,9.66,0,0,1-1.6,1.06l.2,0c0,.11-.08.18-.27.2v1.52l2.63-.2v.91c-1.64.17-3.37.33-4.47.42a.22.22,0,0,1-.19.18l-.36-1.15,1.3-.08v-1.3a12.5,12.5,0,0,1-2.16.67,4.05,4.05,0,0,0-.66-.85,13.1,13.1,0,0,0,4-1.41h-3.9v-1h4.86V8.06l1.42.08c0,.11-.08.17-.28.21v.92h4.91v1Zm-3.12-5,2.29-.2a9.36,9.36,0,0,1-.32-1.94l1.46.05c0,.11-.1.18-.29.19A6.87,6.87,0,0,0,153.15,5L157,4.63l.15.93-3.62.34c.57,1.16,1.44,2,2.31,2,.34,0,.45-.3.51-1.18a2.45,2.45,0,0,0,.89.49c-.16,1.44-.56,1.78-1.46,1.78-1.49,0-2.71-1.18-3.43-2.93l-2.46.23Zm4.66-2.11a10.77,10.77,0,0,1,2.09.77l-.53.73a10.51,10.51,0,0,0-2-.83Z"/><path class="cls-1" d="M162.41,3.63l.73.39a.24.24,0,0,1-.1.15c-.28.94-.71,2.19-1.09,3.16a3.76,3.76,0,0,1,1.13,2.48c0,1.85-1.18,1.8-2,1.76a2.64,2.64,0,0,0-.26-.94h.65c.35,0,.61-.16.61-.93A3.42,3.42,0,0,0,161,7.46c.31-.84.62-1.93.84-2.76h-1.31v9.69h-1V3.67h2.78Zm5.65,9.14c0,.34,0,.37.25.37H169c.23,0,.28-.18.3-1.43a2.81,2.81,0,0,0,1,.44c-.11,1.58-.37,2-1.14,2h-1c-.93,0-1.15-.32-1.15-1.36V9.93H165.8c-.16,2.12-.6,3.63-3,4.45a3.24,3.24,0,0,0-.61-.88c2-.62,2.36-1.75,2.5-3.57h-1.49v-1h6.85v1h-2Zm-4.95-8.19H166V3.15l1.38.09c0,.09-.09.17-.27.19V4.58h3V6.93h-.95v.78H164V6.94h-.91ZM169,6.72V5.56h-4.85V6.72Z"/><path class="cls-1" d="M178.9,3.63l.73.39a.22.22,0,0,1-.11.15c-.27.94-.7,2.19-1.09,3.16a3.73,3.73,0,0,1,1.14,2.48c0,1.85-1.18,1.8-2,1.76a2.63,2.63,0,0,0-.25-.94h.65c.35,0,.61-.16.61-.93a3.46,3.46,0,0,0-1.1-2.25c.31-.84.62-1.93.84-2.76H177v9.69h-1V3.67h2.77Zm5.65,9.14c0,.34,0,.37.25.37h.65c.23,0,.28-.18.3-1.43a2.81,2.81,0,0,0,1,.44c-.11,1.58-.37,2-1.14,2h-.95c-.93,0-1.15-.32-1.15-1.36V9.93h-1.19c-.15,2.12-.6,3.63-3,4.45a3.24,3.24,0,0,0-.61-.88c1.95-.62,2.36-1.75,2.49-3.57h-1.48v-1h6.84v1h-2Zm-5-8.19h2.85V3.15l1.38.09c0,.09-.1.17-.28.19V4.58h3V6.93h-.95v.78h-5.07V6.94h-.91Zm5.86,2.14V5.56H180.6V6.72Z"/><path class="cls-1" d="M198.07,9.94l1,.76a.37.37,0,0,1-.31.06,21.19,21.19,0,0,1-2.33,1.35,8,8,0,0,0,3.2,1.29,4.05,4.05,0,0,0-.71,1,7.44,7.44,0,0,1-5.53-4.48h-1.61v2.94l2.9-.43,0,.93c-1.84.34-3.78.66-5,.87a.25.25,0,0,1-.18.19l-.45-1.19,1.55-.21V9.94h-2.09v-1h2.1V3.61h7.59v.95h-6.44v.85h6.08v.9h-6.08v.85h6.08v.9h-6.08v.86h7.64v1Zm-3.51,0a5.88,5.88,0,0,0,1.13,1.54A18,18,0,0,0,198,9.94Z"/><path class="cls-1" d="M215.76,7.2h-4.21a13.2,13.2,0,0,0,4.64,4.9,5.16,5.16,0,0,0-.86,1,14.42,14.42,0,0,1-4.26-4.67v6h-1.21V8.5a13.15,13.15,0,0,1-4.26,4.64,6.82,6.82,0,0,0-.85-1,12.39,12.39,0,0,0,4.61-5h-4.17V6.07h4.67V3.15l1.5.1c0,.11-.08.17-.29.2V6.07h4.69Z"/><path class="cls-1" d="M221.06,6.79v.92c.41.41,1.57,1.72,1.84,2.05l-.7,1a15.67,15.67,0,0,0-1.14-1.64v5.3H220V8.92a11.89,11.89,0,0,1-1.75,3.31,5.38,5.38,0,0,0-.59-1.08,12,12,0,0,0,2.2-4.36h-1.88V5.71h2V3.15l1.38.08c0,.1-.08.16-.27.2V5.71h1.74V6.79Zm8-1.1V6.78h-1.29V12.9c0,1.26-.43,1.5-2.85,1.48a5.5,5.5,0,0,0-.41-1.2c.48,0,.94,0,1.3,0,.78,0,.81,0,.81-.3V6.78h-3.48V5.69h3.48V3.17l1.44.07c0,.11-.08.17-.29.2V5.69Zm-4.79,2.19a11.05,11.05,0,0,1,1.55,2.84l-1,.53a11.14,11.14,0,0,0-1.47-2.93Z"/><path class="cls-1" d="M240.31,13.2a23.86,23.86,0,0,1-3.64.26,13.1,13.1,0,0,1-2.41-.16,2.41,2.41,0,0,1-2.14-2.37,3.81,3.81,0,0,1,1.17-2.55l1,.48a2.87,2.87,0,0,0-1,1.89,1.5,1.5,0,0,0,1.36,1.44,10.7,10.7,0,0,0,1.83.13,19.59,19.59,0,0,0,3.7-.34Zm-5.63-6.14a14.35,14.35,0,0,1,1.81-1.22h0a35.77,35.77,0,0,1-3.8.13c0-.3,0-.89,0-1.16,1.14,0,3.61,0,4.69-.1a18.27,18.27,0,0,0,2.21-.27l.11,1.23a9.42,9.42,0,0,0-4,2Z"/><path class="cls-1" d="M250.05,5.69a.34.34,0,0,1-.33.19c-.46,3.93-1.69,6.72-3.7,6.72-1.17,0-2.1-1.06-2.1-3a5.29,5.29,0,0,1,5.44-5.3c3.45,0,5.07,2.1,5.07,4.57,0,2.84-1.55,4.26-4.51,5a7.44,7.44,0,0,0-.76-1c2.75-.54,4-1.86,4-3.94s-1.29-3.48-3.8-3.48l-.49,0Zm-1.54-.21a4.1,4.1,0,0,0-3.43,4c0,1.14.42,1.89,1,1.89C247.35,11.42,248.26,8.53,248.51,5.48Z"/><path class="cls-1" d="M266.65,6.67a.35.35,0,0,1-.36.23c-.13.74-.32,1.62-.52,2.36.58.25,1.26.56,1.88.87l-.52,1.16c-.6-.32-1.17-.6-1.72-.87a6.88,6.88,0,0,1-2.57,3.66,5.11,5.11,0,0,0-1-.68,6.07,6.07,0,0,0,2.44-3.47,11,11,0,0,0-2.75-.79c-.8,2.75-1.5,3.71-3.1,3.71-1.29,0-1.82-.93-1.82-2,0-1.88,2-2.81,4-2.81a24.87,24.87,0,0,0,.57-3l-3.18.24a.55.55,0,0,1-.28.18l-.12-1.3c1.16,0,3.33-.18,4-.24a.53.53,0,0,0,.29-.14l1,.53a.69.69,0,0,1-.3.2c-.2,1.19-.5,2.64-.75,3.65a11.63,11.63,0,0,1,2.8.73,18.78,18.78,0,0,0,.49-2.5ZM260.39,9c-1.51,0-2.67.69-2.67,1.78,0,.57.27,1,.74,1C259.3,11.79,259.76,11.3,260.39,9Z"/><rect class="cls-2" width="284.77" height="18.05"/></g></g></svg>