<?xml version="1.0" encoding="utf-8"?>
<!-- Generator: Adobe Illustrator 22.0.1, SVG Export Plug-In . SVG Version: 6.00 Build 0)  -->
<svg version="1.1" id="レイヤー_1" xmlns="http://www.w3.org/2000/svg" xmlns:xlink="http://www.w3.org/1999/xlink" x="0px"
	 y="0px" viewBox="0 0 673.5 105.2" style="enable-background:new 0 0 673.5 105.2;" xml:space="preserve">
<style type="text/css">
	.st0{fill:url(#SVGID_1_);}
	.st1{fill:#FFFFFF;}
	.st2{opacity:0.2;}
	.st3{fill:#10103A;}
</style>
<title>cvn-btn</title>
<linearGradient id="SVGID_1_" gradientUnits="userSpaceOnUse" x1="669.9883" y1="156.6211" x2="-250.0117" y2="-130.3789" gradientTransform="matrix(1 0 0 -1 0 105.2756)">
	<stop  offset="0" style="stop-color:#2A9DFF"/>
	<stop  offset="1" style="stop-color:#0080FF"/>
</linearGradient>
<path class="st0" d="M52.6,1.1h568.2c28.5,0,51.6,23.1,51.6,51.6v0c0,28.5-23.1,51.6-51.6,51.6H52.6C24.1,104.2,1,81.1,1,52.6v0
	C1,24.1,24.1,1.1,52.6,1.1z"/>
<path class="st1" d="M623,2.1c26.7,0,48.4,21.7,48.4,48.4v4.2c0,26.7-21.7,48.4-48.4,48.4H50.5c-26.7,0-48.4-21.7-48.4-48.4v-4.2
	c0-26.7,21.7-48.4,48.4-48.4H623 M623,0H50.5C22.6,0.1,0.1,22.6,0,50.5v4.2c0.1,27.9,22.6,50.4,50.5,50.5H623
	c27.9-0.1,50.4-22.6,50.5-50.5v-4.2C673.4,22.6,650.9,0.1,623,0z"/>
<g class="st2">
	<path class="st1" d="M9.5,28.4c0-14.5,19.9-26.3,44.2-26.3h566.1c24.3,0,44.2,11.8,44.2,26.3s-19.9,26.3-44.2,26.3H53.7
		C29.4,54.7,9.5,42.9,9.5,28.4z"/>
</g>
<g>
	<path class="st3" d="M62.8,71.8c1.7-2.3,3-4.8,3.9-7.5l5.7,1.7c-0.8,2.9-2,5.8-3.5,8.4L62.8,71.8z M64.5,64.1v-5.2h3.3v-4.5h-4.6
		v-5.2h4.7v-2.1c-0.6,0.5-1.2,1-1.9,1.4l-3-5c3-1.5,5.7-3.8,7.7-6.5l6.4,0.9c-0.4,0.6-0.9,1.2-1.4,1.9h23v5.3h-3v4.1h4.4v5.2h-4.4
		v4.5H99v5.2H64.5z M75.6,45.1h-2.3v4.1h2.3V45.1z M75.6,54.4h-2.3v4.5h2.3V54.4z M75.1,74.3c-0.2-2.7-0.6-5.4-1.1-8l5.7-0.9
		c0.8,2.6,1.4,5.2,1.8,7.9L75.1,74.3z M82.9,45.1h-2.5v4.1h2.4L82.9,45.1z M82.9,54.5h-2.5V59h2.4L82.9,54.5z M84.6,74.1
		c-0.5-2.6-1.2-5.2-2-7.8l5.6-1.2c1.1,2.5,2,5.2,2.6,7.9L84.6,74.1z M90.2,45.1h-2.4v4.1h2.4L90.2,45.1z M90.2,54.4h-2.4v4.5h2.4
		L90.2,54.4z M94.6,74.3c-0.9-2.7-2-5.4-3.2-8l5.4-1.8c1.5,2.4,2.7,4.9,3.7,7.6L94.6,74.3z"/>
	<path class="st3" d="M131,74.3V64l-10.3,1.9l-0.6-5.3l-2,4.9c-1.1-1.8-2-3.7-2.7-5.6v14.5h-5.7V61.5c-0.8,2.8-2,5.5-3.6,8l-3.1-6.8
		c2.5-2.3,4.5-5,5.8-8.2h-4.8v-5.6h5.6v-2l-3.8,1.2c-0.6-2.6-1.7-6-2.4-8.2l4.1-1.2c0.7,2.3,1.4,4.9,2,7.5V37h5.7V46
		c0.8-2.5,1.4-4.9,1.9-7.5l4.2,1.2c-0.7,2.8-1.5,5.6-2.5,8.4l-3.7-1.4v2.1h5.2v3l3.6-4.2c1.7,1.4,4.5,3.7,5.9,4.9l-3.5,4.5
		c-1.5-1.5-4.1-3.7-6-5.1v2.5h-4.4c1.3,1.8,2.8,3.3,4.6,4.5l-0.4,1c3.6-0.7,7.1-1.4,10.6-2V43.7l-3.5,4.1c-1.9-1.9-3.9-3.6-6-5.2
		l3.7-4.2c1.7,1.3,4,3.2,5.8,4.9V37h6.1v19.9l2.7-0.5l0.6,5.8l-3.3,0.6v11.5H131z"/>
	<path class="st3" d="M160.5,65.6c1.8,0.3,3.7,0.4,5.5,0.5c1.1,0,3.4-0.1,4-2.8c0.6-3.9,0.8-7.8,0.8-11.7v-1h-7.1
		c-1.3,10.7-5.1,17.2-14.6,22.3l-5.1-4.6c8.8-3.9,12.1-8.7,13.3-17.7h-10.6V45h11c0.1-2,0.1-4,0.1-6.4h6.4c0,2.3-0.1,4.4-0.2,6.4h13
		c0,7.7-0.4,17.2-1.2,20.5c-1.6,6.3-7.1,6.6-10.1,6.6c-1,0-2.1,0-2.9-0.1L160.5,65.6z"/>
	<path class="st3" d="M189.5,67.3c18.1-1.1,21-8.8,21.6-17.6h-17.7V59l-6.3,0.1V44.1h11.8V38h6.7v6.1h12.2v0.2
		c0,15.9-4.6,26.7-24.6,29L189.5,67.3z"/>
	<path class="st3" d="M237.6,53.9c-3.1-3.3-8.8-6.7-11.6-8l4.5-4.9c2.4,1,8.5,4.3,11.5,7.3L237.6,53.9z M227.1,66.5
		C244.3,64,250.9,56.6,254,43l5.8,3.6c-2.3,9.3-7,21.6-28.8,25.9L227.1,66.5z"/>
	<path class="st3" d="M297.4,71.8c-3.3,0.3-6.9,0.5-10.1,0.5c-9.1,0-14.9-0.4-14.9-8.4v-0.1c0-1.8,0-5.3,0-9l-7.3,1.2l-0.9-5.7
		l8.2-1.3c0-4.2,0-8,0-9.5h6.6c0,0.4-0.1,4.1-0.1,8.5l19.7-3.1v0.5c0,7.1-4.3,14.5-10.9,18.8l-5.5-4c4.9-2.2,8-6.5,8.7-8.6l-12,2.1
		c0,3.9,0,7.5,0,9c0,3.2,1.3,3.7,7.8,3.7c3.7,0,7.4-0.3,11.1-0.8L297.4,71.8z"/>
	<path class="st3" d="M310,59.7V39.2h6.5v20.5H310z M311,67.8c14.8-1.1,17.1-8.1,17.2-13.8c0-1.2,0-2.7,0-4.2
		c0-4.6-0.1-9.8-0.1-10.7h6.7c0,0,0,13.5,0,15.1c-0.3,12.6-7.6,17.6-19.8,19.5L311,67.8z"/>
	<path class="st3" d="M358.1,53.9c-3.1-3.3-8.8-6.7-11.6-8L351,41c2.4,1,8.5,4.3,11.5,7.3L358.1,53.9z M347.5,66.5
		c17.2-2.5,23.9-9.9,26.9-23.5l5.8,3.6c-2.3,9.3-7,21.6-28.8,25.9L347.5,66.5z"/>
	<path class="st3" d="M387.2,67.6c16.2-2.1,21.5-9.9,24.3-19h-10.6c-2.7,4.4-6.4,8.1-10.8,10.9l-5.5-4.6c6.8-3.6,11.9-9.7,14.3-17.1
		l6.5,1.4c-0.4,1.3-1,2.6-1.5,3.8c2.4,0,5.4,0,7.9,0c0.3,0.8,0.6,1.7,0.8,2.5l6.2-1.3c-1.7,11.4-6.8,25.2-26.7,29.2L387.2,67.6z
		 M413.6,44.3c-0.7-2.3-1.6-4.5-2.8-6.5l3.3-0.6c1.2,2,2.1,4.2,2.9,6.4L413.6,44.3z M418.4,43.4c-0.8-2.2-1.8-4.3-2.9-6.3l3.3-0.5
		c1.2,1.9,2.2,3.9,3,6L418.4,43.4z"/>
	<path class="st3" d="M427.9,72.4c-0.6-3.7-0.8-7.5-0.8-11.3c0-7.3,0.6-14.5,1.9-21.7l6.3,0.7c-1.4,6.6-2.1,13.3-2.1,20
		c0,3.9,0.3,7.8,0.9,11.7L427.9,72.4z M458.2,71.7c-1.4-1.6-3-3.1-4.6-4.5c-0.6,1.9-2.3,5.1-8.5,5.1c-5.8,0-8.9-3.4-8.9-7
		c0-4.1,3.7-7,8.5-7c1.2,0,2.3,0.1,3.5,0.4l-0.1-7.8h-11.6v-5.5H448c-0.1-2.5-0.1-4.7-0.2-6.2l6.2,0.1c0,1.8,0,3.9,0,6.1h6v5.5h-6.1
		c0,3.6,0,7.1,0,9.8c2.6,1.4,5,3.2,7.1,5.3L458.2,71.7z M445.1,63.4c-2.2,0-3.5,0.9-3.5,1.9c0,1.3,1.8,2,3.6,2c2.2,0,3-1.3,3.1-3.2
		C447.3,63.7,446.2,63.5,445.1,63.4L445.1,63.4z"/>
	<path class="st3" d="M497.9,70.7c-4.2,1-8.5,1.5-12.9,1.5c-2.6,0-5.2-0.2-7.8-0.7c-6-1.1-9-4.5-9-8.1c0.1-2.1,1-4.1,2.5-5.5l5.3,2
		c-0.9,0.6-1.4,1.6-1.6,2.7c0,1,0.8,3.5,9.9,3.5c4.5,0,8.9-0.7,13.2-1.9L497.9,70.7z M495.2,48.3c-4.3-0.7-8.6-1-12.9-1
		c-4,0-8,0.2-12,0.8l-0.2-6.1c4.4-0.4,8.7-0.7,13.1-0.7c4.2,0,8.3,0.2,12.4,0.8L495.2,48.3z"/>
	<path class="st3" d="M521.6,48.4c-1,2.2-2.2,4.2-3.5,6.3c2.7-1.1,5.6-1.6,8.5-1.7c4.6,0,12.5,1.4,12.5,8.8c0,2.7-1.1,11-17.8,11
		c-3,0-6-0.2-9-0.5l-1.3-6.4c3.5,0.6,7,0.9,10.6,0.9c9.2,0,11.1-2.7,11.1-4.9c0-1.9-1.5-3.3-6.4-3.3c-4.7,0-9,1.3-12,4l-5.4-2.2
		c2.6-3.7,4.9-7.7,6.7-11.9h-7.9v-5.5h9.5c0.6-1.7,1.1-3.2,1.5-4.6l6.6,0.6c-0.5,1.3-1,2.6-1.6,3.9l13.3-0.1v5.6H521.6z"/>
	<path class="st3" d="M550.5,65.6c3.6,0.6,7.2,1,10.8,1c1.7,0,12.1-0.2,12.1-5.4c0-2.5-2.7-3.6-6-3.6c-5,0-9.8,1.8-13.6,5.1l-5-1.2
		c0.4-4.9,1.2-10,1.8-14.9l6.1,0.6c-0.5,2.6-1.2,5.7-1.5,7.9c3.7-2.1,7.9-3.1,12.2-3.2c6.1,0,12.2,2.8,12.2,9.2
		c0,11.1-14.7,11.4-17.9,11.4c-3.2,0-6.3-0.2-9.4-0.6L550.5,65.6z M571.2,46.8c-5.7-1.3-11.6-1.9-17.5-1.8h-1.4l1.8-5.7
		c0.7,0,1.4,0,2.1,0c5.5,0,11.1,0.5,16.5,1.7L571.2,46.8z"/>
	<polygon class="st3" points="611.8,71.8 609.7,69.7 622.9,56.5 609.7,43.2 611.8,41.1 627.2,56.5 	"/>
</g>
<animateTransform  accumulate="none" additive="replace" attributeName="transform" begin="0s" calcMode="linear" dur="3s" fill="remove" from="-1000 0" repeatCount="indefinite" restart="always" to="2500 0" type="translate" xlink:href="#polyclip">
	</animateTransform>
<g>
	<path class="st1" d="M62.2,69.2c1.7-2.3,3-4.8,3.9-7.5l5.7,1.7c-0.8,2.9-2,5.8-3.5,8.4L62.2,69.2z M63.9,61.6v-5.2h3.3v-4.5h-4.6
		v-5.2h4.7v-2.1c-0.6,0.5-1.2,1-1.9,1.4l-3-5c3-1.5,5.7-3.8,7.7-6.5l6.4,0.9c-0.4,0.6-0.9,1.2-1.4,1.9h23v5.3h-3v4.1h4.4v5.2H95v4.5
		h3.4v5.2L63.9,61.6z M75,42.5h-2.3v4.1H75V42.5z M75,51.9h-2.3v4.5H75V51.9z M74.5,71.7c-0.2-2.7-0.6-5.4-1.1-8l5.7-0.9
		c0.8,2.6,1.4,5.2,1.8,7.9L74.5,71.7z M82.4,42.6h-2.5v4.1h2.4L82.4,42.6z M82.4,51.9h-2.5v4.5h2.4L82.4,51.9z M84,71.5
		c-0.5-2.6-1.2-5.2-2-7.8l5.6-1.2c1.1,2.5,2,5.2,2.6,7.9L84,71.5z M89.7,42.5h-2.4v4.1h2.4L89.7,42.5z M89.7,51.9h-2.4v4.5h2.4
		L89.7,51.9z M94,71.7c-0.9-2.7-2-5.4-3.2-8l5.4-1.8c1.5,2.4,2.7,4.9,3.7,7.6L94,71.7z"/>
	<path class="st1" d="M130.4,71.8V61.4l-10.3,1.9l-0.6-5.3l-2,4.9c-1.1-1.8-2-3.7-2.7-5.6v14.5h-5.7V58.9c-0.8,2.8-2,5.5-3.6,8
		l-3.1-6.8c2.5-2.3,4.5-5,5.8-8.2h-4.8v-5.6h5.6v-2l-3.8,1.2c-0.6-2.6-1.7-6-2.4-8.2l4.1-1.2c0.7,2.3,1.4,4.9,2,7.5v-9.3h5.7v9.1
		c0.8-2.5,1.4-4.9,1.9-7.5l4.2,1.2c-0.7,2.8-1.5,5.6-2.5,8.4l-3.7-1.4v2.1h5.2v3l3.6-4.2c1.7,1.4,4.5,3.7,5.9,4.9l-3.5,4.5
		c-1.5-1.5-4.1-3.7-6-5.1V52h-4.4c1.3,1.8,2.8,3.3,4.6,4.5l-0.4,1c3.6-0.7,7.1-1.4,10.6-2V41.2l-3.5,4.1c-1.9-1.9-3.9-3.6-6-5.2
		l3.7-4.2c1.7,1.3,4,3.2,5.8,4.9v-6.4h6.1v19.9l2.7-0.5l0.6,5.8l-3.3,0.6v11.5H130.4z"/>
	<path class="st1" d="M159.9,63.1c1.8,0.3,3.7,0.4,5.5,0.5c1.1,0,3.4-0.1,4-2.8c0.6-3.9,0.8-7.8,0.8-11.7v-1H163
		c-1.3,10.7-5.1,17.2-14.6,22.3l-5.1-4.6c8.8-3.9,12.1-8.7,13.3-17.7h-10.6v-5.6h11c0.1-2,0.1-4,0.1-6.4h6.4c0,2.3-0.1,4.4-0.2,6.4
		h13c0,7.7-0.4,17.2-1.2,20.5c-1.6,6.3-7.1,6.6-10.1,6.6c-1,0-2.1,0-2.9-0.1L159.9,63.1z"/>
	<path class="st1" d="M188.9,64.7c18.1-1.1,21-8.8,21.6-17.6h-17.7v9.3l-6.3,0.1V41.6h11.8v-6.1h6.7v6.1h12.2v0.2
		c0,15.9-4.6,26.7-24.6,29L188.9,64.7z"/>
	<path class="st1" d="M237.1,51.4c-3.1-3.3-8.8-6.7-11.6-8l4.5-4.9c2.4,1,8.5,4.3,11.5,7.3L237.1,51.4z M226.5,64
		c17.2-2.5,23.9-9.9,26.9-23.5l5.8,3.6c-2.3,9.3-7,21.6-28.8,25.9L226.5,64z"/>
	<path class="st1" d="M296.8,69.3c-3.3,0.3-6.9,0.5-10.1,0.5c-9.1,0-14.9-0.4-14.9-8.4v-0.1c0-1.8,0-5.3,0-9l-7.3,1.2l-0.9-5.7
		l8.2-1.3c0-4.2,0-8,0-9.5h6.6c0,0.4-0.1,4.1-0.1,8.5l19.7-3.1v0.5c0,7.1-4.3,14.5-10.9,18.8l-5.5-4c4.9-2.2,8-6.5,8.7-8.6l-12,2.1
		c0,3.9,0,7.5,0,9c0,3.2,1.3,3.7,7.8,3.7c3.7,0,7.4-0.3,11.1-0.8L296.8,69.3z"/>
	<path class="st1" d="M309.4,57.1V36.6h6.5v20.5H309.4z M310.4,65.2c14.8-1.1,17.1-8.1,17.2-13.8c0-1.2,0-2.7,0-4.2
		c0-4.6-0.1-9.8-0.1-10.7h6.7c0,0,0,13.5,0,15.1c-0.3,12.6-7.6,17.6-19.8,19.5L310.4,65.2z"/>
	<path class="st1" d="M357.5,51.4c-3.1-3.3-8.8-6.7-11.6-8l4.5-4.9c2.4,1,8.5,4.3,11.5,7.3L357.5,51.4z M347,64
		c17.2-2.5,23.9-9.9,26.9-23.5l5.8,3.6c-2.3,9.3-7,21.6-28.8,25.9L347,64z"/>
	<path class="st1" d="M386.6,65.1c16.2-2.1,21.5-9.9,24.3-19h-10.6c-2.7,4.4-6.4,8.1-10.8,10.9l-5.5-4.6c6.8-3.6,11.9-9.7,14.3-17.1
		l6.5,1.4c-0.4,1.3-1,2.6-1.5,3.8c2.4,0,5.4,0,7.9,0c0.3,0.8,0.6,1.7,0.8,2.5l6.2-1.3c-1.7,11.4-6.8,25.2-26.7,29.2L386.6,65.1z
		 M413,41.7c-0.7-2.3-1.6-4.5-2.8-6.5l3.3-0.6c1.2,2,2.1,4.2,2.9,6.4L413,41.7z M417.9,40.8c-0.8-2.2-1.8-4.3-2.9-6.3l3.3-0.5
		c1.2,1.9,2.2,3.9,3,6L417.9,40.8z"/>
	<path class="st1" d="M427.3,69.8c-0.6-3.7-0.8-7.5-0.8-11.3c0-7.3,0.6-14.5,1.9-21.7l6.3,0.7c-1.4,6.6-2.1,13.3-2.1,20
		c0,3.9,0.3,7.8,0.9,11.7L427.3,69.8z M457.6,69.2c-1.4-1.6-3-3.1-4.6-4.5c-0.6,1.9-2.3,5.1-8.5,5.1c-5.8,0-8.9-3.4-8.9-7
		c0-4.1,3.7-7,8.5-7c1.2,0,2.3,0.1,3.5,0.4l-0.1-7.8h-11.6v-5.5h11.5c-0.1-2.5-0.1-4.7-0.2-6.2l6.2,0.1c0,1.8,0,3.9,0,6.1h6v5.5
		h-6.1c0,3.6,0,7.1,0,9.8c2.6,1.4,5,3.2,7.1,5.3L457.6,69.2z M444.5,60.8c-2.2,0-3.5,0.9-3.5,1.9c0,1.3,1.8,2,3.6,2
		c2.2,0,3-1.3,3.1-3.2C446.7,61.1,445.6,60.9,444.5,60.8L444.5,60.8z"/>
	<path class="st1" d="M497.3,68.2c-4.2,1-8.5,1.5-12.9,1.5c-2.6,0-5.2-0.2-7.8-0.7c-6-1.1-9-4.5-9-8.1c0.1-2.1,1-4.1,2.5-5.5l5.3,2
		c-0.9,0.6-1.4,1.6-1.6,2.7c0,1,0.8,3.5,9.9,3.5c4.5,0,8.9-0.7,13.2-1.9L497.3,68.2z M494.6,45.8c-4.3-0.7-8.6-1-12.9-1
		c-4,0-8,0.2-12,0.8l-0.2-6.1c4.4-0.4,8.7-0.7,13.1-0.7c4.2,0,8.3,0.2,12.4,0.8L494.6,45.8z"/>
	<path class="st1" d="M521,45.9c-1,2.2-2.2,4.2-3.5,6.3c2.7-1.1,5.6-1.6,8.5-1.7c4.6,0,12.5,1.4,12.5,8.8c0,2.7-1.1,11-17.8,11
		c-3,0-6-0.2-9-0.5l-1.3-6.4c3.5,0.6,7,0.9,10.6,0.9c9.2,0,11.1-2.7,11.1-4.9c0-1.9-1.5-3.3-6.4-3.3c-4.7,0-9,1.3-12,4l-5.4-2.2
		c2.6-3.7,4.9-7.7,6.7-11.9h-7.9v-5.5h9.5c0.6-1.7,1.1-3.2,1.5-4.6l6.6,0.6c-0.5,1.3-1,2.6-1.6,3.9l13.3-0.1v5.6H521z"/>
	<path class="st1" d="M549.9,63.1c3.6,0.6,7.2,1,10.8,1c1.7,0,12.1-0.2,12.1-5.4c0-2.5-2.7-3.6-6-3.6c-5,0-9.8,1.8-13.6,5.1l-5-1.2
		c0.4-4.9,1.2-10,1.8-14.9l6.1,0.6c-0.5,2.6-1.2,5.7-1.5,7.9c3.7-2.1,7.9-3.1,12.2-3.2c6.1,0,12.2,2.8,12.2,9.2
		c0,11.1-14.7,11.4-17.9,11.4c-3.2,0-6.3-0.2-9.4-0.6L549.9,63.1z M570.6,44.2c-5.7-1.3-11.6-1.9-17.5-1.8h-1.4l1.8-5.7
		c0.7,0,1.4,0,2.1,0c5.5,0,11.1,0.5,16.5,1.7L570.6,44.2z"/>
	<polygon class="st1" points="611.2,69.3 609.1,67.1 622.3,53.9 609.1,40.7 611.2,38.5 626.6,53.9 	"/>
</g>
</svg>
