<svg xmlns="http://www.w3.org/2000/svg" viewBox="0 0 284.77 18.05"><defs><style>.cls-1{fill:#231815;}.cls-2{fill:none;}</style></defs><title>name</title><g id="レイヤー_2" data-name="レイヤー 2"><g id="レイヤー_1-2" data-name="レイヤー 1"><path class="cls-1" d="M20.61,12.26a10.51,10.51,0,0,0,6.5-4.69,7.69,7.69,0,0,0,.87.85c-1.58,2.63-4.32,4.32-7.89,5.24a.33.33,0,0,1-.21.26l-.69-1.12.17-.26V3.89L21,4c0,.13-.12.24-.36.28Z"/><path class="cls-1" d="M31.09,6.93A18.61,18.61,0,0,1,34.24,8l-.52,1.05a17.85,17.85,0,0,0-3.14-1.14Zm.52,5.73c3.76-1.22,6.47-3.25,8.08-6.81a10.21,10.21,0,0,0,1,.77,13.26,13.26,0,0,1-8,7,.28.28,0,0,1-.16.31ZM32.48,4a21.36,21.36,0,0,1,3.14,1.17l-.56,1A17.68,17.68,0,0,0,32,4.93ZM38,3.57a10.11,10.11,0,0,1,1.48,1.72l-.61.44A10.45,10.45,0,0,0,37.44,4Zm1.75-.69a9.86,9.86,0,0,1,1.48,1.69L40.63,5a10.7,10.7,0,0,0-1.42-1.69Z"/><path class="cls-1" d="M43.41,8h10V9.17H43.89a.5.5,0,0,1-.38.22Z"/><path class="cls-1" d="M66.42,7.74H62.16c-.22,2.93-1,4.82-3.62,6.33a8.14,8.14,0,0,0-1-.82c2.43-1.34,3.16-2.9,3.39-5.51H56.37V6.58H61c0-.91,0-1.95,0-3.13l1.59.1c0,.14-.12.23-.33.25,0,1,0,1.94,0,2.78h4.18Z"/><path class="cls-1" d="M78.67,5.89c0,.08-.14.15-.21.2-1.31,3.9-3.23,6.34-6.51,8a4.45,4.45,0,0,0-.88-.92,10.63,10.63,0,0,0,5.85-6.64H73a12.57,12.57,0,0,1-2.62,2.86,5.87,5.87,0,0,0-1-.77,12.09,12.09,0,0,0,3.8-5.14l1.53.38c0,.12-.2.18-.36.18-.22.48-.47.94-.71,1.37h3.81l.18-.08Z"/><path class="cls-1" d="M83.86,10.18V4.33l1.54.08c0,.11-.12.21-.33.23v5.54Zm6.91-6.35c0,.12-.11.2-.31.22V7.83a6.08,6.08,0,0,1-4.26,6.23,6.32,6.32,0,0,0-.9-.89c3.24-1.22,3.92-3.24,3.92-5.34V3.74Z"/><path class="cls-1" d="M105,11.59v1.16H95.07V11.59Zm-1.18-6.41V6.34H96.32V5.18Z"/><path class="cls-1" d="M109.89,6.69a15,15,0,0,1,.87,2.57l-.93.26A11.93,11.93,0,0,0,109,7ZM117,6.9a.28.28,0,0,1-.27.13c-1,3.51-2.77,5.63-5.59,6.77a5.59,5.59,0,0,0-.65-.76c2.7-1,4.43-3,5.27-6.54Zm-4.17-.74a15.23,15.23,0,0,1,.56,2.68l-1,.2a16.12,16.12,0,0,0-.57-2.67Z"/><path class="cls-1" d="M130.27,5.89c0,.08-.14.15-.21.2-1.31,3.9-3.23,6.34-6.51,8a4.45,4.45,0,0,0-.88-.92,10.63,10.63,0,0,0,5.85-6.64h-3.88A12.57,12.57,0,0,1,122,9.38a5.87,5.87,0,0,0-1-.77,12.09,12.09,0,0,0,3.8-5.14l1.53.38c0,.12-.2.18-.36.18-.22.48-.47.94-.71,1.37h3.81l.18-.08Z"/><path class="cls-1" d="M137,3.24c0,.11-.09.17-.27.2v2.3h2V6.82h-2V7.7c.44.46,1.65,1.87,1.93,2.21l-.71,1a15.54,15.54,0,0,0-1.22-1.79v5.29h-1.13V9a11.68,11.68,0,0,1-1.92,3.38,6,6,0,0,0-.62-1.1,11.55,11.55,0,0,0,2.39-4.42h-2.08V5.74h2.23V3.15Zm3.62,9.06c0,.66.08.77.57.77h1.54c.5,0,.58-.51.67-2.46a3,3,0,0,0,1.08.52c-.13,2.23-.42,3-1.66,3H141c-1.21,0-1.57-.41-1.57-1.9V3.2l1.45.1c0,.09-.08.17-.28.19Z"/><path class="cls-1" d="M150.52,5.42v5.27c0,.84-.28,1.06-1.2,1.06a2.72,2.72,0,0,0-.29-1h.56c.08,0,.1,0,.1-.13V6.44h-.78v7.94h-1V6.44h-.73v5.43h-.85V5.42h1.58V3.15l1.24.09c0,.09-.09.15-.27.18v2ZM155.44,13c0,.3,0,.37.29.37h.42c.43,0,.45,0,.49-1.27a2.54,2.54,0,0,0,.81.44c-.06,1.19-.08,1.76-1.26,1.76h-.75c-1.09,0-1.09-.74-1.09-1.36V11h-1a3.41,3.41,0,0,1-2.79,3.43,3.26,3.26,0,0,0-.58-.86A2.59,2.59,0,0,0,152.32,11h-1.61V10h2.68V7.52l1.36.07c0,.11-.09.17-.27.21V10h2.83v1h-1.87Zm1.44-9.59V7.52h-5.77V3.41ZM152,9.86a8.41,8.41,0,0,0-.79-1.78l.87-.31a7.93,7.93,0,0,1,.86,1.73Zm3.86-4.8v-.8h-3.69v.8Zm0,1.61V5.85h-3.69v.82ZM157,8.19a.27.27,0,0,1-.27.1,17.85,17.85,0,0,1-1,1.59l-.8-.35a10.14,10.14,0,0,0,.93-1.79Z"/><path class="cls-1" d="M162.41,3.63l.73.39a.24.24,0,0,1-.1.15c-.28.94-.71,2.19-1.09,3.16a3.76,3.76,0,0,1,1.13,2.48c0,1.85-1.18,1.8-2,1.76a2.64,2.64,0,0,0-.26-.94h.65c.35,0,.61-.16.61-.93A3.42,3.42,0,0,0,161,7.46c.31-.84.62-1.93.84-2.76h-1.31v9.69h-1V3.67h2.78Zm5.65,9.14c0,.34,0,.37.25.37H169c.23,0,.28-.18.3-1.43a2.81,2.81,0,0,0,1,.44c-.11,1.58-.37,2-1.14,2h-1c-.93,0-1.15-.32-1.15-1.37V9.93H165.8c-.16,2.12-.6,3.63-3,4.45a3.24,3.24,0,0,0-.61-.88c2-.62,2.36-1.75,2.5-3.57h-1.49v-1h6.85v1h-2Zm-4.95-8.19H166V3.15l1.38.09c0,.09-.09.17-.27.19V4.58h3V6.93h-.95v.78H164V6.94h-.91ZM169,6.72V5.56h-4.85V6.72Z"/><path class="cls-1" d="M178.9,3.63l.73.39a.22.22,0,0,1-.11.15c-.27.94-.7,2.19-1.09,3.16a3.73,3.73,0,0,1,1.14,2.48c0,1.85-1.18,1.8-2,1.76a2.63,2.63,0,0,0-.25-.94h.65c.35,0,.61-.16.61-.93a3.46,3.46,0,0,0-1.1-2.25c.31-.84.62-1.93.84-2.76H177v9.69h-1V3.67h2.77Zm5.65,9.14c0,.34,0,.37.25.37h.65c.23,0,.28-.18.3-1.43a2.81,2.81,0,0,0,1,.44c-.11,1.58-.37,2-1.14,2h-.95c-.93,0-1.15-.32-1.15-1.37V9.93h-1.19c-.15,2.12-.6,3.63-3,4.45a3.24,3.24,0,0,0-.61-.88c1.95-.62,2.36-1.75,2.49-3.57h-1.48v-1h6.84v1h-2Zm-5-8.19h2.85V3.15l1.38.09c0,.09-.1.17-.28.19V4.58h3V6.93h-.95v.78h-5.07V6.94h-.91Zm5.86,2.14V5.56H180.6V6.72Z"/><path class="cls-1" d="M198.07,9.94l1,.76a.37.37,0,0,1-.31.06,21.19,21.19,0,0,1-2.33,1.35,8.13,8.13,0,0,0,3.2,1.29,4.05,4.05,0,0,0-.71,1,7.44,7.44,0,0,1-5.53-4.48h-1.61v2.94l2.9-.43,0,.93c-1.84.34-3.78.66-5,.87a.25.25,0,0,1-.18.19l-.45-1.19,1.55-.21V9.94h-2.09v-1h2.1V3.61h7.59v.95h-6.44v.85h6.08v.9h-6.08v.85h6.08v.9h-6.08v.86h7.64v1Zm-3.51,0a5.88,5.88,0,0,0,1.13,1.54A18,18,0,0,0,198,9.94Z"/><path class="cls-1" d="M210.45,6.69h-1.79v7.69h-1.14V6.69H207a12.37,12.37,0,0,1-1.17,2.47,7.71,7.71,0,0,0-1-.66,15.63,15.63,0,0,0,1.87-5.35l1.41.33c0,.11-.13.15-.29.15-.13.64-.3,1.3-.49,1.93h3.13Zm5.64-1.13V6.69h-1.92V13c0,1.24-.46,1.42-2.67,1.42a5.56,5.56,0,0,0-.38-1.2c.69,0,1.4,0,1.62,0s.26-.07.26-.25V6.69h-1.21a11.24,11.24,0,0,1-1.26,2.4,6.07,6.07,0,0,0-1-.71,14,14,0,0,0,2-5.23l1.45.36a.28.28,0,0,1-.3.15c-.15.63-.34,1.28-.54,1.9Z"/><path class="cls-1" d="M218.39,4h10.05v10.3h-1.18v-.75h-7.73v.75h-1.14Zm4.36,1.11h-3.22v3h3.22Zm-3.22,4.18v3.11h3.22V9.27Zm7.73-1.14v-3H223.9v3Zm-3.36,4.25h3.36V9.27H223.9Z"/><path class="cls-1" d="M232.05,5.67a6.42,6.42,0,0,1-.7,3.22l-.8-.49a5.89,5.89,0,0,0,.61-2.86ZM234,5.05a12.21,12.21,0,0,1,.84,1.79l-.81.44a11.64,11.64,0,0,0-.7-1.67v8.77h-1.11V3.15l1.38.08c0,.1-.09.16-.27.2V5.37Zm3.54,7.57a.26.26,0,0,1-.27.1,10,10,0,0,1-2.66,1.7,4.84,4.84,0,0,0-.76-.74,7.13,7.13,0,0,0,2.48-1.52Zm4.34-.48h-2.42A26.31,26.31,0,0,1,242,13.85l-1.1.57a22.43,22.43,0,0,0-2.33-1.73l.8-.55h-5.33v-1h7.82Zm-4.41-6.35V5.05h-3.09V4.13h3.09v-1l1.42.08c0,.1-.1.16-.29.2v.7h3.12v.92h-3.12v.74h2.22v4.76h-5.53V5.79Zm2.29,1.36V6.54H236.3v.61Zm0,1.33V7.86H236.3v.62Zm0,1.33V9.19H236.3v.62Z"/><path class="cls-1" d="M254.59,7.46h-4.41a9,9,0,0,0,4.72,5.89,5.5,5.5,0,0,0-.85,1.05c-2.38-1.17-3.89-3.38-4.83-6.23a8.52,8.52,0,0,1-4.87,6.21,3.8,3.8,0,0,0-.86-1,7.57,7.57,0,0,0,4.65-6h-4.31V6.3h4.48c.12-1.13.11-2.21.12-3.15l1.53.1c0,.13-.12.2-.31.24,0,.82,0,1.79-.13,2.81h5.07ZM250,14.15a17.38,17.38,0,0,0-2.29-2.42l1-.68a17.19,17.19,0,0,1,2.35,2.3Z"/><path class="cls-1" d="M258.31,12.21l1.95-.44c-.29-.41-.57-.81-.86-1.17l.86-.49a16.32,16.32,0,0,1,2,3l-.95.58a7.44,7.44,0,0,0-.54-1c-1.39.42-2.79.83-3.74,1.08a.24.24,0,0,1-.18.2l-.46-1.31c.25,0,.52-.09.81-.16V4.65h1.87V3.14l1.36.09c0,.09-.09.15-.27.19V4.65H262V9.89h-3.69Zm2.63-6.5h-2.63v1.1h2.63Zm-2.63,3.12h2.63V7.72h-2.63Zm8.57-5,.72.34a.19.19,0,0,1-.12.14c-.44,1-1,2.29-1.68,3.56,1.27,1.19,1.76,2.09,1.76,2.91,0,2-1.45,2.06-2.24,2.06h-.5a2.29,2.29,0,0,0-.35-1.08,7.42,7.42,0,0,0,.77.05c.67,0,1.23-.05,1.23-1.06,0-.73-.54-1.5-1.84-2.67.52-1.13,1-2.2,1.36-3.12h-2v9.44h-1.1V3.91h3.77Z"/><rect class="cls-2" width="284.77" height="18.05"/></g></g></svg>